      <svg
        xmlns="http://www.w3.org/2000/svg"
        version="1.1"
        width="500"
        height="500"
        viewBox="-290 -290 500 500"
        xmlSpace="preserve"
      >
        <g transform="matrix(10.05 0 0 10.05 -135.53 -103.85)">
          <path
            vectorEffect="non-scaling-stroke"
            transform=" translate(-13.26, -18.07)"
            d="M 26.391 32.0051 C 26.4168 31.8935 26.4425 31.7819 26.4597 31.666 C 26.4856 31.5024 26.5028 31.3376 26.5112 31.1722 C 26.532 30.6864 26.4887 30.1999 26.3824 29.7254 C 26.3824 29.6825 26.3824 29.6352 26.3524 29.5923 C 26.0196 28.332 25.2375 27.2369 24.1533 26.5134 C 23.0691 25.7898 21.7577 25.4877 20.4662 25.6639 L 20.4061 25.6639 C 19.2313 25.7491 18.0507 25.7044 16.8856 25.5308 C 13.451 25.05 11.1841 22.8089 10.4456 20.074 C 9.3723 16.1199 11.4374 12.3461 16.0956 10.4012 C 18.7704 9.28492 20.595 6.81197 19.8823 3.99556 C 19.7133 3.32198 19.4131 2.68835 18.9989 2.13095 C 18.5847 1.57355 18.0646 1.10333 17.4684 0.747205 C 16.8722 0.391081 16.2116 0.156051 15.5244 0.0555693 C 14.8373 -0.0449121 14.137 -0.00887058 13.4638 0.16163 C 10.8149 0.831387 9.33366 3.38162 9.53974 6.05206 C 9.91755 11.0237 8.58663 13.9389 2.97956 16.5277 C 2.83281 16.5918 2.68951 16.6634 2.55023 16.7424 C 2.02892 17.0415 1.56396 17.4294 1.17637 17.8887 C 1.08333 17.9972 0.995913 18.1104 0.914476 18.2279 C 0.7513 18.4678 0.607725 18.7205 0.485144 18.9835 C 0.425038 19.108 0.373518 19.2368 0.321999 19.3699 C 0.320289 19.3842 0.320289 19.3986 0.321999 19.4128 C 0.274772 19.5416 0.231839 19.6662 0.193199 19.7992 L 0.193199 19.8508 C 0.154559 19.9839 0.120213 20.117 0.0944529 20.25 C 0.0944529 20.25 0.0944529 20.25 0.0944529 20.2844 C 0.068693 20.4161 0.0472264 20.5592 0.0300532 20.7137 C 0.0300532 20.8511 0.00429331 20.9885 0 21.1431 L 0 21.2032 C 0 21.3363 0 21.4736 0 21.611 C 0 21.6325 0 21.6583 0 21.6797 C 0 21.8171 0.0257599 21.9545 0.0472265 22.109 C 0.0451706 22.1276 0.0451706 22.1463 0.0472265 22.1649 C 0.0691881 22.3096 0.099289 22.4529 0.137386 22.5942 C 0.171733 22.7359 0.214666 22.8776 0.261892 23.0235 C 0.261892 23.0235 0.261892 23.0579 0.261892 23.0793 C 0.304825 23.2081 0.356345 23.3369 0.412158 23.4614 C 0.424749 23.4831 0.434831 23.5062 0.442211 23.5301 C 0.502318 23.6503 0.562424 23.7706 0.626824 23.8865 C 0.626824 23.9079 0.64829 23.9251 0.656877 23.9423 C 0.729863 24.0625 0.798556 24.1784 0.880129 24.2943 C 0.961702 24.4103 1.04328 24.5219 1.13343 24.6335 C 1.2193 24.7409 1.31375 24.8439 1.40821 24.9426 L 1.44685 24.977 C 1.54028 25.0755 1.63918 25.1687 1.74309 25.256 C 1.75243 25.2682 1.7641 25.2785 1.77743 25.2861 C 1.88476 25.3806 1.9921 25.4664 2.10372 25.548 C 2.34021 25.7204 2.59166 25.8712 2.85505 25.9988 C 2.98385 26.0632 3.11265 26.1233 3.24575 26.1748 L 3.26721 26.1748 C 3.82789 26.393 4.4218 26.5135 5.02318 26.5312 C 5.17774 26.5312 5.328 26.5312 5.48256 26.5312 C 9.93043 26.3465 12.9916 27.4242 14.8506 29.8799 C 15.3632 30.602 15.7924 31.3797 16.13 32.1983 L 16.1557 32.2499 C 17.053 34.5554 19.0623 36.1739 21.3807 36.1353 C 21.7701 36.129 22.1576 36.0786 22.5356 35.985 C 23.458 35.7521 24.3002 35.274 24.9729 34.6013 C 25.6456 33.9286 26.1238 33.0864 26.3567 32.164 C 26.3738 32.1168 26.3781 32.0609 26.391 32.0051 Z"
            strokeLinecap="round"
            fill="#5D98D2"
          />
        </g>
        <g transform="matrix(10.05 0 0 10.05 34.27 15.7)">
          <path
            vectorEffect="non-scaling-stroke"
            transform=" translate(-30.16, -29.96)"
            d="M 17.0272 15.9911 C 17.0015 16.107 16.9757 16.2186 16.9585 16.3302 C 16.9327 16.4952 16.9155 16.6615 16.907 16.8283 C 16.8826 17.314 16.9245 17.8007 17.0315 18.2751 C 17.0315 18.318 17.0315 18.3653 17.0616 18.4082 C 17.3952 19.668 18.1775 20.7625 19.2615 21.486 C 20.3454 22.2094 21.6563 22.5119 22.9477 22.3366 L 23.0121 22.3366 C 24.1868 22.2502 25.3674 22.2934 26.5326 22.4654 C 29.9673 22.9505 32.2341 25.1916 32.9726 27.9265 C 34.0459 31.8806 31.9808 35.6545 27.3226 37.5993 C 24.6522 38.7242 22.8275 41.2143 23.5402 44.0135 C 23.7102 44.6859 24.0109 45.3182 24.4252 45.8743 C 24.8396 46.4304 25.3594 46.8994 25.955 47.2547 C 26.5506 47.6099 27.2104 47.8443 27.8966 47.9445 C 28.5828 48.0448 29.2821 48.0089 29.9544 47.8389 C 32.6034 47.1648 34.0846 44.6189 33.8828 41.9484 C 33.5007 36.9768 34.8316 34.0616 40.443 31.4728 C 40.5846 31.4041 40.722 31.3354 40.8723 31.2581 C 41.3927 30.9578 41.8575 30.57 42.2462 30.1118 C 42.3363 30.0044 42.4265 29.8885 42.508 29.7726 C 42.6708 29.5309 42.8143 29.2768 42.9374 29.0127 C 42.9975 28.8839 43.0533 28.7551 43.1005 28.6263 C 43.1022 28.612 43.1022 28.5976 43.1005 28.5834 C 43.1477 28.4546 43.1907 28.3301 43.2293 28.197 C 43.2293 28.197 43.2293 28.1626 43.2293 28.1454 C 43.2637 28.0124 43.298 27.8793 43.3238 27.7462 C 43.3259 27.7348 43.3259 27.7232 43.3238 27.7118 C 43.3538 27.5744 43.371 27.437 43.3882 27.2825 C 43.3882 27.1451 43.3882 27.0034 43.4139 26.8532 L 43.4139 26.7888 C 43.4139 26.6557 43.4139 26.5226 43.4139 26.3852 C 43.4139 26.3852 43.4139 26.338 43.4139 26.3122 C 43.4139 26.1748 43.3925 26.0417 43.371 25.9043 L 43.371 25.8442 C 43.371 25.7025 43.3195 25.5566 43.2851 25.4149 C 43.2508 25.2732 43.2036 25.1315 43.1563 24.9856 L 43.1563 24.9298 C 43.1091 24.801 43.0576 24.6722 43.0018 24.5476 C 42.9892 24.526 42.9791 24.5029 42.9717 24.479 C 42.9159 24.3587 42.8515 24.2385 42.7871 24.1183 L 42.7871 24.041 C 42.7193 23.9196 42.6447 23.8021 42.5639 23.689 C 42.4823 23.5731 42.4007 23.4657 42.3106 23.3541 L 42.3106 23.3283 C 42.2204 23.2253 42.1302 23.1223 42.0315 23.0235 L 41.9971 22.9849 C 41.8984 22.8904 41.7996 22.796 41.7009 22.7101 L 41.6623 22.6758 C 41.5549 22.5856 41.4476 22.4997 41.336 22.4182 C 41.0975 22.255 40.8462 22.1115 40.5846 21.9888 C 40.4558 21.9287 40.3227 21.8686 40.1897 21.8171 C 39.6287 21.6003 39.0348 21.4812 38.4337 21.465 C 38.2834 21.465 38.1289 21.465 37.9743 21.465 C 33.5307 21.654 30.4653 20.5763 28.6063 18.1206 C 28.1117 17.4114 27.697 16.6497 27.3698 15.8494 L 27.3441 15.7936 C 26.4468 13.4924 24.4418 11.8738 22.1191 11.9296 C 21.7295 11.9339 21.3419 11.9843 20.9642 12.0799 C 20.0422 12.3136 19.2005 12.792 18.5279 13.4646 C 17.8553 14.1372 17.3769 14.9789 17.1431 15.9009 C 17.0487 15.8837 17.0401 15.9396 17.0272 15.9911 Z"
            strokeLinecap="round"
            fill="#FF6D2A"
          />
        </g>
      </svg>
