<svg width="881" height="314" viewBox="0 0 881 314" fill="none" xmlns="http://www.w3.org/2000/svg">
<path d="M220.15 136.55C210.8 136.55 203.19 140.93 199.61 149.36C195.92 140.94 188.3 136.55 179.07 136.55C165.92 136.55 156 144.74 156 161.7V195.04H163.73V161.7C163.73 149.59 170.42 143.7 179.65 143.7C188.88 143.7 195.8 149.81 195.8 161.7V195.04H203.53V161.7C203.53 149.82 210.34 143.7 219.57 143.7C228.8 143.7 235.49 149.58 235.49 161.7V195.04H243.22V161.7C243.22 144.74 233.3 136.55 220.15 136.55Z" fill="#292929"/>
<path d="M270.78 140.52C255.19 149.52 250.55 166.85 259.2 181.85C267.85 196.84 285.19 201.49 300.78 192.49C312.27 185.85 317.8 174.67 316.35 163.38L309.06 167.59C309.15 175.13 305.01 181.79 297.21 186.29C286.12 192.69 274.22 189.84 267.38 180.07L313.44 153.47L312.17 151.27C303.52 136.28 286.38 131.52 270.79 140.52H270.78ZM264.1 173.94C260 163.38 264.06 152.65 274.36 146.7C284.66 140.75 295.61 142.42 302.97 151.5L264.1 173.94Z" fill="#292929"/>
<path d="M356.29 136.55C339.45 136.55 328.14 146.36 328.14 165.28V195.05H335.87V165.28C335.87 151.2 343.95 143.71 356.29 143.71C368.63 143.71 376.71 151.21 376.71 165.28V195.05H384.44V165.28C384.44 146.36 373.13 136.55 356.29 136.55Z" fill="#292929"/>
<path d="M435.66 174.05C435.66 184.55 429.78 189.39 421.01 189.39C412.24 189.39 406.36 184.43 406.36 174.05V145.09H439.93V138.05H406.36V117.86H398.63V174.05C398.63 189.05 407.74 196.55 421.01 196.55C434.28 196.55 443.16 189.05 443.16 174.05V172.78H435.66V174.05Z" fill="#292929"/>
<path d="M510.08 136.55C493.24 136.55 481.93 146.36 481.93 165.28V195.05H489.66V165.28C489.66 151.2 497.74 143.71 510.08 143.71C522.42 143.71 530.5 151.21 530.5 165.28V195.05H538.23V165.28C538.23 146.36 526.92 136.55 510.08 136.55Z" fill="#292929"/>
<path d="M653.95 136.55C635.95 136.55 623.26 149.24 623.26 166.55C623.26 183.86 635.95 196.55 653.95 196.55C671.95 196.55 684.64 183.86 684.64 166.55C684.64 149.24 671.95 136.55 653.95 136.55ZM653.95 189.39C640.34 189.39 631.11 179.7 631.11 166.55C631.11 153.4 640.34 143.71 653.95 143.71C667.56 143.71 676.79 153.4 676.79 166.55C676.79 179.7 667.56 189.39 653.95 189.39Z" fill="#292929"/>
<path d="M580.74 136.55C562.74 136.55 550.05 149.24 550.05 166.55C550.05 183.86 562.74 196.55 580.74 196.55C598.74 196.55 611.43 183.86 611.43 166.55C611.43 149.24 598.74 136.55 580.74 136.55ZM580.74 189.39C567.13 189.39 557.9 179.7 557.9 166.55C557.9 153.4 567.13 143.71 580.74 143.71C594.35 143.71 603.58 153.4 603.58 166.55C603.58 179.7 594.35 189.39 580.74 189.39Z" fill="#292929"/>
<path d="M580.74 211.82C573.01 211.82 565.82 209.49 559.84 205.5L555.56 211.94C562.77 216.75 571.43 219.55 580.74 219.55C590.05 219.55 598.71 216.74 605.92 211.94L601.64 205.5C595.66 209.49 588.47 211.82 580.74 211.82Z" fill="#292929"/>
<path d="M455.85 136.55C455.85 133.2 458.39 130.67 461.73 130.67C465.07 130.67 467.61 133.21 467.61 136.55C467.61 139.89 465.07 142.43 461.73 142.43C458.39 142.43 455.85 139.89 455.85 136.55Z" fill="#292929"/>
<path d="M461.74 152.44C460.42 152.44 459.15 152.27 457.93 151.98V195.06H465.66V151.96C464.41 152.27 463.1 152.45 461.74 152.45V152.44Z" fill="#292929"/>
<path d="M580.75 143.67V136.56H607.74C607.74 140.49 604.55 143.67 600.63 143.67H580.75Z" fill="#292929"/>
<path d="M702.45 148.55C702.45 135.4 711.68 125.71 725.29 125.71V118.56C707.29 118.56 694.6 131.25 694.6 148.56H702.45V148.55Z" fill="#4796FD"/>
<path d="M671.67 125.71C684.82 125.71 694.51 134.94 694.51 148.55H701.66C701.66 130.55 688.97 117.86 671.66 117.86V125.71H671.67Z" fill="#4796FD"/>
<path d="M725.29 117.85C712.14 117.85 702.45 108.62 702.45 95.0098H695.3C695.3 113.01 707.99 125.7 725.3 125.7V117.85H725.29Z" fill="#4796FD"/>
<path d="M694.51 95.01C694.51 108.16 685.28 117.85 671.67 117.85V125C689.67 125 702.36 112.31 702.36 95H694.51V95.01Z" fill="#4796FD"/>
</svg>
