<svg width="22" height="22" viewBox="0 0 22 22" fill="none" xmlns="http://www.w3.org/2000/svg">
<path d="M1.69961 13.5891V12.382V2.99961C1.69961 2.65483 1.83657 2.32417 2.08037 2.08037L2.43392 2.43392L2.08037 2.08037C2.32417 1.83657 2.65483 1.69961 2.99961 1.69961H18.9996C19.3444 1.69961 19.6751 1.83657 19.9188 2.08037C20.1626 2.32417 20.2996 2.65483 20.2996 2.99961V13.982V15.1891L19.4461 14.3356L16.7551 11.6446L1.69961 13.5891ZM1.69961 13.5891L2.55316 12.7356L5.24436 10.0444L5.24488 10.0438C5.26572 10.0229 5.29056 10.0064 5.31791 9.99534C5.34526 9.98423 5.37456 9.97875 5.40407 9.9792C5.43359 9.97966 5.46271 9.98605 5.4897 9.99799L5.69204 9.54076M1.69961 13.5891L5.69204 9.54076M5.69204 9.54076L5.4897 9.99799C5.51656 10.0099 5.54077 10.027 5.56089 10.0484C5.56099 10.0485 5.56109 10.0486 5.56119 10.0487L11.2325 16.1248L11.5856 16.5031M5.69204 9.54076L11.5856 16.5031M11.5856 16.5031L11.9516 16.1372M11.5856 16.5031L11.9516 16.1372M11.9516 16.1372L16.4441 11.6446M11.9516 16.1372L16.4441 11.6446M16.4441 11.6446L16.4444 11.6444C16.4856 11.6033 16.5414 11.5802 16.5996 11.5802C16.6578 11.5802 16.7136 11.6033 16.7549 11.6444L16.4441 11.6446ZM1.84614 14.0636L1.69961 14.21V14.4172V18.9996C1.69961 19.3444 1.83657 19.6751 2.08037 19.9188C2.32417 20.1626 2.65483 20.2996 2.99961 20.2996H13.3052H14.4321L13.6759 19.4641L11.4199 16.9713L11.42 16.9713L11.4147 16.9656L5.74749 10.8952L5.39445 10.517L5.02854 10.8828L1.84614 14.0636ZM14.8769 20.1352L15.0258 20.2996H15.2476H18.9996C19.3444 20.2996 19.6751 20.1626 19.9188 19.9188C20.1626 19.6751 20.2996 19.3444 20.2996 18.9996V16.0172V15.8101L20.1532 15.6637L16.9532 12.4637L16.5996 12.1101L16.2461 12.4637L12.2189 16.4909L11.8824 16.8273L12.2017 17.18L14.8769 20.1352ZM2.99961 1.09961H18.9996C19.5035 1.09961 19.9868 1.29979 20.3431 1.65611C20.6994 2.01243 20.8996 2.4957 20.8996 2.99961V18.9996C20.8996 19.5035 20.6994 19.9868 20.3431 20.3431C19.9868 20.6994 19.5035 20.8996 18.9996 20.8996H2.99961C2.4957 20.8996 2.01243 20.6994 1.65611 20.3431C1.29979 19.9868 1.09961 19.5035 1.09961 18.9996V2.99961C1.09961 2.4957 1.29979 2.01243 1.65611 1.65611C2.01243 1.29979 2.4957 1.09961 2.99961 1.09961ZM9.68439 6.48439C9.33557 6.83321 9.13961 7.30631 9.13961 7.79961C9.13961 8.29291 9.33557 8.76601 9.68439 9.11483C10.0332 9.46365 10.5063 9.65961 10.9996 9.65961C11.4929 9.65961 11.966 9.46365 12.3148 9.11483C12.6636 8.76601 12.8596 8.29291 12.8596 7.79961C12.8596 7.30631 12.6636 6.83321 12.3148 6.48439C11.966 6.13557 11.4929 5.93961 10.9996 5.93961C10.5063 5.93961 10.0332 6.13557 9.68439 6.48439ZM10.1194 5.67469C10.3985 5.5591 10.6976 5.49961 10.9996 5.49961C11.6096 5.49961 12.1946 5.74193 12.626 6.17326C13.0573 6.6046 13.2996 7.18961 13.2996 7.79961C13.2996 8.40961 13.0573 8.99462 12.626 9.42595C12.1946 9.85729 11.6096 10.0996 10.9996 10.0996C10.6976 10.0996 10.3985 10.0401 10.1194 9.92453C9.84039 9.80895 9.58684 9.63953 9.37326 9.42595C9.15969 9.21238 8.99027 8.95883 8.87469 8.67978C8.7591 8.40073 8.69961 8.10165 8.69961 7.79961C8.69961 7.49757 8.7591 7.19849 8.87469 6.91944C8.99027 6.64039 9.15969 6.38684 9.37326 6.17326C9.58684 5.95969 9.84039 5.79027 10.1194 5.67469Z" stroke="#3F58B6"/>
</svg>
