<svg xmlns="http://www.w3.org/2000/svg" viewBox="0 0 24 24" fill="none">
    <path d="M9.78659 9.87332C8.89497 9.87332 8.02339 9.60884 7.28212 9.11334C6.54086 8.61785 5.96324 7.91361 5.62233 7.08974C5.28143 6.26586 5.19258 5.35938 5.36701 4.48499C5.54144 3.6106 5.97132 2.8076 6.60226 2.1776C7.23319 1.5476 8.03682 1.11891 8.91147 0.94577C9.78612 0.772633 10.6925 0.862832 11.5158 1.20495C12.3392 1.54707 13.0426 2.12574 13.537 2.86774C14.0314 3.60973 14.2946 4.4817 14.2933 5.37332C14.2897 6.56687 13.8136 7.71042 12.969 8.55376C12.1244 9.3971 10.9801 9.87156 9.78659 9.87332ZM9.78659 2.19999C9.15896 2.19999 8.54543 2.3861 8.02358 2.73479C7.50172 3.08348 7.09499 3.57909 6.85481 4.15894C6.61463 4.73879 6.55178 5.37684 6.67423 5.99241C6.79667 6.60797 7.0989 7.17341 7.5427 7.61721C7.9865 8.061 8.55193 8.36323 9.1675 8.48568C9.78306 8.60812 10.4211 8.54528 11.001 8.3051C11.5808 8.06492 12.0764 7.65818 12.4251 7.13633C12.7738 6.61448 12.9599 6.00095 12.9599 5.37332C12.9599 4.5317 12.6256 3.72455 12.0305 3.12944C11.4354 2.53432 10.6282 2.19999 9.78659 2.19999Z" fill="currentColor"/>
    <path d="M10.9466 21.12C10.8009 20.9742 10.6885 20.7986 10.6171 20.6053C10.5458 20.412 10.5172 20.2054 10.5333 20H2.66659V16.1467C3.6116 15.1377 4.75809 14.3386 6.03173 13.8011C7.30538 13.2636 8.67777 12.9997 10.0599 13.0267H10.5399C10.5093 12.8031 10.5307 12.5756 10.6024 12.3617C10.6741 12.1477 10.7941 11.9533 10.9533 11.7933L11.0333 11.72C10.7199 11.72 10.3666 11.68 10.0599 11.68C8.43352 11.6414 6.81886 11.9647 5.3327 12.6265C3.84654 13.2883 2.526 14.272 1.46659 15.5067C1.38004 15.6221 1.33325 15.7624 1.33325 15.9067V20C1.33325 20.3536 1.47373 20.6927 1.72378 20.9428C1.97382 21.1928 2.31296 21.3333 2.66659 21.3333H11.1333L10.9466 21.12Z" fill="currentColor"/>
    <path d="M22.4533 15.5467L21.1199 15.14C21.0247 14.8139 20.895 14.4988 20.7333 14.2L21.3999 12.96C21.4216 12.9104 21.4268 12.8551 21.4148 12.8024C21.4028 12.7496 21.3742 12.702 21.3333 12.6667L20.3666 11.7C20.33 11.6604 20.2812 11.6343 20.228 11.6258C20.1748 11.6174 20.1203 11.627 20.0733 11.6533L18.8466 12.32C18.5449 12.1495 18.2251 12.0131 17.8933 11.9133L17.4866 10.58C17.4693 10.5309 17.4366 10.4888 17.3933 10.4599C17.35 10.4311 17.2985 10.417 17.2466 10.42H15.8799C15.8274 10.4194 15.7762 10.436 15.734 10.4673C15.6919 10.4986 15.6612 10.5429 15.6466 10.5933L15.2399 11.9267C14.906 12.0238 14.584 12.158 14.2799 12.3267L13.0666 11.66C13.0206 11.6342 12.9672 11.6248 12.9151 11.6333C12.863 11.6418 12.8154 11.6676 12.7799 11.7067L11.7933 12.6667C11.7567 12.7052 11.7331 12.7542 11.7259 12.8069C11.7188 12.8595 11.7283 12.9131 11.7533 12.96L12.4199 14.1733C12.2438 14.4739 12.1028 14.7938 11.9999 15.1267L10.6666 15.5267C10.6161 15.5412 10.5719 15.572 10.5406 15.6141C10.5093 15.6562 10.4926 15.7075 10.4933 15.76V17.1267C10.4972 17.1748 10.516 17.2206 10.547 17.2576C10.5781 17.2946 10.6199 17.3211 10.6666 17.3333L11.9999 17.74C12.0985 18.067 12.2326 18.3822 12.3999 18.68L11.7333 19.9533C11.7078 19.9989 11.698 20.0516 11.7052 20.1034C11.7124 20.1551 11.7363 20.2031 11.7733 20.24L12.7399 21.2067C12.7777 21.2443 12.8264 21.2691 12.879 21.2775C12.9317 21.2859 12.9857 21.2774 13.0333 21.2533L14.2799 20.5867C14.5764 20.7466 14.8893 20.874 15.2133 20.9667L15.6133 22.3C15.6297 22.3493 15.6608 22.3924 15.7026 22.4234C15.7443 22.4545 15.7946 22.4719 15.8466 22.4733H17.2133C17.2655 22.4729 17.3162 22.4558 17.3582 22.4247C17.4001 22.3935 17.4311 22.3499 17.4466 22.3L17.8533 20.9333C18.1726 20.8398 18.481 20.7124 18.7733 20.5533L20.0333 21.22C20.0796 21.2446 20.1327 21.2534 20.1844 21.2449C20.2362 21.2365 20.2838 21.2114 20.3199 21.1733L21.3333 20.2667C21.3605 20.2275 21.3751 20.181 21.3751 20.1333C21.3751 20.0856 21.3605 20.0391 21.3333 20L20.6666 18.7467C20.8284 18.4526 20.9581 18.1419 21.0533 17.82L22.3866 17.4133C22.437 17.3987 22.4813 17.368 22.5126 17.3259C22.5439 17.2837 22.5605 17.2325 22.5599 17.18V15.78C22.566 15.735 22.5593 15.6892 22.5404 15.6479C22.5215 15.6066 22.4913 15.5715 22.4533 15.5467ZM16.5666 18.6667C16.1256 18.668 15.6942 18.5383 15.327 18.2942C14.9598 18.05 14.6734 17.7023 14.504 17.2952C14.3347 16.888 14.29 16.4398 14.3757 16.0072C14.4614 15.5747 14.6736 15.1773 14.9854 14.8655C15.2972 14.5537 15.6946 14.3415 16.1272 14.2558C16.5597 14.1701 17.008 14.2147 17.4151 14.3841C17.8223 14.5535 18.1699 14.8399 18.4141 15.2071C18.6583 15.5743 18.7879 16.0057 18.7866 16.4467C18.7848 17.0349 18.5504 17.5985 18.1344 18.0145C17.7185 18.4304 17.1548 18.6649 16.5666 18.6667Z" fill="currentColor"/>
</svg>
