<svg width="256" height="256" viewBox="0 0 256 256" fill="none" xmlns="http://www.w3.org/2000/svg">
<g clip-path="url(#clip0_94_149)">
<path d="M136.292 71.0005L120.73 71.0005C120.73 107.063 149.959 136.292 186.022 136.292L186.022 120.731C158.556 120.731 136.313 98.4664 136.313 71.0223L136.292 71.0005Z" fill="#292929"/>
<path d="M120.708 71.0001L136.269 71.0001C136.269 107.063 107.041 136.292 70.978 136.292L70.978 120.73C98.444 120.73 120.687 98.466 120.687 71.0218L120.708 71.0001Z" fill="#292929"/>
<path d="M120.709 186L136.27 186C136.291 149.937 107.063 120.709 71 120.709L71 136.27C98.4659 136.27 120.709 158.534 120.709 185.978L120.709 186Z" fill="#4796FD"/>
<path d="M136.291 186L120.73 186C120.73 149.937 149.959 120.709 186.022 120.709L186.022 136.27C158.556 136.27 136.313 158.534 136.313 185.978L136.291 186Z" fill="#4796FD"/>
</g>
<defs>
<clipPath id="clip0_94_149">
<rect width="115" height="115" fill="white" transform="translate(71 186) rotate(-90)"/>
</clipPath>
</defs>
</svg>
