<svg viewBox="0 0 16 16" fill="none" xmlns="http://www.w3.org/2000/svg">
    <path fill-rule="evenodd" clip-rule="evenodd" d="M8.68903 3.35566C8.73858 3.30599 8.79743 3.26659 8.86223 3.2397C8.92702 3.21281 8.99648 3.19897 9.06663 3.19897C9.13679 3.19897 9.20625 3.21281 9.27104 3.2397C9.33584 3.26659 9.39469 3.30599 9.44423 3.35566L13.7109 7.62233C13.7606 7.67187 13.8 7.73072 13.8269 7.79552C13.8537 7.86031 13.8676 7.92978 13.8676 7.99993C13.8676 8.07008 13.8537 8.13954 13.8269 8.20434C13.8 8.26913 13.7606 8.32799 13.7109 8.37753L9.44423 12.6442C9.34409 12.7443 9.20826 12.8006 9.06663 12.8006C8.92501 12.8006 8.78918 12.7443 8.68903 12.6442C8.58889 12.544 8.53263 12.4082 8.53263 12.2666C8.53263 12.125 8.58889 11.9891 8.68903 11.889L12.0458 8.53326H2.66663C2.52519 8.53326 2.38953 8.47707 2.28951 8.37705C2.18949 8.27703 2.1333 8.14138 2.1333 7.99993C2.1333 7.85848 2.18949 7.72282 2.28951 7.62281C2.38953 7.52279 2.52519 7.46659 2.66663 7.46659H12.0458L8.68903 4.11086C8.63937 4.06132 8.59996 4.00247 8.57307 3.93767C8.54619 3.87288 8.53235 3.80341 8.53235 3.73326C8.53235 3.66311 8.54619 3.59365 8.57307 3.52885C8.59996 3.46406 8.63937 3.4052 8.68903 3.35566Z" fill="currentColor"/>
</svg>
