<svg width="16" height="9" viewBox="0 0 16 9" fill="none" xmlns="http://www.w3.org/2000/svg">
<path d="M1.38072 7.80515L1.38098 7.80543C1.40792 7.8342 1.44026 7.85739 1.47617 7.87365C1.51207 7.88992 1.55083 7.89895 1.59022 7.90023C1.62961 7.90151 1.66887 7.89502 1.70576 7.88112C1.74264 7.86722 1.77643 7.84619 1.80518 7.81923L1.80518 7.81923L7.65798 2.33123L7.99999 2.01054L8.34199 2.33123L14.1947 7.8191C14.2528 7.87356 14.3301 7.9027 14.4098 7.90011C14.4894 7.89752 14.5647 7.86341 14.6191 7.80529C14.6736 7.74717 14.7027 7.6698 14.7001 7.5902C14.6975 7.5106 14.6634 7.43528 14.6053 7.38083L14.6052 7.38073L8.20522 1.38073L8.20519 1.3807C8.14958 1.32856 8.07621 1.29955 7.99999 1.29955C7.92376 1.29955 7.85039 1.32856 7.79479 1.3807L7.79476 1.38073L1.39476 7.38073L1.39452 7.38095C1.36575 7.40789 1.34257 7.44024 1.3263 7.47614C1.31003 7.51204 1.301 7.5508 1.29972 7.59019C1.29844 7.62959 1.30493 7.66885 1.31883 7.70573C1.33273 7.74262 1.35376 7.7764 1.38072 7.80515Z" stroke="#3F58B6"/>
</svg>
