<svg viewBox="0 0 16 16" fill="none" xmlns="http://www.w3.org/2000/svg">
  <path fill-rule="evenodd" clip-rule="evenodd" d="M5.54204 5.17262C5.64332 5.2739 5.64332 5.4381 5.54204 5.53938C5.44076 5.64065 5.27656 5.64065 5.17529 5.53938C5.07401 5.4381 5.07401 5.2739 5.17529 5.17262C5.27656 5.07135 5.44076 5.07135 5.54204 5.17262Z" stroke="currentColor" stroke-linecap="round" stroke-linejoin="round"/>
  <path fill-rule="evenodd" clip-rule="evenodd" d="M4.82933 2.01666L6.72867 2C7.08267 1.99666 7.42333 2.13666 7.674 2.38666L13.61 8.32533C14.1307 8.846 14.1307 9.69066 13.61 10.2113L10.214 13.6093C9.69333 14.1307 8.848 14.1307 8.32733 13.6093L2.38667 7.66666C2.13933 7.41933 2 7.08333 2 6.73266V4.858C2 4.50733 2.13933 4.17133 2.38667 3.924L3.90667 2.40333C4.152 2.158 4.48333 2.01933 4.82933 2.01666Z" stroke="currentColor" stroke-linecap="round" stroke-linejoin="round"/>
</svg>
