<svg width="12" height="10" viewBox="0 0 12 10" fill="none" xmlns="http://www.w3.org/2000/svg">
<path fill-rule="evenodd" clip-rule="evenodd" d="M5.31094 0.355905C5.36061 0.405447 5.40001 0.464301 5.4269 0.529096C5.45379 0.593891 5.46762 0.663354 5.46762 0.733506C5.46762 0.803657 5.45379 0.87312 5.4269 0.937915C5.40001 1.00271 5.36061 1.06156 5.31094 1.11111L1.95414 4.46684H11.3333C11.4748 4.46684 11.6104 4.52303 11.7105 4.62305C11.8105 4.72307 11.8667 4.85872 11.8667 5.00017C11.8667 5.14162 11.8105 5.27728 11.7105 5.3773C11.6104 5.47732 11.4748 5.53351 11.3333 5.53351H1.95414L5.31094 8.88924C5.41108 8.98938 5.46735 9.12521 5.46735 9.26684C5.46735 9.40847 5.41108 9.54429 5.31094 9.64444C5.21079 9.74459 5.07497 9.80085 4.93334 9.80085C4.79171 9.80085 4.65588 9.74459 4.55574 9.64444L0.289072 5.37777C0.239404 5.32823 0.199999 5.26938 0.173112 5.20458C0.146225 5.13979 0.132385 5.07032 0.132385 5.00017C0.132385 4.93002 0.146225 4.86056 0.173112 4.79576C0.199999 4.73097 0.239404 4.67211 0.289072 4.62257L4.55574 0.355905C4.60528 0.306238 4.66413 0.266832 4.72893 0.239945C4.79372 0.213059 4.86319 0.199219 4.93334 0.199219C5.00349 0.199219 5.07295 0.213059 5.13775 0.239945C5.20254 0.266832 5.2614 0.306238 5.31094 0.355905Z" fill="#676767"/>
</svg>
