<svg width="240" height="184" viewBox="0 0 240 184" fill="none" xmlns="http://www.w3.org/2000/svg">
<path d="M22.5897 31.6162C28.1889 28.1776 30.2721 21.3913 27.2428 16.4586C24.2135 11.5259 17.2188 10.3147 11.6196 13.7533C6.02046 17.1919 3.93719 23.9782 6.9665 28.9109C9.99581 33.8436 16.9906 35.0548 22.5897 31.6162Z" fill="#E1EAF8"/>
<path d="M39.4649 11.357C42.0835 9.74881 43.0443 6.55302 41.6109 4.21897C40.1774 1.88491 36.8927 1.29645 34.2741 2.9046C31.6555 4.51274 30.6947 7.70853 32.1281 10.0426C33.5616 12.3766 36.8463 12.9651 39.4649 11.357Z" fill="#E1EAF8"/>
<path d="M232.41 120.641C228.392 106.768 220.271 94.0848 220.724 79.1398C221.135 65.588 228.056 56.2684 228.748 42.7947C230.125 15.9884 204.006 -6.04287 173.567 4.83598C160.038 9.67137 147.522 19.1711 133.644 21.7681C114.177 25.4106 100.289 11.4851 81.7423 10.8945C65.5599 10.3807 49.316 15.9696 36.1731 28.2274C25.8368 37.8675 18.0691 51.1065 13.9765 65.4597C10.4056 77.9851 12.2279 90.8944 16.8804 102.208C26.6952 128.058 59.7521 160.353 103.528 174.806C147.304 189.258 199.631 184.084 220.106 169.303C233.768 159.357 237.048 136.658 232.41 120.641Z" fill="#E1EAF8"/>
<path d="M45.6451 148.172C40.5871 146.411 36.0232 143.358 32.4981 139.156C30.0973 136.293 27.6966 133.431 25.2958 130.569C21.6997 126.281 17.3589 121.634 11.9257 121.799C8.06261 121.916 4.56077 124.638 2.59414 128.138C0.627608 131.637 0.0111275 135.811 0.000153127 139.877C-0.0286421 150.533 4.005 161.143 11.0119 168.84C13.4956 171.568 16.3462 173.922 19.4388 175.84C22.1686 177.533 25.0191 179.166 28.1173 179.867C34.846 181.387 40.4203 180.219 43.674 179.027C47.0814 177.78 50.0431 175.253 52.4358 172.453C56.394 167.821 58.0082 160.576 55.0189 155.199C53.0064 151.58 49.5119 149.519 45.6451 148.172Z" fill="#E1EAF8"/>
<path d="M164.467 184.007C145.273 184.007 125.901 181.043 108.887 175.426C88.3818 168.656 68.9748 157.569 52.764 143.364C38.0685 130.487 27.1871 116.053 22.124 102.719C18.5099 93.9291 15.0697 80.3942 19.2156 65.8531C23.3651 51.2997 31.2663 38.0466 41.4638 28.5356C54.0568 16.791 70.2839 10.6082 87.1655 11.1531C95.2497 11.4102 102.539 14.2249 109.588 16.9468C118.672 20.4532 128.065 24.0808 139.027 22.0297C147.252 20.4909 155.148 16.4417 162.784 12.5267C168.016 9.8439 173.425 7.0706 178.922 5.10578C193.149 0.0206056 207.659 1.82897 218.734 10.0649C229.181 17.8343 235.019 30.239 234.35 43.2478C234.01 49.8761 232.142 55.5821 230.335 61.1005C228.467 66.8058 226.536 72.706 226.327 79.5893C226.023 89.6278 229.674 98.8252 233.206 107.719C234.92 112.039 236.694 116.506 238.005 121.034C242.691 137.214 239.343 159.915 225.632 169.897C215.395 177.288 197.299 182.298 175.984 183.646C172.166 183.887 168.319 184.007 164.467 184.007ZM85.1404 11.4921C69.0869 11.4921 53.7365 17.5966 41.7166 28.8066C31.568 38.2727 23.7033 51.4656 19.5719 65.9546C15.4557 80.3936 18.8753 93.8423 22.4692 102.582C27.5127 115.865 38.3575 130.248 53.008 143.086C69.1818 157.258 88.5447 168.319 109.004 175.074C129.388 181.804 153.166 184.719 175.96 183.276C197.207 181.932 215.232 176.947 225.414 169.597C238.993 159.712 242.298 137.195 237.649 121.136C236.342 116.627 234.572 112.168 232.86 107.856C229.315 98.9266 225.649 89.693 225.956 79.5778C226.166 72.6415 228.106 66.7153 229.982 60.9846C231.781 55.4901 233.642 49.8079 233.98 43.2289C234.642 30.344 228.859 18.0581 218.512 10.3626C207.538 2.20199 193.154 0.413973 179.046 5.45495C173.572 7.41182 168.174 10.1793 162.953 12.8563C155.293 16.7838 147.373 20.8452 139.095 22.3949C128.03 24.4618 118.586 20.8184 109.454 17.2931C102.434 14.582 95.1748 11.779 87.1536 11.524C86.4818 11.5022 85.8103 11.4921 85.1404 11.4921Z" fill="#E1EAF8"/>
<path d="M39.9495 181.218C37.984 181.218 35.8153 181.015 33.4929 180.491C30.29 179.766 27.3044 178.02 24.7574 176.441C21.6121 174.489 18.7638 172.123 16.2911 169.407C9.23354 161.655 5.20212 151.053 5.23111 140.319C5.2445 135.47 6.10081 131.602 7.84906 128.49C10.0156 124.634 13.6511 122.169 17.3366 122.057C22.8463 121.881 27.1954 126.53 30.8544 130.892L38.0566 139.479C41.4757 143.555 45.9937 146.654 51.1226 148.439C55.7293 150.044 58.8286 152.371 60.5975 155.552C63.7856 161.286 61.7005 168.678 57.9933 173.016C55.1946 176.292 52.2206 178.522 49.1546 179.645C47.2827 180.33 44.0617 181.218 39.9495 181.218ZM17.6219 122.423C17.531 122.423 17.4397 122.425 17.3477 122.427C13.7915 122.535 10.2756 124.928 8.17205 128.671C6.45571 131.726 5.61501 135.537 5.60192 140.32C5.57333 150.962 9.56922 161.473 16.5656 169.157C19.0147 171.847 21.8366 174.192 24.9529 176.125C27.4741 177.689 30.4278 179.417 33.5747 180.128C40.6641 181.732 46.2988 180.295 49.0268 179.297C52.0324 178.196 54.9542 176.002 57.7112 172.776C61.3351 168.534 63.3788 161.318 60.2734 155.732C58.5506 152.634 55.5171 150.363 51.0007 148.79C45.8083 146.982 41.2343 143.845 37.7723 139.718L30.5702 131.131C27.029 126.909 22.8241 122.423 17.6219 122.423Z" fill="#E1EAF8"/>
<path d="M124.479 177.452C180.734 177.452 226.338 173.732 226.338 169.144C226.338 164.555 180.734 160.835 124.479 160.835C68.2239 160.835 22.6201 164.555 22.6201 169.144C22.6201 173.732 68.2239 177.452 124.479 177.452Z" fill="#A6C3EA"/>
<path d="M180.696 61.4121H56.4427C52.7945 61.4121 49.8369 64.3697 49.8369 68.0179V162.007H187.302V68.0179C187.301 64.3697 184.344 61.4121 180.696 61.4121Z" fill="#3F58B6"/>
<path d="M54.8813 152.006V66.4592L54.8816 66.459H182.258V152.006H54.8813Z" fill="#F2F5FC"/>
<path d="M35.3809 158.141V160.705C35.3809 163.56 37.6957 165.875 40.5511 165.875H196.587C199.443 165.875 201.758 163.56 201.758 160.705V158.141H35.3809Z" fill="#4F6FC9"/>
<path d="M99.2759 158.141V158.518C99.2759 159.157 99.7938 159.675 100.433 159.675H136.707C137.346 159.675 137.864 159.157 137.864 158.518V158.141H99.2759Z" fill="#E1EAF8"/>
<path d="M126.989 139.631C127.339 135.401 124.194 131.688 119.963 131.337C115.733 130.987 112.02 134.133 111.67 138.363C111.32 142.593 114.465 146.306 118.695 146.657C122.925 147.007 126.639 143.861 126.989 139.631Z" fill="#3F58B6"/>
<path d="M119.325 143.635L160.902 133.504V78.9847C160.902 77.2833 159.308 76.0315 157.655 76.4343L119.325 85.7739V143.635Z" fill="#3F58B6"/>
<path d="M119.325 143.635L77.7485 133.504V78.9847C77.7485 77.2833 79.342 76.0315 80.995 76.4343L119.325 85.7739V143.635Z" fill="#3F58B6"/>
<path d="M158.301 77.4889C158.301 77.0831 158.129 76.727 157.86 76.4765L157.86 76.4764L157.86 76.4762C157.784 76.4052 157.7 76.3432 157.61 76.2907L155.178 74.4863L154.461 76.6588L121.927 84.5863V85.7241C121.58 85.9759 121.239 86.2377 120.914 86.52L119.326 88.7649L117.738 86.52C117.412 86.2377 117.072 85.9759 116.724 85.7241V84.5863L84.1903 76.6588L83.4734 74.4863L81.0418 76.2907C80.9518 76.3431 80.8679 76.4051 80.7918 76.4762L80.7914 76.4764V76.4765C80.5229 76.7269 80.3506 77.0831 80.3506 77.4889V131.459L82.952 132.093L109.512 138.565C113.14 139.449 116.505 141.187 119.326 143.634C122.147 141.187 125.511 139.449 129.14 138.565L155.7 132.093L158.301 131.459V77.4889Z" fill="#A6C3EA"/>
<path d="M153.984 74.2237L130.163 80.0279C125.949 81.0548 122.264 83.6033 119.815 87.1835C119.496 87.6499 119.325 88.2018 119.325 88.7669C119.325 88.2018 119.155 87.6499 118.836 87.1835C116.387 83.6033 112.702 81.0549 108.487 80.0279L84.667 74.2237C83.7936 74.0109 82.9517 74.6723 82.9517 75.5713V129.542L107.645 135.559C112.402 136.718 116.562 139.594 119.326 143.635C122.089 139.594 126.25 136.718 131.006 135.559L155.7 129.542V75.5713C155.699 74.6724 154.857 74.0109 153.984 74.2237Z" fill="#FCFCFC"/>
<path d="M150.801 82.7306L126.104 88.7363L126.173 89.0172L150.869 83.0115L150.801 82.7306Z" fill="#5D84D4"/>
<path d="M150.8 86.3703L126.104 92.376L126.172 92.6569L150.869 86.6512L150.8 86.3703Z" fill="#5D84D4"/>
<path d="M150.8 90.0041L126.104 96.0098L126.172 96.2907L150.869 90.2849L150.8 90.0041Z" fill="#5D84D4"/>
<path d="M150.801 93.6437L126.104 99.6494L126.173 99.9303L150.869 93.9246L150.801 93.6437Z" fill="#5D84D4"/>
<path d="M150.8 97.2794L126.104 103.285L126.172 103.566L150.869 97.5603L150.8 97.2794Z" fill="#5D84D4"/>
<path d="M150.8 100.917L126.104 106.923L126.172 107.204L150.869 101.198L150.8 100.917Z" fill="#5D84D4"/>
<path d="M150.801 104.553L126.104 110.559L126.173 110.839L150.869 104.834L150.801 104.553Z" fill="#5D84D4"/>
<path d="M150.801 108.192L126.105 114.197L126.173 114.478L150.87 108.472L150.801 108.192Z" fill="#5D84D4"/>
<path d="M150.801 111.827L126.105 117.833L126.173 118.114L150.87 112.108L150.801 111.827Z" fill="#5D84D4"/>
<path d="M150.801 115.465L126.104 121.471L126.173 121.752L150.869 115.746L150.801 115.465Z" fill="#5D84D4"/>
<path d="M150.801 119.103L126.104 125.108L126.173 125.389L150.869 119.384L150.801 119.103Z" fill="#5D84D4"/>
<path d="M150.801 122.736L126.104 128.742L126.173 129.023L150.869 123.017L150.801 122.736Z" fill="#5D84D4"/>
<path d="M87.8526 82.7172L87.7842 82.998L112.478 89.0139L112.546 88.7331L87.8526 82.7172Z" fill="#5D84D4"/>
<path d="M87.8521 86.352L87.7837 86.6328L112.477 92.6487L112.546 92.3678L87.8521 86.352Z" fill="#5D84D4"/>
<path d="M87.8521 89.9916L87.7837 90.2725L112.477 96.2883L112.546 96.0075L87.8521 89.9916Z" fill="#5D84D4"/>
<path d="M87.8531 93.6283L87.7847 93.9092L112.478 99.9251L112.547 99.6442L87.8531 93.6283Z" fill="#5D84D4"/>
<path d="M87.8526 97.2641L87.7842 97.5449L112.478 103.561L112.546 103.28L87.8526 97.2641Z" fill="#5D84D4"/>
<path d="M87.8526 100.899L87.7842 101.18L112.478 107.196L112.546 106.915L87.8526 100.899Z" fill="#5D84D4"/>
<path d="M87.8526 104.538L87.7842 104.819L112.478 110.835L112.546 110.554L87.8526 104.538Z" fill="#5D84D4"/>
<path d="M87.8531 108.175L87.7847 108.456L112.478 114.472L112.547 114.191L87.8531 108.175Z" fill="#5D84D4"/>
<path d="M87.8531 111.812L87.7847 112.093L112.478 118.109L112.547 117.828L87.8531 111.812Z" fill="#5D84D4"/>
<path d="M87.8526 115.448L87.7842 115.729L112.478 121.744L112.546 121.464L87.8526 115.448Z" fill="#5D84D4"/>
<path d="M87.8536 119.084L87.7852 119.365L112.479 125.381L112.547 125.1L87.8536 119.084Z" fill="#5D84D4"/>
<path d="M87.8526 122.719L87.7842 123L112.478 129.016L112.546 128.735L87.8526 122.719Z" fill="#5D84D4"/>
<path d="M119.514 88.7686H119.138V143.367H119.514V88.7686Z" fill="#5D84D4"/>
<path d="M72.9668 172.182H35.3091C32.7399 172.182 30.6572 169.268 30.6572 165.674C30.6572 162.08 32.7399 159.167 35.3091 159.167H72.9668V172.182Z" fill="#3F58B6"/>
<path d="M87.9228 171.793H50.2651C47.696 171.793 45.6133 169.052 45.6133 165.671C45.6133 162.29 47.696 159.55 50.2651 159.55H87.9228C85.7185 163.115 85.7185 168.227 87.9228 171.793Z" fill="#FCFCFC"/>
<path d="M87.9236 171.417C82.9963 171.417 78.0691 171.417 73.1418 171.417C66.2251 171.417 59.3085 171.417 52.3918 171.417C51.7337 171.417 51.0741 171.43 50.416 171.417C48.3705 171.376 46.9475 169.822 46.3474 167.956C45.4899 165.291 46.1808 161.191 49.1656 160.128C49.8188 159.896 50.4902 159.934 51.1689 159.934C57.523 159.934 63.8772 159.934 70.2314 159.934C76.0211 159.934 81.8204 160.033 87.6095 159.934C87.7141 159.932 87.8189 159.934 87.9235 159.934C88.4128 159.934 88.4136 159.174 87.9235 159.174C82.7167 159.174 77.5099 159.174 72.3031 159.174C65.3977 159.174 58.4923 159.174 51.5868 159.174C51.1474 159.174 50.7058 159.161 50.2664 159.174C47.7426 159.248 46.0226 161.414 45.4657 163.721C44.5833 167.376 46.3778 172.165 50.6405 172.177C56.8234 172.195 63.0065 172.177 69.1894 172.177C75.3205 172.177 81.4592 172.268 87.5897 172.177C87.7009 172.175 87.8123 172.177 87.9235 172.177C88.4129 172.177 88.4137 171.417 87.9236 171.417Z" fill="#5D84D4"/>
<path d="M86.9403 161.489C82.2821 161.489 77.6239 161.489 72.9656 161.489C67.7816 161.489 62.5976 161.489 57.4135 161.489C55.2391 161.489 53.0647 161.489 50.8902 161.489C50.7067 161.489 50.7064 161.774 50.8902 161.774C56.0455 161.774 61.2006 161.774 66.3558 161.774C70.4191 161.774 74.4825 161.774 78.5457 161.774C81.3439 161.774 84.1419 161.774 86.9401 161.774C87.1239 161.774 87.1241 161.489 86.9403 161.489Z" fill="#5D84D4"/>
<path d="M86.4306 163.52C81.9182 163.52 77.406 163.52 72.8936 163.52C67.3774 163.52 61.8612 163.52 56.3451 163.52C54.1757 163.52 52.0063 163.52 49.837 163.52C49.6535 163.52 49.6531 163.805 49.837 163.805C55.0256 163.805 60.2142 163.805 65.4029 163.805C69.516 163.805 73.6291 163.805 77.7422 163.805C80.6384 163.805 83.5345 163.805 86.4307 163.805C86.6142 163.805 86.6145 163.52 86.4306 163.52Z" fill="#5D84D4"/>
<path d="M86.2714 165.547C81.7663 165.547 77.2611 165.547 72.7559 165.547C66.9463 165.547 61.1368 165.547 55.3272 165.547C53.1677 165.547 51.0082 165.547 48.8487 165.547C48.6652 165.547 48.6649 165.832 48.8487 165.832C54.1127 165.832 59.3766 165.832 64.6406 165.832C68.8565 165.832 73.0723 165.832 77.2883 165.832C80.2827 165.832 83.277 165.832 86.2714 165.832C86.455 165.832 86.4553 165.547 86.2714 165.547Z" fill="#5D84D4"/>
<path d="M86.4353 167.575C81.9217 167.575 77.4081 167.575 72.8945 167.575C67.3783 167.575 61.8621 167.575 56.3461 167.575C54.1766 167.575 52.0072 167.575 49.8379 167.575C49.6545 167.575 49.6541 167.86 49.8379 167.86C55.0266 167.86 60.2152 167.86 65.4039 167.86C69.5174 167.86 73.631 167.86 77.7445 167.86C80.6415 167.86 83.5385 167.86 86.4355 167.86C86.6189 167.86 86.6192 167.575 86.4353 167.575Z" fill="#5D84D4"/>
<path d="M86.9522 169.603C82.2902 169.603 77.6281 169.603 72.9661 169.603C67.7821 169.603 62.5981 169.603 57.414 169.603C55.2396 169.603 53.0651 169.603 50.8907 169.603C50.7072 169.603 50.7069 169.888 50.8907 169.888C56.046 169.888 61.2011 169.888 66.3563 169.888C70.4211 169.888 74.486 169.888 78.5508 169.888C81.3512 169.888 84.1517 169.888 86.9521 169.888C87.1357 169.888 87.136 169.603 86.9522 169.603Z" fill="#5D84D4"/>
<path d="M32.2676 133.389C32.2676 135.392 32.8486 137.205 33.7852 138.517C34.7246 139.83 36.0225 140.642 37.4533 140.642H79.4191V126.137H37.4532C34.5887 126.137 32.2676 129.383 32.2676 133.389Z" fill="#3F58B6"/>
<path d="M38.1249 129.943C38.5803 127.718 40.5667 126.137 42.8384 126.137H47.4538C45.52 126.573 43.563 129.429 43.563 133.389C43.563 137.358 45.5287 140.217 47.4682 140.642H42.8386C40.5674 140.642 38.5813 139.062 38.1253 136.837C37.9009 135.742 37.7817 134.587 37.7817 133.389C37.7818 132.192 37.901 131.037 38.1249 129.943Z" fill="#E1EAF8"/>
<path d="M96.0863 126.565H54.1197C51.2566 126.565 48.9355 129.62 48.9355 133.387C48.9355 137.155 51.2566 140.209 54.1197 140.209H96.0863C93.6297 136.236 93.6297 130.539 96.0863 126.565Z" fill="#FCFCFC"/>
<path d="M96.0865 126.99C90.5955 126.99 85.1044 126.99 79.6133 126.99C71.9053 126.99 64.1972 126.99 56.4892 126.99C55.7558 126.99 55.0206 126.976 54.2872 126.99C52.0076 127.036 50.4218 128.767 49.753 130.847C48.7975 133.817 49.5673 138.386 52.8937 139.57C53.6216 139.829 54.37 139.787 55.1263 139.787C62.2075 139.787 69.2887 139.787 76.3699 139.787C82.8222 139.787 89.2851 139.676 95.7365 139.787C95.8531 139.789 95.9699 139.787 96.0865 139.787C96.6318 139.787 96.6327 140.634 96.0865 140.634C90.2839 140.634 84.4813 140.634 78.6787 140.634C70.9831 140.634 63.2876 140.634 55.592 140.634C55.1023 140.634 54.6101 140.649 54.1206 140.634C51.308 140.551 49.3911 138.138 48.7705 135.567C47.7872 131.493 49.7869 126.156 54.5374 126.143C61.4277 126.123 68.3185 126.143 75.2089 126.143C82.0414 126.143 88.8826 126.041 95.7145 126.143C95.8384 126.145 95.9626 126.143 96.0865 126.143C96.6318 126.143 96.6327 126.99 96.0865 126.99Z" fill="#3F58B6"/>
<path d="M95.012 138.067C89.8208 138.067 84.6295 138.067 79.4383 138.067C73.6611 138.067 67.884 138.067 62.1068 138.067C59.6836 138.067 57.2603 138.067 54.8371 138.067C54.6326 138.067 54.6322 137.749 54.8371 137.749C60.5822 137.749 66.3272 137.749 72.0724 137.749C76.6007 137.749 81.1289 137.749 85.6572 137.749C88.7755 137.749 91.8937 137.749 95.0121 137.749C95.2165 137.749 95.2168 138.067 95.012 138.067Z" fill="#5D84D4"/>
<path d="M94.4437 135.805C89.415 135.805 84.3865 135.805 79.3578 135.805C73.2104 135.805 67.063 135.805 60.9156 135.805C58.498 135.805 56.0804 135.805 53.6628 135.805C53.4583 135.805 53.458 135.487 53.6628 135.487C59.4452 135.487 65.2275 135.487 71.0098 135.487C75.5935 135.487 80.1772 135.487 84.761 135.487C87.9886 135.487 91.216 135.487 94.4436 135.487C94.6482 135.487 94.6486 135.805 94.4437 135.805Z" fill="#5D84D4"/>
<path d="M94.2659 133.546C89.2453 133.546 84.2247 133.546 79.2039 133.546C72.7296 133.546 66.2553 133.546 59.781 133.546C57.3744 133.546 54.9678 133.546 52.5612 133.546C52.3567 133.546 52.3564 133.229 52.5612 133.229C58.4275 133.229 64.2937 133.229 70.16 133.229C74.8584 133.229 79.5566 133.229 84.255 133.229C87.592 133.229 90.9289 133.229 94.2659 133.229C94.4704 133.229 94.4707 133.546 94.2659 133.546Z" fill="#5D84D4"/>
<path d="M94.448 131.285C89.4179 131.285 84.3878 131.285 79.3578 131.285C73.2104 131.285 67.063 131.285 60.9156 131.285C58.498 131.285 56.0804 131.285 53.6628 131.285C53.4583 131.285 53.458 130.967 53.6628 130.967C59.4452 130.967 65.2275 130.967 71.0098 130.967C75.594 130.967 80.1782 130.967 84.7625 130.967C87.991 130.967 91.2194 130.967 94.4479 130.967C94.6525 130.967 94.6528 131.285 94.448 131.285Z" fill="#5D84D4"/>
<path d="M95.0243 129.023C89.8287 129.023 84.6333 129.023 79.4378 129.023C73.6606 129.023 67.8835 129.023 62.1063 129.023C59.6831 129.023 57.2598 129.023 54.8366 129.023C54.6321 129.023 54.6317 128.705 54.8366 128.705C60.5817 128.705 66.3267 128.705 72.0719 128.705C76.6019 128.705 81.1318 128.705 85.6618 128.705C88.7827 128.705 91.9035 128.705 95.0244 128.705C95.2288 128.705 95.2292 129.023 95.0243 129.023Z" fill="#5D84D4"/>
<path d="M73.8466 140.635H31.88C29.0168 140.635 26.6958 144.829 26.6958 150.004C26.6958 155.178 29.0168 159.373 31.88 159.373H73.8466V140.635Z" fill="#5D84D4"/>
<path d="M90.5135 141.064H48.5469C45.6838 141.064 43.3628 145.067 43.3628 150.005C43.3628 154.943 45.6838 158.946 48.5469 158.946H90.5135C88.0569 153.738 88.0569 146.272 90.5135 141.064Z" fill="#FCFCFC"/>
<path d="M90.5144 141.491C84.8506 141.491 79.1868 141.491 73.523 141.491C65.8068 141.491 58.0906 141.491 50.3745 141.491C49.7791 141.491 49.178 141.467 48.5829 141.491C45.8135 141.603 44.5182 144.898 44.0566 147.198C43.2917 151.009 43.9968 158.525 49.172 158.525C56.1696 158.525 63.1672 158.525 70.1648 158.525C76.8284 158.525 83.5016 158.418 90.1645 158.525C90.2811 158.526 90.3979 158.525 90.5144 158.525C91.0597 158.525 91.0606 159.372 90.5144 159.372C84.5029 159.372 78.4913 159.372 72.4798 159.372C64.8498 159.372 57.2197 159.372 49.5897 159.372C48.897 159.372 48.1855 159.42 47.5147 159.215C44.8085 158.388 43.5613 155.068 43.1492 152.552C42.5084 148.641 43.3712 140.75 48.7309 140.643C55.4826 140.51 62.2503 140.643 69.0031 140.643C76.0402 140.643 83.0837 140.555 90.1203 140.643C90.2516 140.645 90.3831 140.643 90.5144 140.643C91.0597 140.644 91.0606 141.491 90.5144 141.491Z" fill="#5D84D4"/>
<path d="M88.6975 151.267C83.7103 151.267 78.7231 151.267 73.736 151.267C67.5574 151.267 61.3788 151.267 55.2002 151.267C52.7977 151.267 50.3954 151.267 47.9929 151.267C47.7884 151.267 47.788 150.949 47.9929 150.949C53.7513 150.949 59.5096 150.949 65.2681 150.949C69.843 150.949 74.4178 150.949 78.9927 150.949C82.2277 150.949 85.4626 150.949 88.6975 150.949C88.902 150.949 88.9023 151.267 88.6975 151.267Z" fill="#5D84D4"/>
<path d="M89.3498 155.787C84.1866 155.787 79.0235 155.787 73.8603 155.787C68.3749 155.787 62.8895 155.787 57.4041 155.787C55.024 155.787 52.644 155.787 50.2638 155.787C50.0593 155.787 50.059 155.469 50.2638 155.469C55.8742 155.469 61.4845 155.469 67.0948 155.469C71.5079 155.469 75.9209 155.469 80.3339 155.469C83.3392 155.469 86.3445 155.469 89.3498 155.469C89.5543 155.469 89.5547 155.787 89.3498 155.787Z" fill="#5D84D4"/>
<path d="M88.9047 153.532C83.8749 153.532 78.8451 153.532 73.8154 153.532C67.9564 153.532 62.0973 153.532 56.2383 153.532C53.8555 153.532 51.4728 153.532 49.09 153.532C48.8855 153.532 48.8852 153.214 49.09 153.214C54.7637 153.214 60.4373 153.214 66.111 153.214C70.5716 153.214 75.0323 153.214 79.493 153.214C82.6303 153.214 85.7676 153.214 88.9049 153.214C89.1092 153.214 89.1096 153.532 88.9047 153.532Z" fill="#5D84D4"/>
<path d="M88.7018 149.008C83.7131 149.008 78.7246 149.008 73.736 149.008C67.5574 149.008 61.3788 149.008 55.2002 149.008C52.7977 149.008 50.3954 149.008 47.9929 149.008C47.7884 149.008 47.788 148.69 47.9929 148.69C53.7513 148.69 59.5096 148.69 65.2681 148.69C69.8435 148.69 74.4188 148.69 78.9942 148.69C82.2301 148.69 85.4659 148.69 88.7018 148.69C88.9062 148.69 88.9065 149.008 88.7018 149.008Z" fill="#5D84D4"/>
<path d="M88.9143 146.75C83.8816 146.75 78.849 146.75 73.8164 146.75C67.9574 146.75 62.0983 146.75 56.2392 146.75C53.8565 146.75 51.4737 146.75 49.091 146.75C48.8865 146.75 48.8862 146.433 49.091 146.433C54.7646 146.433 60.4383 146.433 66.112 146.433C70.5737 146.433 75.0354 146.433 79.4971 146.433C82.6362 146.433 85.7752 146.433 88.9143 146.433C89.1187 146.433 89.1191 146.75 88.9143 146.75Z" fill="#5D84D4"/>
<path d="M89.362 144.485C84.1946 144.485 79.0272 144.485 73.8598 144.485C68.3744 144.485 62.889 144.485 57.4037 144.485C55.0235 144.485 52.6435 144.485 50.2633 144.485C50.0589 144.485 50.0586 144.167 50.2633 144.167C55.8737 144.167 61.484 144.167 67.0943 144.167C71.5092 144.167 75.9239 144.167 80.3387 144.167C83.3465 144.167 86.3542 144.167 89.362 144.167C89.5665 144.167 89.5668 144.485 89.362 144.485Z" fill="#5D84D4"/>
<path d="M44.521 126.164H86.4876C89.3507 126.164 91.6718 122.917 91.6718 118.912C91.6718 114.907 89.3507 111.66 86.4876 111.66H44.521V126.164Z" fill="#4F6FC9"/>
<path d="M27.8535 125.736H69.8201C72.6832 125.736 75.0043 122.681 75.0043 118.914C75.0043 115.146 72.6832 112.092 69.8201 112.092H27.8535C30.3101 116.065 30.3101 121.762 27.8535 125.736Z" fill="#FCFCFC"/>
<path d="M27.8536 125.31C33.3447 125.31 38.8358 125.31 44.3268 125.31C52.0349 125.31 59.7429 125.31 67.451 125.31C68.1844 125.31 68.9196 125.325 69.6529 125.31C71.9326 125.265 73.5183 123.533 74.1872 121.454C75.1426 118.484 74.3728 113.915 71.0465 112.731C70.3185 112.471 69.5702 112.514 68.8138 112.514C61.7326 112.514 54.6514 112.514 47.5702 112.514C41.118 112.514 34.6551 112.624 28.2036 112.514C28.087 112.512 27.9702 112.514 27.8536 112.514C27.3084 112.514 27.3074 111.667 27.8536 111.667C33.6563 111.667 39.4588 111.667 45.2615 111.667C52.957 111.667 60.6526 111.667 68.3482 111.667C68.8379 111.667 69.33 111.652 69.8196 111.667C72.6322 111.75 74.549 114.163 75.1696 116.734C76.153 120.807 74.1532 126.144 69.4027 126.158C62.5124 126.178 55.6217 126.158 48.7313 126.158C41.8988 126.158 35.0576 126.26 28.2257 126.158C28.1017 126.156 27.9776 126.158 27.8536 126.158C27.3084 126.158 27.3074 125.31 27.8536 125.31Z" fill="#7CA3DE"/>
<path d="M28.9479 114.254C34.1391 114.254 39.3304 114.254 44.5216 114.254C50.2988 114.254 56.0759 114.254 61.8531 114.254C64.2763 114.254 66.6996 114.254 69.1229 114.254C69.3274 114.254 69.3277 114.572 69.1229 114.572C63.3778 114.572 57.6327 114.572 51.8876 114.572C47.3593 114.572 42.8311 114.572 38.3028 114.572C35.1845 114.572 32.0663 114.572 28.9479 114.572C28.7434 114.572 28.7431 114.254 28.9479 114.254Z" fill="#5D84D4"/>
<path d="M29.5163 116.514C34.545 116.514 39.5737 116.514 44.6023 116.514C50.7497 116.514 56.897 116.514 63.0443 116.514C65.4619 116.514 67.8795 116.514 70.2972 116.514C70.5017 116.514 70.502 116.831 70.2972 116.831C64.5148 116.831 58.7325 116.831 52.9502 116.831C48.3664 116.831 43.7827 116.831 39.199 116.831C35.9714 116.831 32.7439 116.831 29.5163 116.831C29.3118 116.832 29.3114 116.514 29.5163 116.514Z" fill="#5D84D4"/>
<path d="M29.6935 118.776C34.7142 118.776 39.7348 118.776 44.7555 118.776C51.2298 118.776 57.7041 118.776 64.1784 118.776C66.585 118.776 68.9916 118.776 71.3983 118.776C71.6027 118.776 71.6031 119.094 71.3983 119.094C65.532 119.094 59.6657 119.094 53.7994 119.094C49.1012 119.094 44.4028 119.094 39.7045 119.094C36.3675 119.094 33.0305 119.094 29.6935 119.094C29.489 119.094 29.4887 118.776 29.6935 118.776Z" fill="#5D84D4"/>
<path d="M29.5119 121.031C34.542 121.031 39.5721 121.031 44.6022 121.031C50.7495 121.031 56.8969 121.031 63.0442 121.031C65.4618 121.031 67.8794 121.031 70.2971 121.031C70.5016 121.031 70.5019 121.349 70.2971 121.349C64.5147 121.349 58.7324 121.349 52.9501 121.349C48.3658 121.349 43.7816 121.349 39.1973 121.349C35.9688 121.349 32.7405 121.349 29.512 121.349C29.3074 121.349 29.3071 121.031 29.5119 121.031Z" fill="#5D84D4"/>
<path d="M28.9352 123.296C34.1308 123.296 39.3262 123.296 44.5217 123.296C50.2989 123.296 56.076 123.296 61.8532 123.296C64.2764 123.296 66.6997 123.296 69.123 123.296C69.3275 123.296 69.3278 123.614 69.123 123.614C63.3779 123.614 57.6328 123.614 51.8877 123.614C47.3578 123.614 42.8278 123.614 38.2979 123.614C35.1771 123.614 32.0562 123.614 28.9353 123.614C28.7308 123.614 28.7304 123.296 28.9352 123.296Z" fill="#5D84D4"/>
<path d="M85.1208 113.117H80.9563C82.2164 114.44 83.0353 116.541 83.0353 118.915C83.0353 121.289 82.2163 123.389 80.9561 124.712H85.1209C87.1426 124.712 88.8506 122.057 88.8506 118.915C88.8504 115.772 87.1424 113.117 85.1208 113.117Z" fill="#E1EAF8"/>
</svg>
