<svg viewBox="0 0 24 24" fill="none" xmlns="http://www.w3.org/2000/svg">
    <path fill-rule="evenodd" clip-rule="evenodd" d="M4.47961 1.6001H4.39961C4.03321 1.6001 3.71801 1.6001 3.43961 1.6657C3.00863 1.76868 2.61457 1.98897 2.3011 2.30216C1.98763 2.61535 1.76698 3.00921 1.66361 3.4401C1.59961 3.7185 1.59961 4.0321 1.59961 4.4001V8.4001C1.59961 8.7665 1.59961 9.0817 1.66521 9.3601C1.76819 9.79108 1.98848 10.1851 2.30167 10.4986C2.61486 10.8121 3.00872 11.0327 3.43961 11.1361C3.71801 11.2001 4.03161 11.2001 4.39961 11.2001H8.39961C8.76601 11.2001 9.08121 11.2001 9.35961 11.1345C9.79059 11.0315 10.1846 10.8112 10.4981 10.498C10.8116 10.1848 11.0322 9.79099 11.1356 9.3601C11.1996 9.0817 11.1996 8.7681 11.1996 8.4001V4.4001C11.1996 4.0337 11.1996 3.7185 11.134 3.4401C11.031 3.00912 10.8107 2.61506 10.4975 2.30159C10.1844 1.98812 9.7905 1.76747 9.35961 1.6641C9.08121 1.6001 8.76761 1.6001 8.39961 1.6001H4.47961ZM3.81241 3.2225C3.88121 3.2065 3.98841 3.2001 4.47961 3.2001H8.31961C8.81241 3.2001 8.91801 3.2049 8.98681 3.2225C9.13054 3.25687 9.26194 3.33038 9.36643 3.43487C9.47093 3.53937 9.54444 3.67077 9.57881 3.8145C9.59481 3.8817 9.59961 3.9873 9.59961 4.4801V8.3201C9.59961 8.8129 9.59481 8.9185 9.57721 8.9873C9.54284 9.13103 9.46933 9.26242 9.36483 9.36692C9.26034 9.47142 9.12894 9.54493 8.98521 9.5793C8.91961 9.5937 8.81401 9.6001 8.31961 9.6001H4.47961C3.98681 9.6001 3.88121 9.5953 3.81241 9.5777C3.66868 9.54333 3.53728 9.46982 3.43279 9.36532C3.32829 9.26082 3.25478 9.12943 3.22041 8.9857C3.20601 8.9201 3.19961 8.8145 3.19961 8.3201V4.4801C3.19961 3.9873 3.20441 3.8817 3.22201 3.8129C3.25638 3.66917 3.32989 3.53777 3.43439 3.43327C3.53888 3.32878 3.67028 3.25527 3.81401 3.2209M15.6796 1.6001H15.5996C15.2332 1.6001 14.918 1.6001 14.6396 1.6657C14.2086 1.76868 13.8146 1.98897 13.5011 2.30216C13.1876 2.61535 12.967 3.00921 12.8636 3.4401C12.7996 3.7185 12.7996 4.0321 12.7996 4.4001V8.4001C12.7996 8.7665 12.7996 9.0817 12.8652 9.3601C12.9682 9.79108 13.1885 10.1851 13.5017 10.4986C13.8149 10.8121 14.2087 11.0327 14.6396 11.1361C14.918 11.2001 15.2316 11.2001 15.5996 11.2001H19.5996C19.966 11.2001 20.2812 11.2001 20.5596 11.1345C20.9906 11.0315 21.3846 10.8112 21.6981 10.498C22.0116 10.1848 22.2322 9.79099 22.3356 9.3601C22.3996 9.0817 22.3996 8.7681 22.3996 8.4001V4.4001C22.3996 4.0337 22.3996 3.7185 22.334 3.4401C22.231 3.00912 22.0107 2.61506 21.6975 2.30159C21.3844 1.98812 20.9905 1.76747 20.5596 1.6641C20.2812 1.6001 19.9676 1.6001 19.5996 1.6001H15.6796ZM15.0124 3.2225C15.0812 3.2065 15.1884 3.2001 15.6796 3.2001H19.5196C20.0124 3.2001 20.118 3.2049 20.1868 3.2225C20.3305 3.25687 20.4619 3.33038 20.5664 3.43487C20.6709 3.53937 20.7444 3.67077 20.7788 3.8145C20.7948 3.8817 20.7996 3.9873 20.7996 4.4801V8.3201C20.7996 8.8129 20.7932 8.9185 20.7772 8.9873C20.7428 9.13103 20.6693 9.26242 20.5648 9.36692C20.4603 9.47142 20.3289 9.54493 20.1852 9.5793C20.118 9.5953 20.0124 9.6001 19.5196 9.6001H15.6796C15.1868 9.6001 15.0812 9.5953 15.0124 9.5777C14.8687 9.54333 14.7373 9.46982 14.6328 9.36532C14.5283 9.26082 14.4548 9.12943 14.4204 8.9857C14.406 8.9201 14.3996 8.8145 14.3996 8.3201V4.4801C14.3996 3.9873 14.4044 3.8817 14.422 3.8129C14.4564 3.66917 14.5299 3.53777 14.6344 3.43327C14.7389 3.32878 14.8703 3.25527 15.014 3.2209M4.39961 12.8001H8.39961C8.76601 12.8001 9.08121 12.8001 9.35961 12.8657C9.79059 12.9687 10.1846 13.189 10.4981 13.5022C10.8116 13.8153 11.0322 14.2092 11.1356 14.6401C11.1996 14.9185 11.1996 15.2321 11.1996 15.6001V19.6001C11.1996 19.9665 11.1996 20.2817 11.134 20.5601C11.031 20.9911 10.8107 21.3851 10.4975 21.6986C10.1844 22.0121 9.7905 22.2327 9.35961 22.3361C9.08121 22.4001 8.76761 22.4001 8.39961 22.4001H4.39961C4.03321 22.4001 3.71801 22.4001 3.43961 22.3345C3.00863 22.2315 2.61457 22.0112 2.3011 21.698C1.98763 21.3848 1.76698 20.991 1.66361 20.5601C1.59961 20.2817 1.59961 19.9681 1.59961 19.6001V15.6001C1.59961 15.2337 1.59961 14.9185 1.66521 14.6401C1.76819 14.2091 1.98848 13.8151 2.30167 13.5016C2.61486 13.1881 3.00872 12.9675 3.43961 12.8641C3.71801 12.8001 4.03161 12.8001 4.39961 12.8001ZM4.47961 14.4001C3.98681 14.4001 3.88121 14.4049 3.81241 14.4225C3.66868 14.4569 3.53728 14.5304 3.43279 14.6349C3.32829 14.7394 3.25478 14.8708 3.22041 15.0145C3.20601 15.0801 3.19961 15.1857 3.19961 15.6801V19.5201C3.19961 20.0129 3.20441 20.1185 3.22201 20.1873C3.25638 20.331 3.32989 20.4624 3.43439 20.5669C3.53888 20.6714 3.67028 20.7449 3.81401 20.7793C3.88121 20.7953 3.98681 20.8001 4.47961 20.8001H8.31961C8.81241 20.8001 8.91801 20.7937 8.98681 20.7777C9.13054 20.7433 9.26194 20.6698 9.36643 20.5653C9.47093 20.4608 9.54444 20.3294 9.57881 20.1857C9.59481 20.1185 9.59961 20.0129 9.59961 19.5201V15.6801C9.59961 15.1873 9.59481 15.0817 9.57721 15.0129C9.54284 14.8692 9.46933 14.7378 9.36483 14.6333C9.26034 14.5288 9.12894 14.4553 8.98521 14.4209C8.91961 14.4065 8.81401 14.4001 8.31961 14.4001H4.47961ZM15.6796 12.8001H15.5996C15.2332 12.8001 14.918 12.8001 14.6396 12.8657C14.2086 12.9687 13.8146 13.189 13.5011 13.5022C13.1876 13.8153 12.967 14.2092 12.8636 14.6401C12.7996 14.9185 12.7996 15.2321 12.7996 15.6001V19.6001C12.7996 19.9665 12.7996 20.2817 12.8652 20.5601C12.9682 20.9911 13.1885 21.3851 13.5017 21.6986C13.8149 22.0121 14.2087 22.2327 14.6396 22.3361C14.918 22.4017 15.2332 22.4017 15.5996 22.4017H19.5996C19.966 22.4017 20.2812 22.4017 20.5596 22.3361C20.9903 22.2329 21.384 22.0124 21.6972 21.6993C22.0104 21.3861 22.2308 20.9924 22.334 20.5617C22.3996 20.2833 22.3996 19.9681 22.3996 19.6017V15.6017C22.3996 15.2353 22.3996 14.9201 22.334 14.6417C22.2313 14.2104 22.0111 13.816 21.6979 13.5023C21.3847 13.1885 20.9907 12.9676 20.5596 12.8641C20.2812 12.8001 19.9676 12.8001 19.5996 12.8001H15.6796ZM15.0124 14.4225C15.0812 14.4065 15.1884 14.4001 15.6796 14.4001H19.5196C20.0124 14.4001 20.118 14.4049 20.1868 14.4225C20.3305 14.4569 20.4619 14.5304 20.5664 14.6349C20.6709 14.7394 20.7444 14.8708 20.7788 15.0145C20.7948 15.0817 20.7996 15.1873 20.7996 15.6801V19.5201C20.7996 20.0129 20.7932 20.1185 20.7772 20.1873C20.7428 20.331 20.6693 20.4624 20.5648 20.5669C20.4603 20.6714 20.3289 20.7449 20.1852 20.7793C20.118 20.7953 20.0124 20.8001 19.5196 20.8001H15.6796C15.1868 20.8001 15.0812 20.7937 15.0124 20.7777C14.8687 20.7433 14.7373 20.6698 14.6328 20.5653C14.5283 20.4608 14.4548 20.3294 14.4204 20.1857C14.406 20.1201 14.3996 20.0145 14.3996 19.5201V15.6801C14.3996 15.1873 14.4044 15.0817 14.422 15.0129C14.4564 14.8692 14.5299 14.7378 14.6344 14.6333C14.7389 14.5288 14.8703 14.4553 15.014 14.4209" fill="currentColor"/>
</svg>
