<svg width="24" height="24" viewBox="0 0 24 24" fill="none" xmlns="http://www.w3.org/2000/svg">
  <rect width="24" height="24" fill="none"/>
  <path d="M14.625 7.125H14.6325V7.1325H14.625V7.125Z" stroke="currentColor" stroke-linecap="round" stroke-linejoin="round"/>
  <path d="M15 7.125C15 7.22446 14.9605 7.31984 14.8902 7.39017C14.8198 7.46049 14.7245 7.5 14.625 7.5C14.5255 7.5 14.4302 7.46049 14.3598 7.39017C14.2895 7.31984 14.25 7.22446 14.25 7.125C14.25 7.02554 14.2895 6.93016 14.3598 6.85983C14.4302 6.78951 14.5255 6.75 14.625 6.75C14.7245 6.75 14.8198 6.78951 14.8902 6.85983C14.9605 6.93016 15 7.02554 15 7.125ZM14.625 11.9925H14.6325V12H14.625V11.9925Z" stroke="black" stroke-linecap="round" stroke-linejoin="round"/>
  <path d="M15 11.9927C15 12.0921 14.9605 12.1875 14.8902 12.2578C14.8198 12.3282 14.7245 12.3677 14.625 12.3677C14.5255 12.3677 14.4302 12.3282 14.3598 12.2578C14.2895 12.1875 14.25 12.0921 14.25 11.9927C14.25 11.8932 14.2895 11.7978 14.3598 11.7275C14.4302 11.6572 14.5255 11.6177 14.625 11.6177C14.7245 11.6177 14.8198 11.6572 14.8902 11.7275C14.9605 11.7978 15 11.8932 15 11.9927ZM14.625 16.8752H14.6325V16.8827H14.625V16.8752Z" stroke="black" stroke-linecap="round" stroke-linejoin="round"/>
  <path d="M15 16.875C15 16.9745 14.9605 17.0698 14.8902 17.1402C14.8198 17.2105 14.7245 17.25 14.625 17.25C14.5255 17.25 14.4302 17.2105 14.3598 17.1402C14.2895 17.0698 14.25 16.9745 14.25 16.875C14.25 16.7755 14.2895 16.6802 14.3598 16.6098C14.4302 16.5395 14.5255 16.5 14.625 16.5C14.7245 16.5 14.8198 16.5395 14.8902 16.6098C14.9605 16.6802 15 16.7755 15 16.875ZM9.375 7.125H9.3825V7.1325H9.375V7.125Z" stroke="black" stroke-linecap="round" stroke-linejoin="round"/>
  <path d="M9.75 7.125C9.75 7.22446 9.71049 7.31984 9.64017 7.39017C9.56984 7.46049 9.47446 7.5 9.375 7.5C9.27554 7.5 9.18016 7.46049 9.10983 7.39017C9.03951 7.31984 9 7.22446 9 7.125C9 7.02554 9.03951 6.93016 9.10983 6.85983C9.18016 6.78951 9.27554 6.75 9.375 6.75C9.47446 6.75 9.56984 6.78951 9.64017 6.85983C9.71049 6.93016 9.75 7.02554 9.75 7.125ZM9.375 11.9925H9.3825V12H9.375V11.9925Z" stroke="black" stroke-linecap="round" stroke-linejoin="round"/>
  <path d="M9.75 11.9927C9.75 12.0921 9.71049 12.1875 9.64017 12.2578C9.56984 12.3282 9.47446 12.3677 9.375 12.3677C9.27554 12.3677 9.18016 12.3282 9.10983 12.2578C9.03951 12.1875 9 12.0921 9 11.9927C9 11.8932 9.03951 11.7978 9.10983 11.7275C9.18016 11.6572 9.27554 11.6177 9.375 11.6177C9.47446 11.6177 9.56984 11.6572 9.64017 11.7275C9.71049 11.7978 9.75 11.8932 9.75 11.9927ZM9.375 16.8752H9.3825V16.8827H9.375V16.8752Z" stroke="black" stroke-linecap="round" stroke-linejoin="round"/>
  <path d="M9.75 16.875C9.75 16.9745 9.71049 17.0698 9.64017 17.1402C9.56984 17.2105 9.47446 17.25 9.375 17.25C9.27554 17.25 9.18016 17.2105 9.10983 17.1402C9.03951 17.0698 9 16.9745 9 16.875C9 16.7755 9.03951 16.6802 9.10983 16.6098C9.18016 16.5395 9.27554 16.5 9.375 16.5C9.47446 16.5 9.56984 16.5395 9.64017 16.6098C9.71049 16.6802 9.75 16.7755 9.75 16.875Z" stroke="black" stroke-linecap="round" stroke-linejoin="round"/>
</svg>
