<svg viewBox="0 0 24 24" fill="none" xmlns="http://www.w3.org/2000/svg">
  <path d="M2.35699 7.714L9.33699 12.368C10.3 13.009 10.781 13.33 11.301 13.455C11.761 13.565 12.24 13.565 12.699 13.455C13.219 13.33 13.7 13.009 14.663 12.368L21.643 7.714M7.15699 19.5H16.843C18.523 19.5 19.363 19.5 20.005 19.173C20.5691 18.8852 21.0276 18.4263 21.315 17.862C21.643 17.22 21.643 16.38 21.643 14.7V9.3C21.643 7.62 21.643 6.78 21.316 6.138C21.0284 5.57354 20.5695 5.11462 20.005 4.827C19.363 4.5 18.523 4.5 16.843 4.5H7.15699C5.47699 4.5 4.63699 4.5 3.99499 4.827C3.4309 5.11479 2.97235 5.57369 2.68499 6.138C2.35699 6.78 2.35699 7.62 2.35699 9.3V14.7C2.35699 16.38 2.35699 17.22 2.68399 17.862C2.97161 18.4265 3.43053 18.8854 3.99499 19.173C4.63699 19.5 5.47699 19.5 7.15699 19.5Z" stroke="currentColor" stroke-width="1.5" stroke-linecap="round" stroke-linejoin="round"/>
</svg>
