<svg width="16" height="10" viewBox="0 0 16 10" fill="currenctColor" xmlns="http://www.w3.org/2000/svg">
<path d="M0.754793 4.72024L0.565604 5.0002L0.754793 5.28015C2.36705 7.66594 4.93951 9.23353 8 9.23353C11.0605 9.23353 13.633 7.66594 15.2452 5.28015L15.4344 5.0002L15.2452 4.72024C13.633 2.33445 11.0605 0.766862 8 0.766862C4.93951 0.766862 2.36705 2.33445 0.754793 4.72024ZM0.505067 4.98253L0.505114 4.98245C2.11007 2.4135 4.78739 0.700195 8 0.700195C11.2126 0.700195 13.8899 2.4135 15.4949 4.98245L15.4949 4.98253C15.4982 4.98782 15.5 4.99395 15.5 5.0002C15.5 5.00645 15.4982 5.01257 15.4949 5.01786L15.4949 5.01794C13.8899 7.58689 11.2126 9.3002 8 9.3002C4.78739 9.3002 2.11007 7.58689 0.505114 5.01794L0.505067 5.01786C0.501756 5.01256 0.5 5.00644 0.5 5.0002C0.5 4.99395 0.501755 4.98783 0.505067 4.98253ZM9.15494 6.15514C8.84863 6.46145 8.43319 6.63353 8 6.63353C7.56682 6.63353 7.15137 6.46145 6.84506 6.15514C6.53875 5.84883 6.36667 5.43338 6.36667 5.0002C6.36667 4.56701 6.53875 4.15156 6.84506 3.84525C7.15137 3.53894 7.56682 3.36686 8 3.36686C8.43319 3.36686 8.84863 3.53894 9.15494 3.84525L9.5085 3.4917L9.15494 3.84525C9.46125 4.15156 9.63334 4.56701 9.63334 5.0002C9.63334 5.43338 9.46125 5.84883 9.15494 6.15514Z" stroke="currentColor"/>
</svg>
