<svg viewBox="0 0 16 17" fill="none" xmlns="http://www.w3.org/2000/svg">
  <path d="M13.9085 7.45802C14.4838 10.7213 12.3045 13.8333 9.04183 14.4087C5.7785 14.984 2.6665 12.8053 2.09117 9.54202C1.51583 6.27868 3.6945 3.16668 6.95783 2.59135C10.2212 2.01602 13.3332 4.19468 13.9085 7.45802" stroke="#FCFCFC" stroke-linecap="round" stroke-linejoin="round"/>
  <path d="M4.69629 3.49731L5.66029 4.95731" stroke="#FCFCFC" stroke-linecap="round" stroke-linejoin="round"/>
  <path d="M11.3029 13.5027L10.3389 12.0427" stroke="#FCFCFC" stroke-linecap="round" stroke-linejoin="round"/>
  <path d="M6.84335 10.026C7.01535 10.308 7.31002 10.502 7.66535 10.502H8.39602C8.91268 10.502 9.33202 10.0833 9.33202 9.566C9.33202 9.13667 9.04002 8.762 8.62402 8.658L7.37468 8.34467C6.95802 8.24 6.66602 7.86533 6.66602 7.436C6.66602 6.91933 7.08468 6.5 7.60202 6.5H8.33268C8.68802 6.5 8.98268 6.69467 9.15468 6.976" stroke="#FCFCFC" stroke-linecap="round" stroke-linejoin="round"/>
  <path d="M7.99935 5.83331V6.49998" stroke="#FCFCFC" stroke-linecap="round" stroke-linejoin="round"/>
  <path d="M7.99935 11.1667V10.5" stroke="#FCFCFC" stroke-linecap="round" stroke-linejoin="round"/>
</svg>
