<svg width="16" height="16" viewBox="0 0 16 16" fill="none" xmlns="http://www.w3.org/2000/svg">
    <g clip-path="url(#clip0_828_8055)">
        <path fill-rule="evenodd" clip-rule="evenodd" d="M7.99996 0.935547C6.12633 0.935547 4.32944 1.67984 3.00458 3.0047C1.67972 4.32956 0.935425 6.12645 0.935425 8.00008C0.935425 9.87371 1.67972 11.6706 3.00458 12.9955C4.32944 14.3203 6.12633 15.0646 7.99996 15.0646C9.87359 15.0646 11.6705 14.3203 12.9953 12.9955C14.3202 11.6706 15.0645 9.87371 15.0645 8.00008C15.0645 6.12645 14.3202 4.32956 12.9953 3.0047C11.6705 1.67984 9.87359 0.935547 7.99996 0.935547ZM7.99996 1.94888C6.39508 1.94888 4.85593 2.58642 3.72111 3.72124C2.58629 4.85606 1.94876 6.3952 1.94876 8.00008C1.94876 9.60496 2.58629 11.1441 3.72111 12.2789C4.85593 13.4137 6.39508 14.0513 7.99996 14.0513V1.94888Z" fill="#D4705D"/>
    </g>
    <defs>
        <clipPath id="clip0_828_8055">
            <rect width="16" height="16" fill="white"/>
        </clipPath>
    </defs>
</svg>
