<svg viewBox="0 0 16 17" fill="none" xmlns="http://www.w3.org/2000/svg">
    <path fill-rule="evenodd" clip-rule="evenodd" d="M8.00008 1.43542C6.12645 1.43542 4.32956 2.17972 3.0047 3.50458C1.67984 4.82944 0.935547 6.62633 0.935547 8.49996C0.935547 10.3736 1.67984 12.1705 3.0047 13.4953C4.32956 14.8202 6.12645 15.5645 8.00008 15.5645C9.87371 15.5645 11.6706 14.8202 12.9955 13.4953C14.3203 12.1705 15.0646 10.3736 15.0646 8.49996C15.0646 6.62633 14.3203 4.82944 12.9955 3.50458C11.6706 2.17972 9.87371 1.43542 8.00008 1.43542ZM1.94888 8.49996C1.94888 6.89508 2.58642 5.35593 3.72124 4.22111C4.85606 3.08629 6.3952 2.44876 8.00008 2.44876C9.60496 2.44876 11.1441 3.08629 12.2789 4.22111C13.4137 5.35593 14.0513 6.89508 14.0513 8.49996C14.0513 10.1048 13.4137 11.644 12.2789 12.7788C11.1441 13.9136 9.60496 14.5512 8.00008 14.5512C6.3952 14.5512 4.85606 13.9136 3.72124 12.7788C2.58642 11.644 1.94888 10.1048 1.94888 8.49996ZM8.80008 5.29996C8.80008 5.51213 8.71579 5.71561 8.56576 5.86564C8.41574 6.01567 8.21225 6.09996 8.00008 6.09996C7.78791 6.09996 7.58442 6.01567 7.43439 5.86564C7.28437 5.71561 7.20008 5.51213 7.20008 5.29996C7.20008 5.08778 7.28437 4.8843 7.43439 4.73427C7.58442 4.58424 7.78791 4.49996 8.00008 4.49996C8.21225 4.49996 8.41574 4.58424 8.56576 4.73427C8.71579 4.8843 8.80008 5.08778 8.80008 5.29996ZM6.40008 6.89996H8.00008C8.14153 6.89996 8.27718 6.95615 8.3772 7.05617C8.47722 7.15619 8.53341 7.29184 8.53341 7.43329V11.1666H9.60008V12.2333H6.40008V11.1666H7.46675V7.96662H6.40008V6.89996Z" fill="currentColor"/>
</svg>
