<svg width="22" height="22" viewBox="0 0 22 22" fill="none" xmlns="http://www.w3.org/2000/svg">
<path fill-rule="evenodd" clip-rule="evenodd" d="M11.0001 0.40332C8.18967 0.40332 5.49434 1.51977 3.50705 3.50705C1.51977 5.49434 0.40332 8.18967 0.40332 11.0001C0.40332 13.8106 1.51977 16.5059 3.50705 18.4932C5.49434 20.4805 8.18967 21.5969 11.0001 21.5969C13.8106 21.5969 16.5059 20.4805 18.4932 18.4932C20.4805 16.5059 21.5969 13.8106 21.5969 11.0001C21.5969 8.18967 20.4805 5.49434 18.4932 3.50705C16.5059 1.51977 13.8106 0.40332 11.0001 0.40332ZM1.92332 11.0001C1.92332 8.5928 2.87962 6.28408 4.58185 4.58185C6.28408 2.87962 8.5928 1.92332 11.0001 1.92332C13.4074 1.92332 15.7162 2.87962 17.4184 4.58185C19.1206 6.28408 20.0769 8.5928 20.0769 11.0001C20.0769 13.4074 19.1206 15.7162 17.4184 17.4184C15.7162 19.1206 13.4074 20.0769 11.0001 20.0769C8.5928 20.0769 6.28408 19.1206 4.58185 17.4184C2.87962 15.7162 1.92332 13.4074 1.92332 11.0001ZM12.2001 6.20012C12.2001 6.51838 12.0737 6.8236 11.8486 7.04865C11.6236 7.27369 11.3184 7.40012 11.0001 7.40012C10.6819 7.40012 10.3766 7.27369 10.1516 7.04865C9.92655 6.8236 9.80012 6.51838 9.80012 6.20012C9.80012 5.88186 9.92655 5.57664 10.1516 5.35159C10.3766 5.12655 10.6819 5.00012 11.0001 5.00012C11.3184 5.00012 11.6236 5.12655 11.8486 5.35159C12.0737 5.57664 12.2001 5.88186 12.2001 6.20012ZM8.60012 8.60012H11.0001C11.2123 8.60012 11.4158 8.68441 11.5658 8.83443C11.7158 8.98446 11.8001 9.18795 11.8001 9.40012V15.0001H13.4001V16.6001H8.60012V15.0001H10.2001V10.2001H8.60012V8.60012Z" fill="#676767"/>
</svg>
