<svg width="16" height="17" viewBox="0 0 16 17" fill="none" xmlns="http://www.w3.org/2000/svg">
    <path fill-rule="evenodd" clip-rule="evenodd" d="M0 8.60913C0 6.4874 0.842855 4.45257 2.34315 2.95228C3.84344 1.45199 5.87827 0.609131 8 0.609131C10.1217 0.609131 12.1566 1.45199 13.6569 2.95228C15.1571 4.45257 16 6.4874 16 8.60913C16 10.7309 15.1571 12.7657 13.6569 14.266C12.1566 15.7663 10.1217 16.6091 8 16.6091C5.87827 16.6091 3.84344 15.7663 2.34315 14.266C0.842855 12.7657 0 10.7309 0 8.60913ZM8 1.75665C6.18261 1.75665 4.43965 2.4786 3.15456 3.76369C1.86947 5.04878 1.14752 6.79174 1.14752 8.60913C1.14752 10.4265 1.86947 12.1695 3.15456 13.4546C4.43965 14.7397 6.18261 15.4616 8 15.4616C9.81739 15.4616 11.5603 14.7397 12.8454 13.4546C14.1305 12.1695 14.8525 10.4265 14.8525 8.60913C14.8525 6.79174 14.1305 5.04878 12.8454 3.76369C11.5603 2.4786 9.81739 1.75665 8 1.75665ZM10.8434 5.76691C10.9566 5.88017 11.0203 6.03376 11.0203 6.19391C11.0203 6.35406 10.9566 6.50765 10.8434 6.62091L8.85399 8.60913L10.8434 10.5974C10.9568 10.7108 11.0205 10.8646 11.0205 11.025C11.0205 11.1853 10.9568 11.3391 10.8434 11.4526C10.73 11.566 10.5762 11.6297 10.4158 11.6297C10.2554 11.6297 10.1016 11.566 9.98822 11.4526L8 9.46312L6.01178 11.4526C5.95562 11.5087 5.88896 11.5533 5.81559 11.5836C5.74222 11.614 5.66359 11.6297 5.58418 11.6297C5.50476 11.6297 5.42613 11.614 5.35276 11.5836C5.27939 11.5533 5.21273 11.5087 5.15658 11.4526C5.10042 11.3964 5.05588 11.3297 5.02549 11.2564C4.9951 11.183 4.97946 11.1044 4.97946 11.025C4.97946 10.9455 4.9951 10.8669 5.02549 10.7935C5.05588 10.7202 5.10042 10.6535 5.15658 10.5974L7.14601 8.60913L5.15658 6.62091C5.04317 6.5075 4.97946 6.35369 4.97946 6.19331C4.97946 6.03293 5.04317 5.87911 5.15658 5.76571C5.26998 5.6523 5.4238 5.58859 5.58418 5.58859C5.74456 5.58859 5.89837 5.6523 6.01178 5.76571L8 7.75514L9.98822 5.76571C10.0443 5.70946 10.111 5.66484 10.1843 5.63439C10.2577 5.60394 10.3364 5.58827 10.4158 5.58827C10.4953 5.58827 10.5739 5.60394 10.6473 5.63439C10.7207 5.66484 10.7873 5.71067 10.8434 5.76691Z" fill="#C41116"/>
</svg>
