<svg width="16" height="17" viewBox="0 0 16 17" fill="none" xmlns="http://www.w3.org/2000/svg">
    <path fill-rule="evenodd" clip-rule="evenodd" d="M8 0.609131C5.87827 0.609131 3.84344 1.45199 2.34315 2.95228C0.842855 4.45257 0 6.4874 0 8.60913C0 10.7309 0.842855 12.7657 2.34315 14.266C3.84344 15.7663 5.87827 16.6091 8 16.6091C10.1217 16.6091 12.1566 15.7663 13.6569 14.266C15.1571 12.7657 16 10.7309 16 8.60913C16 6.4874 15.1571 4.45257 13.6569 2.95228C12.1566 1.45199 10.1217 0.609131 8 0.609131ZM1.14752 8.60913C1.14752 6.79174 1.86947 5.04878 3.15456 3.76369C4.43965 2.4786 6.18261 1.75665 8 1.75665C9.81739 1.75665 11.5603 2.4786 12.8454 3.76369C14.1305 5.04878 14.8525 6.79174 14.8525 8.60913C14.8525 10.4265 14.1305 12.1695 12.8454 13.4546C11.5603 14.7397 9.81739 15.4616 8 15.4616C6.18261 15.4616 4.43965 14.7397 3.15456 13.4546C1.86947 12.1695 1.14752 10.4265 1.14752 8.60913ZM11.2118 6.23921C11.3041 6.10818 11.3405 5.94587 11.3131 5.78798C11.2857 5.63009 11.1967 5.48956 11.0657 5.39729C10.9347 5.30503 10.7723 5.2686 10.6145 5.29601C10.4566 5.32342 10.316 5.41242 10.2238 5.54345L6.81625 10.3872L5.41145 8.9558C5.29875 8.84409 5.14661 8.78121 4.98793 8.78078C4.82924 8.78034 4.67676 8.84237 4.56345 8.95346C4.45014 9.06455 4.3851 9.21578 4.38239 9.37444C4.37969 9.5331 4.43954 9.68645 4.549 9.80134L6.46233 11.7497C6.52431 11.8128 6.59938 11.8615 6.68224 11.8923C6.7651 11.9232 6.85373 11.9355 6.94187 11.9283C7.03 11.9212 7.1155 11.8948 7.1923 11.851C7.26911 11.8072 7.33537 11.747 7.38638 11.6748L11.2118 6.23921Z" fill="#116B51"/>
</svg>
