<svg viewBox="0 0 16 16" fill="none" xmlns="http://www.w3.org/2000/svg">
  <path d="M13.75 8.66667H4.91667C4.18 8.66667 3.58333 9.26333 3.58333 10C3.58333 10.7367 4.18 11.3333 4.91667 11.3333H13.75M13.4133 8.66667V11.3333M12.4167 11.3333H3.58333C2.84667 11.3333 2.25 11.93 2.25 12.6667C2.25 13.4033 2.84667 14 3.58333 14H12.4167M12.08 11.3333V14M9.44467 4.11133H8.66667V3.33333C8.66667 2.59667 9.26333 2 10 2H10.778V2.778C10.778 3.514 10.1807 4.11133 9.44467 4.11133ZM8.66667 8.66667C7.22867 8.66667 6.06333 7.50133 6.06333 6.06333C6.06333 4.92733 6.584 4.11067 7.62533 4.11067C8.146 4.11067 8.44133 4.278 8.66667 4.278C8.892 4.278 9.18733 4.11067 9.708 4.11067C10.7493 4.11067 11.27 4.92733 11.27 6.06333C11.27 7.50133 10.1047 8.66667 8.66667 8.66667Z" stroke="currentColor" stroke-linecap="round" stroke-linejoin="round"/>
</svg>
