<svg viewBox="0 0 16 16" fill="none" xmlns="http://www.w3.org/2000/svg">
  <path d="M9.41992 6.58L8.41992 7.58M11.1466 8.30667L10.4799 8.97334M12.7333 9.89334L11.7333 10.8933M7.83326 4.99334L7.16659 5.65334M6.10659 3.26667L5.10659 4.26667M8.23592 5.39467L11.2106 2.42C11.7279 1.90267 12.5693 1.90534 13.0899 2.426L13.5673 2.90334C14.0879 3.424 14.0906 4.26534 13.5733 4.78267L10.5986 7.75734M5.39459 8.236L2.70792 10.9227C2.62392 11.0067 2.56392 11.112 2.53392 11.2273L2.03926 13.1413C1.91126 13.636 2.36192 14.086 2.85659 13.9567L4.76659 13.4587C4.88126 13.4287 4.98592 13.3687 5.06992 13.2847L7.75726 10.5973M10.0799 3.55334L12.4399 5.91334M2.19526 4.094L4.09392 2.19534C4.35392 1.93534 4.77592 1.93534 5.03659 2.19534L13.8046 10.9633C14.0646 11.2233 14.0646 11.6453 13.8046 11.906L11.9059 13.8047C11.6459 14.0647 11.2239 14.0647 10.9633 13.8047L2.19526 5.03667C1.93459 4.776 1.93459 4.354 2.19526 4.094Z" stroke="currentColor" stroke-linecap="round" stroke-linejoin="round"/>
</svg>
