<svg width="14" height="14" viewBox="0 0 14 14" fill="none" xmlns="http://www.w3.org/2000/svg">
<path d="M2.33333 9.66667C1.59667 9.66667 1 9.07 1 8.33333V2.33333C1 1.59667 1.59667 1 2.33333 1H8.33333C9.07 1 9.66667 1.59667 9.66667 2.33333M10.5927 7.704L8.18533 10.1113L6.74067 8.66667M11.6667 13H5.66667C4.93 13 4.33333 12.4033 4.33333 11.6667V5.66667C4.33333 4.93 4.93 4.33333 5.66667 4.33333H11.6667C12.4033 4.33333 13 4.93 13 5.66667V11.6667C13 12.4033 12.4033 13 11.6667 13Z" stroke="#3F58B6" stroke-linecap="round" stroke-linejoin="round"/>
</svg>
