<svg viewBox="0 0 24 24" fill="none" xmlns="http://www.w3.org/2000/svg">
    <path d="M12 5H20M12 12H20M12 19H20M5 7H7C7.55228 7 8 6.55228 8 6V4C8 3.44772 7.55228 3 7 3H5C4.44772 3 4 3.44772 4 4V6C4 6.55228 4.44772 7 5 7ZM5 14H7C7.55228 14 8 13.5523 8 13V11C8 10.4477 7.55228 10 7 10H5C4.44772 10 4 10.4477 4 11V13C4 13.5523 4.44772 14 5 14ZM5 21H7C7.55228 21 8 20.5523 8 20V18C8 17.4477 7.55228 17 7 17H5C4.44772 17 4 17.4477 4 18V20C4 20.5523 4.44772 21 5 21Z" stroke="currentColor" stroke-width="1.5" stroke-linecap="round" stroke-linejoin="round"/>
</svg>
