<svg width="180" height="160" viewBox="0 0 180 160" fill="none" xmlns="http://www.w3.org/2000/svg">
    <path d="M90.0059 126.047C90.832 126.047 91.5016 125.378 91.5016 124.552C91.5016 123.726 90.832 123.056 90.0059 123.056C89.1798 123.056 88.5103 123.726 88.5103 124.552C88.5103 125.378 89.1798 126.047 90.0059 126.047Z" fill="#CADAF3"/>
    <path d="M46.553 13.4398V20.0028" stroke="#CADAF3" stroke-width="5.3156" stroke-linecap="round" stroke-linejoin="round"/>
    <path d="M43.2563 16.7211H49.8345" stroke="#CADAF3" stroke-width="5.3156" stroke-linecap="round" stroke-linejoin="round"/>
    <path d="M121.264 54.8319C108.489 54.8319 95.485 54.3131 83.3206 50.9246C71.3851 47.6126 60.4268 41.1871 50.6585 33.7541C44.2635 28.916 38.4486 25.0543 30.1456 25.6343C22.0229 26.0739 14.2554 29.1069 7.98416 34.2882C-2.57769 43.5373 -0.990134 60.6773 3.23759 72.6737C9.58694 90.7906 28.9095 103.413 45.332 111.578C64.3033 121.056 85.1522 126.566 106.047 129.725C124.362 132.518 147.897 134.533 163.77 122.582C178.346 111.578 182.345 86.4862 178.773 69.5448C177.906 64.5401 175.242 60.0241 171.279 56.8464C161.038 49.3526 145.76 54.3587 134.252 54.6028C129.979 54.6947 125.629 54.8015 121.264 54.8319Z" fill="#E1EAF8"/>
    <path d="M22.8806 120.965V127.528" stroke="#CADAF3" stroke-width="5.3156" stroke-linecap="round" stroke-linejoin="round"/>
    <path d="M19.5991 124.247H26.1621" stroke="#CADAF3" stroke-width="5.3156" stroke-linecap="round" stroke-linejoin="round"/>
    <path d="M90.6163 159.427C121.56 159.427 146.645 157.863 146.645 155.932C146.645 154.001 121.56 152.436 90.6163 152.436C59.6721 152.436 34.5872 154.001 34.5872 155.932C34.5872 157.863 59.6721 159.427 90.6163 159.427Z" fill="#E1EAF8"/>
    <path d="M135.656 118.492H38.876C38.2285 118.492 37.5885 118.351 37.0008 118.079C36.413 117.807 35.8913 117.41 35.4718 116.917C35.0523 116.423 34.7451 115.844 34.5713 115.22C34.3976 114.596 34.3612 113.942 34.4651 113.303L46.8431 38.2416C47.0105 37.1971 47.5451 36.2461 48.3508 35.5607C49.1568 34.875 50.1807 34.4997 51.2388 34.5023H148.019C148.666 34.5023 149.306 34.6433 149.893 34.9155C150.479 35.1877 151.002 35.5845 151.42 36.0784C151.838 36.5723 152.143 37.1511 152.316 37.7751C152.487 38.3993 152.522 39.0531 152.415 39.6914L140.098 114.753C139.927 115.805 139.386 116.759 138.57 117.445C137.755 118.131 136.722 118.503 135.656 118.492Z" fill="#CADAF3"/>
    <path d="M136.848 32.5393L79.4021 6.89009C77.7086 6.13407 75.7231 6.89382 74.9671 8.58732L56.7601 49.3658C56.0041 51.0593 56.7638 53.0448 58.457 53.8008L115.903 79.4497C117.597 80.2057 119.583 79.446 120.339 77.7528L138.545 36.9743C139.303 35.2808 138.543 33.2953 136.848 32.5393Z" fill="#FCFCFC" stroke="#5D84D4" stroke-width="5.3156" stroke-linecap="round" stroke-linejoin="round"/>
    <path d="M87.8235 40.4393C89.3355 38.3174 91.5347 36.7839 94.0482 36.0982C96.5618 35.4125 99.235 35.6167 101.615 36.6765C103.995 37.7363 105.936 39.5866 107.108 41.9135C108.28 44.2404 108.612 46.901 108.046 49.4444" stroke="#5D84D4" stroke-width="3.6146" stroke-linecap="round" stroke-linejoin="round"/>
    <path d="M115.296 38.1347C116.165 38.1347 116.868 37.4306 116.868 36.5626C116.868 35.6944 116.164 34.9906 115.296 34.9906C114.428 34.9906 113.724 35.6944 113.724 36.5626C113.724 37.4309 114.428 38.1347 115.296 38.1347Z" fill="#5D84D4"/>
    <path d="M92.524 27.9698C93.392 27.9698 94.096 27.266 94.096 26.3977C94.096 25.5297 93.392 24.8257 92.524 24.8257C91.6557 24.8257 90.9519 25.5297 90.9519 26.3977C90.9519 27.266 91.6557 27.9698 92.524 27.9698Z" fill="#5D84D4"/>
    <path d="M135.229 118.462H37.9754C36.7921 118.457 35.6585 117.984 34.8233 117.146C33.9877 116.309 33.5188 115.173 33.5188 113.99V45.4148C33.5048 44.8199 33.6093 44.2281 33.8266 43.6742C34.044 43.1201 34.3699 42.6153 34.7851 42.1886C35.2 41.7622 35.6962 41.4228 36.244 41.1905C36.7918 40.9583 37.3805 40.8377 37.9757 40.8359H73.4003C74.2223 40.8391 75.0275 41.0685 75.7278 41.4992C76.4278 41.9302 76.9957 42.5455 77.3687 43.278L82.4205 53.1682C82.7924 53.9019 83.3597 54.5183 84.0603 54.949C84.7606 55.38 85.5666 55.6089 86.389 55.6103H135.229C136.41 55.6103 137.544 56.0798 138.381 56.9156C139.216 57.7514 139.686 58.885 139.686 60.0672V113.99C139.686 115.173 139.217 116.308 138.381 117.146C137.546 117.984 136.412 118.457 135.229 118.462Z" fill="#FCFCFC" stroke="#5D84D4" stroke-width="5.3156" stroke-linecap="round" stroke-linejoin="round"/>
    <path d="M120.256 57.9456C114.638 57.9424 109.145 59.6058 104.472 62.7252C99.7988 65.8443 96.1559 70.2793 94.0039 75.4692C91.8518 80.6591 91.2871 86.3704 92.3813 91.8814C93.4756 97.392 96.1795 102.455 100.151 106.429C104.123 110.403 109.184 113.109 114.695 114.207C120.204 115.304 125.916 114.743 131.106 112.593C136.299 110.444 140.736 106.803 143.857 102.132C146.978 97.4606 148.645 91.9681 148.645 86.3498C148.645 78.8192 145.655 71.5969 140.331 66.2707C135.008 60.9438 127.787 57.9496 120.256 57.9456Z" fill="#FCFCFC" stroke="#5D84D4" stroke-width="5.3156" stroke-linecap="round" stroke-linejoin="round"/>
    <path d="M140.464 106.954L148.034 114.524" stroke="#5D84D4" stroke-width="5.3156" stroke-linecap="round" stroke-linejoin="round"/>
    <path d="M147.178 110.846L144.828 113.307C143.773 114.41 143.813 116.157 144.915 117.212L165.325 136.724C166.427 137.778 168.176 137.739 169.231 136.635L171.583 134.175C172.638 133.073 172.598 131.324 171.494 130.269L151.085 110.759C149.982 109.704 148.233 109.743 147.178 110.846Z" fill="#5D84D4"/>
    <path d="M162.29 3V9.57819" stroke="#CADAF3" stroke-width="5.3156" stroke-linecap="round" stroke-linejoin="round"/>
    <path d="M158.993 6.29688H165.571" stroke="#CADAF3" stroke-width="5.3156" stroke-linecap="round" stroke-linejoin="round"/>
</svg>
