<svg width="16" height="16" viewBox="0 0 16 16" fill="none" xmlns="http://www.w3.org/2000/svg">
    <g clip-path="url(#clip0_845_8353)">
        <path fill-rule="evenodd" clip-rule="evenodd" d="M8.00002 0.935547C6.12639 0.935547 4.3295 1.67984 3.00464 3.0047C1.67978 4.32956 0.935486 6.12645 0.935486 8.00008C0.935486 9.87371 1.67978 11.6706 3.00464 12.9955C4.3295 14.3203 6.12639 15.0646 8.00002 15.0646C9.87365 15.0646 11.6705 14.3203 12.9954 12.9955C14.3203 11.6706 15.0646 9.87371 15.0646 8.00008C15.0646 6.12645 14.3203 4.32956 12.9954 3.0047C11.6705 1.67984 9.87365 0.935547 8.00002 0.935547ZM1.94882 8.00008C1.94882 6.3952 2.58635 4.85606 3.72117 3.72124C4.85599 2.58642 6.39514 1.94888 8.00002 1.94888C9.6049 1.94888 11.144 2.58642 12.2789 3.72124C13.4137 4.85606 14.0512 6.3952 14.0512 8.00008C14.0512 9.60496 13.4137 11.1441 12.2789 12.2789C11.144 13.4137 9.6049 14.0513 8.00002 14.0513C6.39514 14.0513 4.85599 13.4137 3.72117 12.2789C2.58635 11.1441 1.94882 9.60496 1.94882 8.00008ZM4.80002 7.46675C4.65857 7.46675 4.52291 7.52294 4.4229 7.62296C4.32288 7.72298 4.26669 7.85863 4.26669 8.00008C4.26669 8.14153 4.32288 8.27718 4.4229 8.3772C4.52291 8.47722 4.65857 8.53341 4.80002 8.53341H11.2C11.3415 8.53341 11.4771 8.47722 11.5771 8.3772C11.6772 8.27718 11.7334 8.14153 11.7334 8.00008C11.7334 7.85863 11.6772 7.72298 11.5771 7.62296C11.4771 7.52294 11.3415 7.46675 11.2 7.46675H4.80002Z" fill="#676767"/>
    </g>
    <defs>
        <clipPath id="clip0_845_8353">
            <rect width="16" height="16" fill="white"/>
        </clipPath>
    </defs>
</svg>
