<svg viewBox="0 0 24 24" fill="none" xmlns="http://www.w3.org/2000/svg">
  <path d="M12.735 20.191C12.4233 20.0525 12.1165 19.9034 11.815 19.744C10.313 18.895 8.93366 17.8453 7.715 16.624C6.1331 15.135 4.83381 13.3719 3.88 11.42C3.36976 10.3711 3.02501 9.24944 2.858 8.095C2.63153 6.92901 2.76043 5.72188 3.228 4.63C3.517 4.16 3.865 3.73 4.263 3.351C4.4245 3.16984 4.62097 3.02321 4.84059 2.91993C5.06022 2.81665 5.29846 2.75885 5.541 2.75C6.046 2.826 6.503 3.09 6.819 3.492C7.509 4.259 8.249 4.949 8.978 5.678C9.265 5.924 9.444 6.273 9.476 6.65C9.464 6.967 9.342 7.27 9.131 7.507C8.889 7.814 8.595 8.095 8.314 8.389C8.14458 8.55279 8.01501 8.75327 7.93526 8.97501C7.85551 9.19674 7.82771 9.43383 7.854 9.668C8.0304 10.2156 8.33206 10.7144 8.735 11.125C9.221 11.79 9.706 12.405 10.255 13.056C11.2424 14.1965 12.4128 15.1647 13.718 15.921C13.8985 16.0571 14.1119 16.1429 14.3364 16.1698C14.5608 16.1967 14.7884 16.1636 14.996 16.074C15.4305 15.8321 15.8161 15.5113 16.133 15.128C16.408 14.793 16.802 14.578 17.232 14.527C17.615 14.547 17.976 14.711 18.242 14.987C18.586 15.281 18.88 15.627 19.2 15.946C19.519 16.266 19.775 16.496 20.043 16.79C20.3643 17.0733 20.6667 17.376 20.95 17.698C21.17 17.982 21.274 18.338 21.244 18.695C21.13 19.1223 20.8839 19.5027 20.541 19.782C20.0588 20.2838 19.4729 20.6742 18.8241 20.9261C18.1754 21.1779 17.4795 21.285 16.785 21.24C15.3791 21.1602 14.0028 20.8038 12.735 20.191Z" stroke="currentColor" stroke-width="1.5" stroke-miterlimit="10" stroke-linecap="round"/>
</svg>
