<svg width="14" height="14" viewBox="0 0 14 14" fill="none" xmlns="http://www.w3.org/2000/svg">
<path d="M0.633561 9.07145V7.92183V1.66689C0.633561 1.39284 0.74243 1.13001 0.936217 0.936218L0.633561 9.07145ZM0.633561 9.07145V9.12893M0.633561 9.07145V9.12893M0.633561 9.12893V9.27863V12.3336C0.633561 12.6076 0.74243 12.8705 0.936217 13.0642C1.13001 13.258 1.39284 13.3669 1.66689 13.3669H8.53729H9.61041H9.66416H9.83223H12.3336C12.6076 13.3669 12.8704 13.258 13.0642 13.0642C13.258 12.8704 13.3669 12.6076 13.3669 12.3336V10.3453V10.1956V10.1382V8.98849V1.66689C13.3669 1.39284 13.258 1.13001 13.0642 0.936217C12.8705 0.74243 12.6076 0.633561 12.3336 0.633561H1.66689C1.39284 0.633561 1.13001 0.74243 0.936218 0.936217L0.633561 9.12893ZM1.66689 0.566895H12.3336C12.6253 0.566895 12.9051 0.682787 13.1114 0.889077C13.3177 1.09537 13.4336 1.37516 13.4336 1.66689V12.3336C13.4336 12.6253 13.3177 12.9051 13.1114 13.1114C12.9051 13.3177 12.6253 13.4336 12.3336 13.4336H1.66689C1.37516 13.4336 1.09537 13.3177 0.889077 13.1114C0.682787 12.9051 0.566895 12.6253 0.566895 12.3336V1.66689C0.566895 1.37516 0.682787 1.09537 0.889077 0.889077C1.09537 0.682787 1.37516 0.566895 1.66689 0.566895Z" stroke="#3F58B6"/>
</svg>
