<svg width="322" height="320" viewBox="0 0 322 320" fill="none" xmlns="http://www.w3.org/2000/svg">
<path d="M37.0935 59.126C37.1078 63.3696 37.0656 67.6226 37.2743 71.8625C34.5306 76.907 33.7335 81.1663 34.4978 86.8365C34.0277 87.9157 34.1046 103.519 34.2925 105.356C34.4085 106.49 34.6609 107.571 35.0749 108.634C36.73 112.882 40.0971 116.406 43.3896 119.448C38.8597 123.291 34.8346 128.758 34.3348 134.868C34.2271 136.185 34.2342 137.843 34.5337 139.135C33.9924 140.367 34.1175 157.87 34.395 160.203C34.4968 161.059 34.8542 161.989 35.1635 162.791C36.0942 165.204 37.5354 167.281 39.1878 169.25C39.0797 171.492 39.3174 173.476 39.716 175.677C39.0587 177.785 39.5156 191.786 39.5288 195.119C35.9884 200.46 33.9329 204.369 34.8783 210.939C34.2674 212.278 34.5242 228.501 34.8207 230.698C34.9777 231.865 35.4821 233.041 35.8916 234.138L36.2739 235.153C35.1352 239.008 34.8192 242.22 35.1662 246.218C34.5206 248.677 35.063 256.767 35.0241 259.857C16.3715 237.223 5.25914 208.63 1.92318 179.608C-2.07283 144.843 4.94536 108.123 23.2387 78.1077C27.3587 71.3476 32.1835 65.3065 37.0935 59.126Z" fill="#FCFCFC"/>
<path d="M89.9269 16.4533C128.337 -2.94618 172.183 -4.70755 212.773 8.62374C252.216 21.578 285.081 50.2441 303.759 87.266C309.17 97.9918 313.439 109.231 316.343 120.899C323.561 149.898 322.753 182.323 313.364 210.74C308.115 226.631 300.785 241.709 291.239 255.471C289.665 257.74 288.106 260.356 286.17 262.311C286.273 260.55 286.41 258.784 286.401 257.02C287.097 250.996 286.053 246.821 282.618 241.806C282.819 236.571 282.66 231.226 282.63 225.985C282.931 222.22 282.839 219.351 281.597 215.769C282.67 213.875 283.488 212.029 283.887 209.877C284.435 206.923 284.482 191.799 284.034 188.803C284.422 184.907 283.922 181.345 282.345 177.749C282.725 171.927 282.429 165.947 282.438 160.104C282.587 155.92 282.863 152.394 281.278 148.424C277.657 139.361 267.907 133.558 259.308 129.844C239.246 121.177 214.532 119.332 193.127 123.001C188.59 123.779 183.721 124.729 179.436 126.427L175.189 127.844C165.287 131.895 154.5 137.788 150.108 148.123C149.687 149.115 149.284 150.145 149.046 151.197C146.658 151.903 144.249 152.658 141.827 153.234C136.779 154.758 131.221 155.463 125.985 155.981C109.85 157.58 93.0388 157.112 77.4079 152.444C66.5193 149.191 55.2138 143.574 49.6085 133.213C49.4876 133.336 49.4409 133.688 49.3945 133.858C49.2758 130.591 49.4661 127.274 49.5113 124.004C47.3673 122.604 45.32 121.133 43.3896 119.448C40.097 116.406 36.7299 112.883 35.0748 108.634C34.6609 107.571 34.4085 106.49 34.2925 105.357C34.1046 103.52 34.0277 87.9162 34.4978 86.8369C33.7335 81.1668 34.5306 76.9074 37.2743 71.863C37.0656 67.6231 37.1078 63.3701 37.0935 59.1264L37.034 55.606C36.3661 50.7028 37.2035 45.0625 39.6018 40.7085C46.3985 28.3682 64.4857 21.6265 77.6456 18.6956C81.5758 17.8203 85.9588 17.6492 89.7575 16.5068C89.8139 16.4898 89.8704 16.4709 89.9269 16.4533Z" fill="#FCFCFC"/>
<path d="M249.072 83.9092C249.793 84.6136 250.274 86.2265 250.713 87.1765C253.169 92.4925 256.629 93.9717 261.838 95.9734C260.091 96.7087 258.304 97.4251 256.617 98.2896C252.089 100.61 250.649 104.158 249.15 108.754C248.65 107.105 247.995 105.494 247.199 103.966C244.662 99.0919 240.959 97.5637 235.948 95.9745C236.994 95.5696 238.033 95.15 239.062 94.7014C245.041 92.0928 246.72 89.8979 249.072 83.9092Z" fill="#EEBCB3"/>
<path d="M225.198 38.6699C226.126 40.1936 226.595 42.2077 227.33 43.8548C230.141 50.1551 234.4 51.8844 240.371 54.5972C234.337 57.1322 229.87 59.5392 227.095 65.7709C226.588 66.9111 226.148 69.1252 225.396 70.0329L225.229 69.7361C224.742 68.501 224.237 67.2614 223.64 66.0748C220.311 59.4653 216.104 56.8979 209.29 54.645C210.735 54.0988 212.188 53.5308 213.584 52.8678C220.092 49.777 222.81 45.2844 225.198 38.6699Z" fill="#EEBCB3"/>
<path d="M89.9271 16.4533C94.8392 16.3357 99.3032 15.7354 104.396 15.8148C123.717 16.1173 148.933 20.8031 163.413 34.6433C167.786 38.8237 171.233 43.7672 171.329 50.0162C171.353 51.552 171.215 53.1057 171.146 54.6414C171.224 58.2429 171.178 61.8454 171.159 65.4472C171.151 67.1641 171.012 69.021 171.188 70.7247C174.257 75.5827 174.568 82.2031 173.696 87.7086C174.136 89.7009 173.828 92.2216 173.787 94.2733C173.71 98.106 173.591 101.939 173.623 105.773C174.18 107.354 174.253 108.985 174.392 110.643L174.863 111.515C178.189 115.646 180.052 120.577 179.502 125.902C179.484 126.077 179.462 126.253 179.436 126.427L175.189 127.844C165.287 131.895 154.5 137.788 150.108 148.123C149.687 149.115 149.284 150.145 149.046 151.197C146.658 151.903 144.249 152.658 141.827 153.234C136.779 154.758 131.221 155.463 125.985 155.981C109.85 157.58 93.0388 157.112 77.4079 152.444C66.5193 149.191 55.2138 143.574 49.6085 133.213C49.4876 133.336 49.4409 133.688 49.3945 133.858C49.2758 130.591 49.4661 127.274 49.5113 124.004C47.3673 122.604 45.32 121.133 43.3896 119.448C40.0971 116.406 36.7299 112.883 35.0748 108.634C34.6609 107.571 34.4085 106.49 34.2925 105.357C34.1046 103.52 34.0277 87.9162 34.4978 86.8369C33.7335 81.1668 34.5306 76.9074 37.2743 71.863C37.0656 67.6231 37.1078 63.3701 37.0935 59.1264L37.034 55.606C36.3661 50.7028 37.2035 45.0625 39.6018 40.7085C46.3985 28.3682 64.4857 21.6265 77.6456 18.6956C81.5758 17.8203 85.9588 17.6492 89.7575 16.5068C89.814 16.4898 89.8706 16.4709 89.9271 16.4533Z" fill="#FDDF94"/>
<path d="M55.3942 51.9157C55.0721 48.4194 56.4534 44.9675 58.5809 42.2479C66.0778 32.6631 82.2933 28.2375 93.9548 26.7726C110.593 24.682 132.409 27.0917 145.965 37.6966C150.106 40.9364 153.283 45.0538 153.945 50.391C153.908 50.7751 153.955 51.258 153.707 51.5556L153.647 51.327C152.251 46.1967 147.551 42.4216 143.104 39.9217C126.403 30.5334 98.7921 29.4313 80.4781 34.6347C72.3378 36.9474 60.5464 42.0352 56.3995 49.748C56.0383 50.42 55.7562 51.1375 55.5649 51.8762L55.3942 51.9157Z" fill="#F19240"/>
<path d="M106.555 84.8902C109.445 84.4737 112.483 84.6462 115.406 84.3444C123.139 83.5455 130.633 82.1326 138.127 80.0869C138.166 86.4504 138.281 92.828 138.192 99.1907C128.771 101.956 118.474 103.617 108.653 103.773C107.899 97.6686 109.137 91.2429 108.417 85.1356C107.857 84.9027 107.162 84.9295 106.555 84.8902Z" fill="#F4A344"/>
<path d="M171.146 54.6416C171.224 58.243 171.178 61.8455 171.16 65.4473C171.151 67.1642 171.013 69.0212 171.189 70.7249C170.925 73.1368 170.567 75.306 169.806 77.6218C168.688 79.6713 167.551 81.6443 166.052 83.4486C159.487 91.3535 148.845 96.0627 139.152 98.9205C138.833 99.0147 138.513 99.1039 138.192 99.1914C138.281 92.8286 138.166 86.4511 138.127 80.0875C149.188 76.4764 160.531 71.679 167.454 61.7676C168.963 59.607 169.603 56.939 170.995 54.8601C171.045 54.7866 171.096 54.7143 171.146 54.6416Z" fill="#F19240"/>
<path d="M37.0793 51.1436C37.5117 53.1505 37.9155 55.1367 38.7178 57.037C41.3534 63.2792 47.2043 68.2099 52.7708 71.8084C68.2092 81.7884 88.4958 84.9332 106.555 84.8911C107.161 84.9302 107.857 84.9035 108.416 85.1363C109.136 91.2437 107.899 97.6694 108.652 103.774C91.7658 103.992 75.4195 101.93 59.8448 95.0737C57.1241 93.8758 54.6312 92.2705 51.9564 90.9886C43.8948 85.4794 39.5503 81.6117 37.274 71.8633C37.0653 67.6234 37.1075 63.3704 37.0932 59.1268L37.0337 55.6064C37.0346 54.1182 37.0481 52.6315 37.0793 51.1436Z" fill="#F19240"/>
<path d="M55.3945 51.9153L55.5651 51.8758C55.7564 51.1371 56.0386 50.4195 56.3998 49.7476C60.5466 42.0348 72.3381 36.9471 80.4784 34.6343C98.7924 29.4309 126.404 30.5331 143.104 39.9213C147.551 42.4213 152.251 46.1963 153.648 51.3266L153.707 51.5553C153.956 51.2577 153.908 50.7748 153.946 50.3906C154.378 53.5536 152.756 57.1481 150.88 59.6177C143.79 68.9513 129.377 73.0492 118.19 74.4982C101.321 76.6833 77.4296 74.3652 63.6286 63.642C59.8792 60.7287 56.2809 56.7469 55.3945 51.9153Z" fill="#FCD152"/>
<path d="M171.188 70.7246C174.257 75.5826 174.568 82.203 173.696 87.7085C174.136 89.7008 173.828 92.2215 173.787 94.2732C173.71 98.1059 173.591 101.939 173.623 105.773C174.18 107.354 174.253 108.985 174.392 110.643L174.863 111.515C178.189 115.646 180.052 120.577 179.502 125.902C179.484 126.077 179.462 126.253 179.436 126.427L175.189 127.844C165.287 131.895 154.5 137.787 150.108 148.123C149.687 149.114 149.284 150.145 149.046 151.197C146.658 151.903 144.249 152.658 141.827 153.234C136.779 154.758 131.221 155.463 125.985 155.981C109.85 157.579 93.0388 157.112 77.4079 152.443C66.5193 149.191 55.2138 143.574 49.6085 133.213C49.4876 133.336 49.4409 133.688 49.3945 133.858C49.2758 130.591 49.4661 127.274 49.5113 124.003C47.3673 122.604 45.32 121.133 43.3896 119.448C40.0971 116.406 36.7299 112.883 35.0748 108.634C34.6609 107.571 34.4085 106.49 34.2925 105.356C34.1046 103.52 34.0277 87.916 34.4978 86.8368C33.7335 81.1667 34.5306 76.9073 37.2743 71.8629C39.5506 81.6112 43.8951 85.4789 51.9567 90.9882C54.6315 92.27 57.1244 93.8754 59.8451 95.0732C75.4199 101.929 91.7661 103.991 108.652 103.773C118.474 103.617 128.771 101.956 138.192 99.191C138.513 99.1036 138.833 99.0143 139.152 98.9201C148.844 96.0623 159.487 91.3531 166.052 83.4482C167.55 81.6439 168.688 79.6709 169.806 77.6214C170.567 75.3057 170.924 73.1365 171.188 70.7246Z" fill="#F19240"/>
<path d="M173.623 105.772C174.18 107.354 174.253 108.985 174.392 110.642C173.617 117.061 170.854 121.802 165.756 125.801C159.555 130.666 149.616 135.297 141.741 136.805C127.964 140.653 108.52 141.451 94.4533 139.095C88.7893 138.146 83.2612 136.365 77.6107 135.449C77.585 135.445 77.5624 135.43 77.5387 135.42L77.3372 134.765L77.335 135.023C77.3907 135.016 77.4457 135.004 77.5022 135.001C77.9474 134.984 84.2579 136.252 85.3653 136.413C91.487 137.303 97.9093 137.925 104.097 137.865C108.83 138.521 127.98 136.825 132.198 135.261C138.967 134.714 152.03 129.569 158.007 125.92C165.882 121.111 171.435 114.87 173.623 105.772Z" fill="#FDDF94"/>
<path d="M174.392 110.643L174.863 111.515C178.189 115.646 180.052 120.577 179.502 125.902C179.484 126.077 179.462 126.252 179.436 126.427L175.189 127.844C165.287 131.895 154.501 137.787 150.109 148.122C149.687 149.114 149.284 150.144 149.046 151.197C146.658 151.903 144.249 152.657 141.827 153.234C141.653 147.769 141.786 142.275 141.741 136.805C149.616 135.297 159.555 130.666 165.756 125.801C170.854 121.802 173.617 117.061 174.392 110.643Z" fill="#F19240"/>
<path d="M174.863 111.515C178.189 115.645 180.052 120.577 179.502 125.901C179.484 126.077 179.462 126.252 179.436 126.427L175.189 127.843C175.427 122.488 175.814 116.795 174.863 111.515Z" fill="#FDDF94"/>
<path d="M173.696 87.708C174.136 89.7002 173.828 92.221 173.787 94.2727C173.71 98.1054 173.591 101.939 173.623 105.772C171.434 114.87 165.882 121.11 158.007 125.919C152.03 129.57 138.967 134.714 132.198 135.261C132.606 134.762 140.937 132.79 142.339 132.347C142.434 125.815 142.341 119.267 142.324 112.733C146.843 111.589 151.552 109.363 155.651 107.16C163.792 102.783 170.958 96.8472 173.696 87.708Z" fill="#F19240"/>
<path d="M108.454 117.853C119.82 117.441 131.42 116.093 142.324 112.733C142.34 119.268 142.434 125.815 142.338 132.348C140.937 132.79 132.606 134.762 132.198 135.261C127.98 136.826 108.83 138.521 104.097 137.865C105.544 137.704 107.075 137.799 108.533 137.795L108.454 117.853Z" fill="#F4A344"/>
<path d="M171.188 70.7246C174.257 75.5826 174.568 82.203 173.696 87.7085C170.958 96.8478 163.792 102.783 155.651 107.16C151.552 109.364 146.843 111.589 142.324 112.734C131.42 116.094 119.82 117.441 108.454 117.854C89.4902 118.153 69.1986 115.285 52.3597 106.073C44.5547 101.804 37.0822 95.6696 34.4978 86.837C33.7335 81.1669 34.5306 76.9074 37.2743 71.8631C39.5506 81.6114 43.8951 85.4791 51.9568 90.9884C54.6315 92.2702 57.1244 93.8755 59.8451 95.0734C75.4199 101.929 91.7661 103.992 108.652 103.773C118.474 103.618 128.771 101.956 138.192 99.1912C138.513 99.1038 138.833 99.0145 139.152 98.9203C148.844 96.0625 159.487 91.3533 166.052 83.4484C167.551 81.6441 168.688 79.6711 169.806 77.6216C170.567 75.3058 170.924 73.1365 171.188 70.7246Z" fill="#FDDF94"/>
<path d="M169.805 77.6211C170.038 83.1236 169.416 87.0847 165.584 91.2624C154.276 103.587 131.339 108.206 115.235 108.82C95.7672 109.563 68.4515 106.689 53.5868 92.7638C53.0052 92.2187 52.4229 91.6361 51.9565 90.9878C54.6313 92.2696 57.1242 93.875 59.8449 95.0728C75.4197 101.929 91.7659 103.991 108.652 103.773C118.474 103.617 128.771 101.956 138.191 99.1906C138.512 99.1032 138.833 99.0139 139.152 98.9197C148.844 96.0619 159.487 91.3527 166.052 83.4478C167.55 81.6436 168.687 79.6706 169.805 77.6211Z" fill="#F19240"/>
<path d="M43.3895 119.448C45.3199 121.133 47.3672 122.604 49.5112 124.004C49.466 127.274 49.2758 130.591 49.3944 133.858C49.4407 133.688 49.4875 133.337 49.6084 133.213C55.2137 143.575 66.5192 149.191 77.4078 152.444C93.0387 157.113 109.85 157.58 125.985 155.982C131.22 155.463 136.779 154.758 141.827 153.234C144.249 152.658 146.658 151.904 149.046 151.197C149.284 150.145 149.687 149.115 150.108 148.123C154.5 137.788 165.287 131.895 175.189 127.844L179.436 126.428C183.721 124.729 188.59 123.779 193.127 123.001C214.532 119.332 239.246 121.177 259.308 129.844C267.907 133.558 277.657 139.361 281.278 148.424C282.863 152.394 282.587 155.92 282.438 160.104C282.429 165.947 282.725 171.927 282.345 177.75C283.922 181.345 284.422 184.907 284.034 188.803C284.482 191.799 284.435 206.923 283.887 209.877C283.487 212.029 282.67 213.875 281.597 215.769C282.839 219.352 282.93 222.22 282.63 225.986C282.66 231.226 282.819 236.571 282.618 241.806C286.053 246.822 287.097 250.997 286.4 257.02C286.41 258.785 286.273 260.551 286.169 262.311C286.044 265.593 286.098 268.964 286.204 272.248C286.325 273.881 286.284 275.515 286.264 277.15C291.478 279.899 299.829 282.199 301.761 288.544C302.168 289.883 301.949 291.209 301.29 292.428C297.143 300.094 278.348 305.478 270.294 307.68C244.177 314.821 216.953 317.585 189.996 319C176.025 319.734 162.044 320.181 148.053 319.93C140.677 319.798 133.305 319.367 125.94 318.961C105.746 317.847 85.7232 315.705 65.8848 311.686C53.5382 309.186 39.1205 306.16 28.113 299.824C25.051 298.062 21.326 295.484 20.3403 291.873C19.8552 290.098 20.2311 288.273 21.1633 286.709C23.8592 282.187 30.3535 279.488 34.9922 277.536C36.2043 277.025 37.9473 276.565 38.8968 275.707C35.0626 269.849 34.9308 266.643 35.0238 259.858C35.0626 256.768 34.5202 248.677 35.1659 246.219C34.8189 242.221 35.135 239.009 36.2736 235.153L35.8913 234.139C35.4819 233.042 34.9774 231.866 34.8204 230.699C34.5239 228.502 34.2671 212.279 34.878 210.939C33.9325 204.37 35.9881 200.461 39.5285 195.12C39.5153 191.786 39.0584 177.786 39.7157 175.678C39.3171 173.477 39.0794 171.492 39.1875 169.251C37.535 167.281 36.0939 165.205 35.1632 162.791C34.8539 161.989 34.4965 161.06 34.3947 160.204C34.1171 157.871 33.992 140.368 34.5334 139.136C34.234 137.843 34.2267 136.186 34.3345 134.869C34.8344 128.758 38.8596 123.291 43.3895 119.448Z" fill="#CADAF3"/>
<path d="M219.965 287.174C230.505 287.205 242.037 285.656 252.123 282.562L252.159 302.966C241.43 305.8 231.102 307.239 219.991 307.583L219.965 287.174Z" fill="#F4A344"/>
<path d="M252.123 282.563C255.033 282.035 258.168 280.586 260.912 279.472C272.095 274.931 281.552 268.499 286.4 257.02C286.41 258.784 286.273 260.55 286.169 262.311C286.044 265.593 286.098 268.964 286.204 272.247C286.091 274.107 286.207 276.012 285.984 277.855C285.414 282.575 282.142 286.625 278.698 289.672C271.244 296.266 261.522 300.013 252.159 302.966L252.123 282.563Z" fill="#F19240"/>
<path d="M107.546 278.457C109.645 278.739 112.12 278.442 114.24 278.331C121.206 277.966 128.243 277.119 135.089 275.768C138.021 275.189 140.898 274.369 143.825 273.771L143.782 286.44C143.763 288.898 143.599 291.488 143.828 293.934C133.554 296.11 123.481 297.206 113.001 297.726C109.688 297.89 105.838 298.259 102.546 297.767C104.163 297.578 105.882 297.7 107.512 297.708C107.505 291.296 107.404 284.868 107.546 278.457Z" fill="#F4A344"/>
<path d="M35.1661 246.219C38.0202 255.939 44.528 261.878 53.2602 266.641C67.5075 274.412 84.6764 277.498 100.758 277.846C102.086 277.875 106.921 277.604 107.546 278.458C107.404 284.868 107.506 291.297 107.512 297.709C105.882 297.7 104.164 297.578 102.547 297.767C99.7693 297.845 96.8994 297.591 94.1339 297.339C79.1204 295.972 60.0761 292.277 47.4379 283.6C44.1804 281.363 41.422 278.731 38.8972 275.707C35.063 269.849 34.9311 266.643 35.0242 259.858C35.0629 256.768 34.5205 248.677 35.1661 246.219Z" fill="#F19240"/>
<path d="M148.207 258.532C148.268 258.63 148.33 258.727 148.39 258.826C148.807 259.528 149.022 260.346 149.346 261.094C150.035 262.69 150.871 264.243 151.897 265.649C158.298 274.428 171.871 280.005 182.141 282.893C194.466 286.358 207.206 287.333 219.965 287.174L219.991 307.583C198.948 307.891 172.228 304.595 155.562 290.483C151.686 291.893 147.826 292.93 143.828 293.934C143.598 291.488 143.763 288.897 143.781 286.44L143.825 273.77L143.852 273.682C145.372 273.364 146.791 272.832 148.201 272.193L148.156 263.67C148.136 261.958 148.183 260.244 148.207 258.532Z" fill="#F19240"/>
<path d="M143.853 273.682C145.372 273.364 146.792 272.832 148.202 272.193C148.216 279.027 148.139 283.315 153.296 288.432C154.016 289.147 154.789 289.825 155.563 290.483C151.687 291.893 147.826 292.93 143.828 293.934C143.599 291.488 143.763 288.898 143.782 286.44L143.825 273.77L143.853 273.682Z" fill="#F19240"/>
<path d="M36.274 235.153C39.4291 240.572 43.4455 244.708 48.7894 247.996C50.4415 249.013 52.1783 249.875 53.8346 250.877C57.4831 252.25 60.9741 253.948 64.6854 255.179C77.7572 259.514 93.7177 261.699 107.47 261.585C119.484 261.74 131.485 259.73 143.052 256.628C144.869 256.184 146.628 255.474 148.376 254.813C148.307 256.044 148.185 257.3 148.207 258.533C148.183 260.245 148.137 261.959 148.156 263.67L148.202 272.194C146.792 272.833 145.372 273.365 143.853 273.683L143.825 273.771C140.898 274.369 138.021 275.19 135.089 275.768C128.243 277.119 121.206 277.966 114.24 278.331C112.12 278.442 109.645 278.74 107.546 278.458C106.921 277.604 102.086 277.874 100.758 277.846C84.6763 277.498 67.5074 274.412 53.2601 266.641C44.5279 261.878 38.0202 255.939 35.166 246.219C34.8193 242.22 35.1353 239.009 36.274 235.153Z" fill="#FDDF94"/>
<path d="M148.156 263.67L148.201 272.193C146.791 272.832 145.372 273.364 143.853 273.682L143.895 264.836C145.326 264.549 146.751 264.07 148.156 263.67Z" fill="#FDDF94"/>
<path d="M53.8345 250.876C57.483 252.249 60.974 253.948 64.6853 255.178C77.7571 259.513 93.7176 261.699 107.47 261.585C119.484 261.739 131.485 259.73 143.051 256.628C144.869 256.184 146.628 255.473 148.376 254.812C148.306 256.044 148.184 257.3 148.207 258.532C148.183 260.244 148.137 261.958 148.156 263.67C146.751 264.07 145.326 264.549 143.895 264.836C127.56 269.575 105.626 270.538 88.9047 267.593C76.8851 265.475 61.1808 261.341 53.8345 250.876Z" fill="#CE6A34"/>
<path d="M148.562 227.299C148.541 225.699 148.683 224.115 148.897 222.53C148.959 222.617 149.024 222.702 149.083 222.791C149.715 223.731 149.861 225.673 150.189 226.799C150.712 228.597 151.554 230.281 152.607 231.825C159.793 242.348 175.84 248.559 187.9 251.441C197.982 253.851 208.417 254.78 218.767 254.623C230.152 254.779 241.289 253.074 252.173 249.763L252.773 249.564C262.072 246.427 272.601 241.077 278.614 233.137C280.292 230.922 281.405 228.458 282.631 225.985C282.661 231.225 282.819 236.57 282.618 241.805C286.053 246.821 287.098 250.996 286.401 257.019C281.553 268.499 272.096 274.931 260.913 279.471C258.168 280.585 255.033 282.035 252.123 282.562C242.037 285.656 230.505 287.205 219.965 287.173C207.206 287.333 194.466 286.357 182.142 282.893C171.871 280.005 158.298 274.428 151.897 265.649C150.872 264.242 150.036 262.69 149.346 261.094C149.023 260.346 148.807 259.528 148.39 258.826C148.331 258.727 148.268 258.63 148.207 258.532C148.185 257.3 148.307 256.043 148.376 254.812C148.6 252.573 149.047 250.53 149.697 248.376C149.728 247.335 148.737 246.202 148.605 245.088C148.235 241.955 148.519 238.539 148.545 235.376L148.562 227.299Z" fill="#FDDF94"/>
<path d="M282.279 250.282C281.946 256.3 279.222 261.248 274.765 265.218C259.269 279.019 230.104 282.595 210.103 281.326C198.209 280.572 185.973 277.887 175.19 272.722C173.211 271.774 170.855 270.728 169.269 269.191C171.779 269.82 174.545 271.512 177.019 272.512C182.58 274.761 188.258 276.258 194.167 277.259C217.663 281.24 251.366 279.793 270.986 264.614C273.351 262.785 275.578 260.77 277.295 258.304C278.653 256.355 280 252.108 281.833 250.847C282.072 250.682 282.141 250.535 282.279 250.282Z" fill="#F4A344"/>
<path d="M252.188 269.68L252.754 269.51C262.885 266.415 274.06 261.188 280.124 252.157C280.991 250.866 281.369 249.384 282.092 248.021L282.328 248.044L282.279 250.282C282.141 250.534 282.073 250.681 281.833 250.847C280 252.107 278.653 256.354 277.295 258.303C275.578 260.769 273.351 262.784 270.986 264.613C251.366 279.793 217.663 281.239 194.167 277.258C188.258 276.258 182.58 274.761 177.019 272.512C174.545 271.511 171.779 269.819 169.269 269.19C164.919 266.994 159.562 261.99 157.333 257.654C157.416 257.693 157.5 257.731 157.582 257.771C159.095 258.506 160.585 259.905 161.974 260.885C164.022 262.329 166.265 263.645 168.509 264.763C183.199 272.084 202.647 274.503 218.849 274.565C230.058 274.757 241.478 272.879 252.188 269.68Z" fill="#CE6A34"/>
<path d="M252.173 249.764L252.773 249.565C262.072 246.428 272.601 241.078 278.614 233.137C280.292 230.922 281.405 228.459 282.63 225.985C282.661 231.226 282.819 236.571 282.618 241.806C282.355 243.876 282.645 245.998 282.328 248.045L282.092 248.021C281.369 249.385 280.991 250.866 280.124 252.157C274.06 261.188 262.885 266.415 252.754 269.51L252.188 269.68C252.144 263.041 252.351 256.403 252.173 249.764Z" fill="#F19240"/>
<path d="M218.767 254.623C230.152 254.779 241.288 253.075 252.173 249.764C252.351 256.403 252.144 263.041 252.188 269.68C241.478 272.879 230.058 274.758 218.849 274.565L218.767 254.623Z" fill="#F4A344"/>
<path d="M148.562 227.299C148.541 225.699 148.683 224.115 148.897 222.53C148.959 222.617 149.024 222.702 149.083 222.791C149.715 223.731 149.861 225.672 150.189 226.799C150.712 228.597 151.554 230.281 152.608 231.825C159.793 242.348 175.84 248.559 187.9 251.441C197.982 253.851 208.417 254.78 218.767 254.623L218.849 274.564C202.648 274.503 183.2 272.083 168.509 264.763C166.265 263.645 164.022 262.329 161.974 260.884C160.586 259.905 159.095 258.506 157.582 257.771C157.5 257.73 157.417 257.693 157.334 257.654C154.284 254.604 151.726 252.232 149.698 248.376C149.728 247.334 148.737 246.202 148.606 245.088C148.235 241.955 148.519 238.539 148.545 235.376L148.562 227.299Z" fill="#F19240"/>
<path d="M43.3897 119.448C45.3201 121.133 47.3674 122.604 49.5114 124.004C49.4662 127.274 49.276 130.591 49.3946 133.858C49.4409 133.688 49.4877 133.337 49.6086 133.213C55.2139 143.575 66.5194 149.191 77.408 152.444C93.0389 157.113 109.85 157.58 125.986 155.982C131.221 155.463 136.779 154.758 141.827 153.234C144.249 152.658 146.658 151.904 149.046 151.197C148.634 152.673 148.425 154.159 148.299 155.685C148.242 156.405 148.252 157.212 148.093 157.912C147.821 160.345 147.729 162.779 147.629 165.223C147.6 168.673 147.118 175.562 147.862 178.667C148.211 180.121 149.304 181.318 149.645 182.735L149.272 183.972C148.878 185.357 148.599 186.755 148.46 188.19C148.147 189.814 148.206 191.443 148.085 193.085C147.947 195.672 147.978 198.265 147.979 200.855C147.934 207.682 147.662 208.808 150.427 215.274C150.091 216.433 149.713 217.597 149.434 218.77C149.222 220.016 148.965 221.268 148.897 222.531C148.683 224.116 148.541 225.7 148.562 227.3L148.545 235.377C148.519 238.54 148.235 241.956 148.605 245.09C148.737 246.203 149.727 247.336 149.697 248.377C149.046 250.531 148.6 252.575 148.376 254.813C146.628 255.474 144.869 256.185 143.051 256.629C131.485 259.731 119.484 261.74 107.47 261.586C93.7176 261.699 77.7571 259.514 64.6854 255.179C60.974 253.948 57.4829 252.25 53.8345 250.877C52.1782 249.875 50.4414 249.013 48.7894 247.997C43.4455 244.709 39.429 240.572 36.2739 235.154L35.8916 234.139C35.4822 233.042 34.9777 231.866 34.8207 230.699C34.5242 228.502 34.2674 212.279 34.8783 210.939C33.9328 204.37 35.9884 200.461 39.5288 195.12C39.5156 191.787 39.0587 177.786 39.716 175.678C39.3174 173.477 39.0797 171.492 39.1878 169.251C37.5353 167.281 36.0942 165.205 35.1635 162.792C34.8542 161.99 34.4968 161.06 34.395 160.204C34.1174 157.871 33.9923 140.368 34.5337 139.136C34.2343 137.843 34.2271 136.186 34.3348 134.869C34.8346 128.758 38.8598 123.291 43.3897 119.448Z" fill="#FDDF94"/>
<path d="M62.6899 183.985C64.4803 183.896 70.4133 185.999 72.5057 186.537C75.2886 187.253 78.0974 187.846 80.9203 188.381C89.9789 190.098 99.2177 190.785 108.43 190.766C118.914 190.924 132.263 189.188 142.368 186.194C144.699 185.628 146.98 184.692 149.272 183.972C148.878 185.357 148.598 186.755 148.459 188.19C148.147 189.814 148.205 191.443 148.084 193.085C138.596 195.56 129.296 197.503 119.466 198.024C101.429 198.977 76.6496 196.553 62.6899 183.985Z" fill="#CE6A34"/>
<path d="M147.979 200.854C147.933 207.681 147.662 208.807 150.427 215.273C150.091 216.432 149.712 217.596 149.433 218.77C147.507 218.761 145.013 220.071 143.116 220.64C140.149 221.237 137.246 222.137 134.278 222.742C126.719 224.283 118.677 225.24 110.96 225.256C110.126 225.198 109.268 225.255 108.433 225.27L108.474 207.157C109.828 207.668 112.497 207.23 113.984 207.137C123.939 206.516 133.482 205.184 143.087 202.461C144.731 201.967 146.326 201.326 147.979 200.854Z" fill="#F4A344"/>
<path d="M147.979 200.854C147.933 207.681 147.662 208.807 150.427 215.273C150.091 216.432 149.713 217.596 149.433 218.77C147.507 218.761 145.013 220.071 143.117 220.64C142.993 214.589 143.108 208.516 143.087 202.461C144.731 201.967 146.327 201.326 147.979 200.854Z" fill="#F19240"/>
<path d="M147.629 165.223C147.6 168.673 147.118 175.562 147.862 178.667C148.211 180.121 149.304 181.318 149.645 182.734L149.272 183.971C146.98 184.692 144.699 185.628 142.368 186.194C132.263 189.188 118.914 190.924 108.431 190.765C108.418 184.273 108.329 177.763 108.507 171.273C110.669 171.618 113.149 171.35 115.331 171.225C124.511 170.698 133.426 169.301 142.324 166.99L142.378 166.897C144.142 166.41 145.897 165.815 147.629 165.223Z" fill="#F4A344"/>
<path d="M147.628 165.223C147.6 168.673 147.118 175.562 147.862 178.667C148.211 180.121 149.304 181.318 149.645 182.734L149.272 183.971C146.98 184.692 144.699 185.628 142.368 186.194L142.324 166.99L142.378 166.897C144.142 166.41 145.896 165.815 147.628 165.223Z" fill="#F19240"/>
<path d="M39.7158 175.677C42.2572 184.352 50.5316 191.07 58.1669 195.234C71.5317 202.524 87.1268 205.677 102.233 206.329C103.178 206.369 107.621 206.267 108.227 206.677C108.278 206.711 108.45 207.084 108.474 207.157L108.433 225.27C109.268 225.255 110.127 225.198 110.96 225.256C107.724 225.841 103.766 225.284 100.461 225.116C87.5186 224.459 74.6137 222.272 62.553 217.397C59.8202 216.292 57.2719 214.82 54.5877 213.618C53.6246 212.767 52.3785 212.089 51.3099 211.367C45.3359 207.331 40.934 202.362 39.5286 195.119C39.5154 191.786 39.0585 177.785 39.7158 175.677Z" fill="#F19240"/>
<path d="M39.1878 169.25C37.5353 167.281 36.0942 165.204 35.1635 162.791C34.8542 161.989 34.4968 161.059 34.395 160.203C34.1174 157.87 33.9923 140.367 34.5337 139.135C36.9075 147.964 43.5807 154.16 51.307 158.648C62.2656 165.014 75.2595 168.601 87.7876 170.064C92.1522 170.574 96.5962 170.877 100.991 170.968C103.15 171.013 105.739 170.682 107.841 170.985C108.137 171.027 108.29 171.083 108.507 171.272C108.328 177.762 108.417 184.272 108.431 190.765C99.2178 190.784 89.9791 190.097 80.9204 188.38C78.0977 187.845 75.2888 187.252 72.5058 186.536C70.4134 185.998 64.4804 183.896 62.6901 183.984C60.7411 182.938 58.4698 182.29 56.4271 181.403C49.7396 178.5 44.0846 174.668 39.1878 169.25Z" fill="#F19240"/>
<path d="M43.3898 119.448C45.3202 121.133 47.3675 122.604 49.5115 124.004C49.4663 127.274 49.2761 130.591 49.3947 133.858C49.441 133.688 49.4878 133.337 49.6087 133.213C55.214 143.575 66.5196 149.191 77.4081 152.444C93.039 157.113 109.85 157.58 125.986 155.982C131.221 155.463 136.779 154.758 141.827 153.234C144.249 152.658 146.658 151.904 149.046 151.197C148.634 152.673 148.425 154.159 148.3 155.685C148.242 156.405 148.252 157.212 148.093 157.912C147.822 160.345 147.729 162.779 147.629 165.223C145.897 165.816 144.142 166.41 142.378 166.898L142.324 166.99C133.426 169.302 124.511 170.698 115.331 171.225C113.149 171.35 110.669 171.618 108.507 171.273C108.29 171.084 108.137 171.028 107.842 170.985C105.739 170.683 103.15 171.014 100.991 170.969C96.5963 170.878 92.1523 170.575 87.7877 170.065C75.2595 168.602 62.2657 165.015 51.3071 158.649C43.5808 154.161 36.9076 147.964 34.5338 139.136C34.2344 137.843 34.2272 136.186 34.3349 134.869C34.8348 128.758 38.8599 123.291 43.3898 119.448Z" fill="#FDDF94"/>
<path d="M148.093 157.912C147.822 160.344 147.729 162.778 147.629 165.223C145.897 165.815 144.142 166.41 142.378 166.897C142.379 164.814 142.522 162.644 142.371 160.571C142.333 160.04 142.424 159.916 142.012 159.557C144.056 159.056 146.088 158.558 148.093 157.912Z" fill="#FDDF94"/>
<path d="M49.3945 133.858C49.4408 133.688 49.4876 133.336 49.6085 133.213C55.2138 143.574 66.5193 149.191 77.4079 152.443C93.0388 157.112 109.85 157.579 125.985 155.981C131.221 155.463 136.779 154.758 141.827 153.234C144.249 152.657 146.658 151.903 149.046 151.197C148.634 152.673 148.425 154.159 148.299 155.685C148.242 156.405 148.252 157.211 148.093 157.912C146.088 158.558 144.056 159.056 142.011 159.557C134.629 161.31 127.322 162.498 119.751 163.062C99.5575 164.564 73.2682 161.546 57.394 147.779C53.1665 144.113 49.8112 139.588 49.3945 133.858Z" fill="#CE6A34"/>
<path d="M39.5288 195.119C40.9342 202.362 45.3361 207.331 51.3101 211.367C52.3787 212.089 53.6248 212.767 54.5879 213.618C57.2721 214.821 59.8204 216.292 62.5532 217.397C74.6139 222.272 87.5188 224.459 100.461 225.116C103.767 225.284 107.724 225.842 110.96 225.257C118.677 225.24 126.719 224.283 134.278 222.742C137.247 222.137 140.15 221.237 143.117 220.641C145.013 220.072 147.507 218.762 149.434 218.77C149.222 220.016 148.965 221.267 148.897 222.531C148.683 224.115 148.541 225.699 148.562 227.3L148.545 235.376C148.519 238.54 148.235 241.955 148.605 245.089C148.737 246.202 149.727 247.335 149.697 248.377C149.046 250.53 148.6 252.574 148.376 254.812C146.629 255.474 144.869 256.184 143.052 256.628C131.485 259.73 119.484 261.74 107.47 261.585C93.7177 261.699 77.7572 259.513 64.6855 255.179C60.9741 253.948 57.483 252.249 53.8346 250.876C52.1784 249.875 50.4415 249.012 48.7895 247.996C43.4456 244.708 39.4291 240.571 36.2741 235.153L35.8917 234.138C35.4823 233.041 34.9779 231.865 34.8208 230.698C34.5244 228.501 34.2675 212.279 34.8785 210.939C33.933 204.369 35.9884 200.46 39.5288 195.119Z" fill="#FDDF94"/>
<path d="M148.562 227.3L148.545 235.377C146.82 236.012 145.007 236.788 143.202 237.133C143.107 234.366 143.079 231.523 143.187 228.758C144.99 228.31 146.798 227.886 148.562 227.3Z" fill="#FDDF94"/>
<path d="M54.5879 213.618C57.2721 214.821 59.8203 216.293 62.5531 217.397C74.6139 222.272 87.5187 224.459 100.461 225.117C103.767 225.285 107.724 225.842 110.96 225.257C118.677 225.24 126.719 224.283 134.278 222.742C137.247 222.137 140.15 221.238 143.117 220.641C145.013 220.072 147.507 218.762 149.434 218.77C149.222 220.016 148.965 221.267 148.897 222.531C148.683 224.115 148.541 225.699 148.562 227.3C146.798 227.886 144.99 228.31 143.187 228.758C124.865 233.547 104.801 234.392 86.2359 230.509C75.0429 228.169 61.0991 223.569 54.5879 213.618Z" fill="#CE6A34"/>
<path d="M143.202 237.133C145.007 236.789 146.82 236.012 148.545 235.377C148.519 238.54 148.235 241.956 148.605 245.09C148.737 246.203 149.728 247.336 149.697 248.377C149.047 250.531 148.6 252.575 148.376 254.813C146.629 255.474 144.87 256.185 143.052 256.629C131.486 259.731 119.484 261.74 107.47 261.586L107.348 242.179C108.54 242.67 110.977 242.248 112.318 242.171C122.782 241.575 132.994 240.07 143.09 237.231L143.202 237.133Z" fill="#F4A344"/>
<path d="M143.202 237.133C145.007 236.789 146.82 236.012 148.545 235.377C148.519 238.54 148.235 241.956 148.605 245.09C148.737 246.203 149.728 247.336 149.697 248.377C149.046 250.531 148.6 252.575 148.376 254.813C146.629 255.474 144.87 256.185 143.052 256.629C142.714 250.217 143.002 243.654 143.09 237.231L143.202 237.133Z" fill="#F19240"/>
<path d="M34.8784 210.938C37.8719 220.225 45.8069 226.192 54.2065 230.502C68.029 237.595 83.9111 240.676 99.322 241.533C100.263 241.585 106.768 241.457 107.156 241.791C107.266 241.885 107.284 242.049 107.348 242.178L107.47 261.585C93.7178 261.699 77.7573 259.513 64.6856 255.178C60.9742 253.948 57.4831 252.249 53.8347 250.876C52.1785 249.874 50.4416 249.012 48.7896 247.996C43.4457 244.708 39.4292 240.571 36.2742 235.153L35.8918 234.138C35.4824 233.041 34.978 231.865 34.8209 230.698C34.5244 228.501 34.2675 212.278 34.8784 210.938Z" fill="#F19240"/>
<path d="M179.436 126.427C183.721 124.728 188.59 123.779 193.127 123.001C214.532 119.331 239.246 121.176 259.308 129.843C267.907 133.558 277.657 139.36 281.278 148.424C282.863 152.394 282.587 155.92 282.438 160.104C282.429 165.947 282.725 171.926 282.345 177.749C283.922 181.344 284.422 184.907 284.034 188.803C284.482 191.798 284.435 206.923 283.887 209.876C283.488 212.029 282.67 213.874 281.597 215.768C282.839 219.351 282.93 222.219 282.63 225.985C281.405 228.459 280.292 230.922 278.614 233.137C272.601 241.077 262.071 246.428 252.773 249.564L252.173 249.763C241.288 253.075 230.152 254.779 218.767 254.623C208.417 254.78 197.982 253.851 187.9 251.442C175.839 248.56 159.792 242.349 152.607 231.825C151.553 230.281 150.712 228.597 150.189 226.8C149.861 225.673 149.715 223.731 149.083 222.792C149.024 222.703 148.959 222.618 148.897 222.531C148.964 221.267 149.222 220.016 149.433 218.77C149.712 217.596 150.091 216.433 150.427 215.273C147.662 208.808 147.933 207.681 147.979 200.855C147.977 198.264 147.947 195.672 148.084 193.084C148.205 191.442 148.147 189.813 148.459 188.189C148.598 186.754 148.878 185.356 149.272 183.971L149.645 182.734C149.304 181.317 148.211 180.121 147.862 178.667C147.118 175.561 147.6 168.672 147.628 165.222C147.729 162.778 147.821 160.344 148.093 157.912C148.252 157.211 148.242 156.404 148.299 155.685C148.425 154.159 148.634 152.673 149.046 151.197C149.284 150.144 149.687 149.114 150.108 148.122C154.5 137.787 165.287 131.894 175.189 127.844L179.436 126.427Z" fill="#FDDF94"/>
<path d="M278.054 221.508L278.134 221.35C278.6 220.411 278.759 218.973 279.736 218.467C279.728 219.264 279.742 220.067 279.657 220.86C279.612 221.267 279.583 221.091 279.707 221.415L279.831 221.452C278.044 228.888 272.668 234.258 266.297 238.142C246.667 250.109 215.754 250.932 193.93 245.556C188.87 244.309 176.387 240.42 172.841 236.998C174.547 237.396 176.333 238.402 177.939 239.113C194.15 246.287 218.494 247.661 235.858 244.981C242.24 243.996 248.631 242.301 254.648 239.955C263.412 236.539 274.171 230.358 278.054 221.508Z" fill="#F4A344"/>
<path d="M252.729 234.407C262.341 230.815 270.784 227.273 278.183 219.764L278.29 219.879L278.054 221.509C274.171 230.358 263.412 236.54 254.648 239.955C248.631 242.301 242.24 243.997 235.858 244.982C218.494 247.661 194.15 246.287 177.939 239.113C176.333 238.402 174.547 237.396 172.841 236.998C169.013 235.431 164.045 230.203 161.593 226.953C162.886 227.111 165.998 229.467 167.353 230.185C169.078 231.099 170.897 232.022 172.719 232.717C187.922 238.519 204.032 240.093 220.18 239.751C231.229 239.691 242.241 237.87 252.729 234.407Z" fill="#CE6A34"/>
<path d="M284.034 188.803C284.482 191.798 284.435 206.923 283.887 209.877C283.487 212.029 282.67 213.875 281.597 215.768C281.053 216.515 280.534 217.253 280.07 218.055C280.074 219.202 280.092 220.327 279.831 221.452L279.707 221.415C279.583 221.091 279.612 221.267 279.656 220.861C279.742 220.068 279.728 219.264 279.736 218.467C278.758 218.973 278.599 220.411 278.134 221.35L278.054 221.509L278.29 219.878L278.183 219.764C270.784 227.273 262.341 230.815 252.729 234.407C252.612 227.742 252.694 221.061 252.681 214.394C255.97 213.737 260.091 211.742 263.111 210.223C270.162 206.675 277.602 201.653 281.6 194.669C282.669 192.802 283.363 190.835 284.034 188.803Z" fill="#F19240"/>
<path d="M220.131 219.672C230.817 219.349 242.59 218.135 252.681 214.394C252.694 221.06 252.612 227.741 252.729 234.406C242.241 237.87 231.229 239.691 220.18 239.751L220.131 219.672Z" fill="#F4A344"/>
<path d="M148.46 188.189C148.518 188.286 148.577 188.382 148.634 188.479C149.165 189.397 149.42 190.692 149.744 191.711C150.302 193.469 150.994 195.092 151.965 196.665C157.753 206.032 169.888 211.789 180.17 214.825C192.436 218.447 207.365 220.494 220.131 219.673L220.18 239.751C204.032 240.093 187.922 238.519 172.719 232.718C170.897 232.022 169.078 231.1 167.353 230.186C165.997 229.467 162.886 227.111 161.593 226.953C160.329 225.604 158.623 224.48 157.186 223.307C154.359 220.999 152.345 218.345 150.427 215.274C147.662 208.808 147.934 207.682 147.979 200.855C147.978 198.265 147.947 195.672 148.085 193.084C148.206 191.442 148.147 189.814 148.46 188.189Z" fill="#F19240"/>
<path d="M148.299 155.685C148.683 157.45 148.837 159.252 149.393 160.977C151.356 167.069 156.757 172.08 161.99 175.448C174.937 183.783 191.224 187.161 206.358 188.382C210.278 188.698 214.304 188.989 218.236 188.795C221.306 188.552 224.385 188.549 227.463 188.251C235.998 187.425 244.105 185.516 252.273 182.961C264.809 178.523 276.41 172.671 282.438 160.104C282.429 165.947 282.725 171.926 282.345 177.749C283.922 181.344 284.422 184.907 284.034 188.803C283.363 190.835 282.669 192.802 281.6 194.669C277.602 201.653 270.162 206.674 263.111 210.223C260.091 211.742 255.97 213.737 252.681 214.394C242.591 218.135 230.817 219.349 220.131 219.672C207.365 220.493 192.435 218.447 180.17 214.825C169.887 211.788 157.753 206.032 151.965 196.664C150.993 195.091 150.302 193.468 149.744 191.71C149.42 190.691 149.164 189.397 148.633 188.479C148.577 188.381 148.517 188.285 148.459 188.189C148.598 186.754 148.878 185.356 149.272 183.971L149.645 182.734C149.304 181.317 148.211 180.121 147.862 178.667C147.118 175.561 147.6 168.672 147.628 165.222C147.729 162.778 147.821 160.344 148.093 157.912C148.252 157.211 148.242 156.404 148.299 155.685Z" fill="#FDDF94"/>
<path d="M280.071 184.559C279.665 190.086 275.988 195.096 271.928 198.63C270.029 200.282 267.912 201.635 265.769 202.944C249.603 212.825 227.537 215.251 208.974 213.867C199.101 213.131 188.649 211.391 179.528 207.398C178.102 206.774 176.257 206.034 175.095 204.978C177.38 205.29 179.819 206.82 182.021 207.615C184.765 208.604 187.669 209.336 190.511 209.982C210.418 214.507 234.526 213.589 253.66 206.265C261.775 203.158 270.779 197.971 275.89 190.761C277.045 189.131 277.836 187.384 278.645 185.569C278.677 185.553 278.714 185.543 278.742 185.519C279.2 185.122 279.538 184.855 280.071 184.559Z" fill="#F4A344"/>
<path d="M252.363 202.372C259.871 199.473 267.341 196.271 273.447 190.874C275.292 189.244 276.88 187.291 278.645 185.569C277.836 187.384 277.045 189.131 275.89 190.761C270.779 197.971 261.775 203.158 253.66 206.265C234.526 213.589 210.418 214.507 190.512 209.982C187.669 209.336 184.765 208.605 182.021 207.615C179.819 206.821 177.38 205.291 175.095 204.978C169.23 202.021 163.322 198.811 159.339 193.416C160.778 193.643 163.873 196.027 165.374 196.859C167.328 197.944 169.365 198.987 171.417 199.874C183.457 205.077 196.796 207.466 209.852 208.031C213.041 208.168 216.244 208.083 219.435 208.089C227.064 208.209 237.777 206.511 245.204 204.566C247.614 203.935 249.981 203.107 252.363 202.372Z" fill="#CE6A34"/>
<path d="M252.273 182.961C264.809 178.523 276.41 172.671 282.438 160.104C282.429 165.947 282.725 171.926 282.345 177.749C281.918 179.554 279.935 183.395 280.071 184.558C279.538 184.854 279.2 185.121 278.742 185.519C278.715 185.543 278.678 185.552 278.645 185.569C276.88 187.29 275.292 189.243 273.447 190.874C267.341 196.27 259.871 199.472 252.363 202.372C252.226 195.905 252.377 189.43 252.273 182.961Z" fill="#F19240"/>
<path d="M252.273 182.961C252.377 189.43 252.226 195.905 252.363 202.372C249.981 203.106 247.614 203.934 245.204 204.566C237.777 206.51 227.064 208.209 219.434 208.089C219.509 205.911 219.671 189.781 219.272 188.959L218.236 188.794C221.307 188.552 224.385 188.549 227.463 188.251C235.998 187.425 244.105 185.516 252.273 182.961Z" fill="#F4A344"/>
<path d="M148.299 155.685C148.683 157.45 148.837 159.252 149.393 160.977C151.356 167.069 156.757 172.08 161.99 175.448C174.937 183.783 191.224 187.161 206.358 188.382C210.278 188.698 214.304 188.989 218.236 188.795L219.272 188.96C219.671 189.781 219.509 205.912 219.434 208.089C216.243 208.083 213.04 208.168 209.852 208.03C196.796 207.465 183.457 205.077 171.416 199.873C169.364 198.987 167.328 197.943 165.373 196.859C163.873 196.026 160.778 193.642 159.339 193.415C158.619 192.51 157.456 191.673 156.592 190.88C153.907 188.413 151.487 185.906 149.645 182.734C149.304 181.317 148.211 180.121 147.862 178.667C147.118 175.561 147.6 168.672 147.628 165.222C147.729 162.778 147.821 160.344 148.093 157.912C148.252 157.211 148.242 156.404 148.299 155.685Z" fill="#F19240"/>
<path d="M179.436 126.427C183.721 124.728 188.59 123.779 193.127 123.001C214.532 119.331 239.247 121.176 259.308 129.843C267.907 133.558 277.657 139.36 281.278 148.424C282.864 152.394 282.587 155.92 282.438 160.104C276.41 172.671 264.809 178.523 252.273 182.961C244.105 185.516 235.998 187.425 227.463 188.251C224.386 188.549 221.307 188.552 218.236 188.795C214.304 188.989 210.279 188.698 206.359 188.382C191.224 187.161 174.937 183.783 161.99 175.448C156.758 172.08 151.356 167.069 149.393 160.977C148.838 159.252 148.683 157.45 148.299 155.685C148.425 154.159 148.634 152.673 149.046 151.197C149.284 150.144 149.687 149.114 150.108 148.122C154.5 137.787 165.287 131.894 175.189 127.844L179.436 126.427Z" fill="#FDDF94"/>
<path d="M166.618 154.98C166.675 150.839 168.682 147.167 171.602 144.303C182.519 133.595 203.579 130.644 218.26 130.886C231.657 131.106 250.763 135.011 260.361 144.974C263.428 148.158 265.17 151.928 265.034 156.392C264.993 157.746 264.795 158.938 264.379 160.227C264.333 159.981 264.353 159.661 264.349 159.406C264.317 157.745 264.032 156.117 263.489 154.544C261.485 148.74 256.205 144.894 250.899 142.295C232.548 133.305 207.235 132.938 188.066 139.452C180.524 142.015 170.893 146.174 167.222 153.749L166.618 154.98Z" fill="#F19240"/>
<path d="M166.618 154.98L167.222 153.75C170.893 146.175 180.524 142.015 188.066 139.452C207.235 132.938 232.548 133.305 250.899 142.295C256.205 144.895 261.485 148.74 263.489 154.544C264.032 156.117 264.317 157.745 264.349 159.407C264.353 159.661 264.333 159.981 264.379 160.227C264.008 162.462 261.968 164.736 260.469 166.331C251.278 176.108 231.679 179.474 218.746 179.901C204.077 180.387 183.271 177.049 172.3 166.649C169.035 163.553 166.72 159.562 166.618 154.98Z" fill="#FCD152"/>
<path d="M227.098 165.967C227.495 165.275 227.88 164.788 228.649 164.505C230.692 163.752 232.438 164.532 234.267 165.353C233.248 166.461 232.179 167.388 230.573 167.402C229.243 167.414 228.115 166.757 227.098 165.967Z" fill="#FCD152"/>
</svg>
