<svg width="30" height="30" viewBox="0 0 30 30" fill="none" xmlns="http://www.w3.org/2000/svg">
<path fill-rule="evenodd" clip-rule="evenodd" d="M0.87085 15.0002C0.87085 11.2529 2.35944 7.65912 5.00916 5.0094C7.65887 2.35969 11.2527 0.871094 14.9999 0.871094C18.7472 0.871094 22.341 2.35969 24.9907 5.0094C27.6404 7.65912 29.129 11.2529 29.129 15.0002C29.129 18.7474 27.6404 22.3412 24.9907 24.9909C22.341 27.6406 18.7472 29.1292 14.9999 29.1292C11.2527 29.1292 7.65887 27.6406 5.00916 24.9909C2.35944 22.3412 0.87085 18.7474 0.87085 15.0002ZM14.9999 2.89776C11.7902 2.89776 8.71187 4.17283 6.44223 6.44247C4.17259 8.71211 2.89752 11.7904 2.89752 15.0002C2.89752 18.2099 4.17259 21.2882 6.44223 23.5578C8.71187 25.8275 11.7902 27.1026 14.9999 27.1026C18.2097 27.1026 21.288 25.8275 23.5576 23.5578C25.8272 21.2882 27.1023 18.2099 27.1023 15.0002C27.1023 11.7904 25.8272 8.71211 23.5576 6.44247C21.288 4.17283 18.2097 2.89776 14.9999 2.89776ZM16.5999 21.4002C16.5999 21.8245 16.4313 22.2315 16.1313 22.5315C15.8312 22.8316 15.4243 23.0002 14.9999 23.0002C14.5756 23.0002 14.1686 22.8316 13.8685 22.5315C13.5685 22.2315 13.3999 21.8245 13.3999 21.4002C13.3999 20.9758 13.5685 20.5688 13.8685 20.2688C14.1686 19.9687 14.5756 19.8002 14.9999 19.8002C15.4243 19.8002 15.8312 19.9687 16.1313 20.2688C16.4313 20.5688 16.5999 20.9758 16.5999 21.4002ZM11.9066 12.3335C11.9066 10.8871 13.1546 9.50683 14.9999 9.50683C16.8452 9.50683 18.0932 10.8871 18.0932 12.3335C18.0932 13.381 17.5172 13.9164 16.5231 14.5202L16.1476 14.742C15.7299 14.9709 15.3279 15.2274 14.9444 15.51C14.4282 15.9111 13.8266 16.5618 13.8266 17.5602C13.8255 17.8713 13.948 18.1702 14.1672 18.3911C14.3865 18.6119 14.6845 18.7366 14.9956 18.7378C15.3068 18.7389 15.6057 18.6164 15.8266 18.3971C16.0474 18.1779 16.1721 17.8799 16.1732 17.5687C16.2315 17.487 16.3037 17.4162 16.3866 17.3596C16.6042 17.1911 16.8452 17.0524 17.1674 16.8647C17.3324 16.7694 17.5244 16.6563 17.7434 16.5255C18.8826 15.8322 20.4399 14.6887 20.4399 12.3335C20.4399 9.51323 18.0612 7.16016 14.9999 7.16016C11.9386 7.16016 9.55992 9.51323 9.55992 12.3335C9.55992 12.6447 9.68353 12.9431 9.90358 13.1632C10.1236 13.3832 10.4221 13.5068 10.7332 13.5068C11.0444 13.5068 11.3429 13.3832 11.5629 13.1632C11.783 12.9431 11.9066 12.6447 11.9066 12.3335Z" fill="#3F58B6"/>
</svg>
