<svg
  width="32"
  height="38"
  viewBox="0 0 32 38"
  fill="none"
  xmlns="http://www.w3.org/2000/svg"
>
    <path
      d="M9.94342 0.769368C7.99661 1.28297 6.90966 3.23057 7.05951 5.27177C7.33845 9.07577 6.36216 11.3078 2.2403 13.2842H2.24145C2.13887 13.3334 2.03859 13.3874 1.94176 13.4462C1.94061 13.4474 1.93831 13.4486 1.93715 13.4498C1.54987 13.6826 1.20868 13.9802 0.926285 14.3258C0.922827 14.3306 0.919369 14.3354 0.915911 14.339C0.847905 14.4218 0.782204 14.5094 0.722267 14.5982C0.719961 14.603 0.716504 14.6054 0.714198 14.6102C0.589713 14.7926 0.480211 14.9858 0.385695 15.1886C0.384542 15.191 0.383389 15.1922 0.382237 15.1946C0.337283 15.2906 0.296941 15.389 0.261209 15.4886C0.256598 15.5006 0.25314 15.5114 0.24853 15.5234C0.212798 15.6194 0.182829 15.7178 0.155166 15.8174C0.150555 15.8318 0.147097 15.845 0.144792 15.8594C0.117128 15.959 0.0929228 16.061 0.0733278 16.1642C0.0710225 16.1738 0.0698699 16.181 0.0687173 16.1882C0.050275 16.2938 0.0341379 16.3982 0.0226114 16.505C0.0226114 16.5086 0.0214588 16.5146 0.0214588 16.5182C0.011085 16.6238 0.00532173 16.7282 0.0018638 16.835C0.0018638 16.8518 0.000711237 16.8662 0.000711237 16.8842C-0.00159405 16.9862 0.00186385 17.0894 0.00877971 17.1926C0.00877971 17.2118 0.011085 17.231 0.0122377 17.249C0.0191535 17.3546 0.03068 17.459 0.046817 17.561C0.0491223 17.5766 0.0514276 17.5922 0.0537329 17.6066C0.0710226 17.717 0.0917701 17.8262 0.119434 17.9366C0.145944 18.047 0.178218 18.1526 0.211645 18.2594C0.216256 18.2738 0.220866 18.287 0.225477 18.3014C0.258904 18.401 0.296941 18.4982 0.338436 18.593C0.345352 18.611 0.353421 18.6278 0.360336 18.6458C0.401832 18.7382 0.446785 18.8318 0.495196 18.9218C0.502112 18.935 0.51018 18.9494 0.518249 18.9626C0.568965 19.055 0.621987 19.145 0.680772 19.2314C0.683077 19.235 0.685382 19.2386 0.68884 19.2422C0.746472 19.331 0.808715 19.4162 0.874416 19.499C0.879026 19.505 0.883637 19.511 0.888248 19.5194C0.953948 19.5998 1.0208 19.6778 1.09111 19.7522C1.10033 19.7618 1.1084 19.7714 1.11762 19.7822C1.18794 19.8566 1.2594 19.9274 1.33547 19.9946C1.34469 20.0018 1.35276 20.009 1.36198 20.0186C1.44036 20.087 1.52105 20.1542 1.60289 20.2166C1.60519 20.2178 1.6075 20.219 1.6098 20.2214C1.78385 20.3522 1.96943 20.465 2.16192 20.5658C2.16538 20.5682 2.16999 20.5706 2.1746 20.573C2.26912 20.6222 2.36594 20.6654 2.46391 20.705C2.46852 20.7086 2.47429 20.7098 2.4789 20.711C2.88578 20.8754 3.32148 20.969 3.76871 20.9834H3.77562C3.88743 20.9858 4.00039 20.9846 4.11335 20.9774C7.37994 20.8358 9.6299 21.659 10.9935 23.537C11.337 24.0446 11.6436 24.6206 11.9041 25.2734C11.9098 25.2878 11.9168 25.301 11.9214 25.3154C12.5818 27.077 14.0549 28.3166 15.7597 28.2842C16.0363 28.2794 16.3187 28.2446 16.6069 28.1702C18.035 27.7922 19.0758 26.6366 19.4147 25.2494C19.4239 25.2086 19.4297 25.1666 19.4389 25.1246C19.4574 25.0382 19.4758 24.953 19.4896 24.8666C19.5081 24.7418 19.5208 24.6158 19.5277 24.4874C19.5277 24.4826 19.5288 24.4778 19.5288 24.4742C19.5484 24.1106 19.515 23.7398 19.4355 23.3702C19.4274 23.3354 19.4239 23.3018 19.4147 23.267C18.9225 21.2378 17.0426 20.0222 15.09 20.2622C15.0738 20.2646 15.0589 20.2646 15.0427 20.2658C14.0814 20.3402 13.2342 20.2814 12.4562 20.1662C9.94458 19.7954 8.26633 18.0842 7.72228 15.9902C6.93502 12.9674 8.45075 10.0766 11.873 8.59457C13.8394 7.74257 15.1787 5.84897 14.6543 3.69617C14.2105 1.86737 12.6314 0.649368 10.8978 0.648168C10.5831 0.644568 10.2627 0.685368 9.94342 0.769368Z"
      fill="url(#paint0_radial_2033_51132)"
    />
    <path
      d="M16.241 9.71645C15.9655 9.72005 15.682 9.75485 15.3938 9.83045C13.9657 10.2072 12.926 11.3628 12.586 12.7512C12.5756 12.792 12.5698 12.834 12.5617 12.876C12.5433 12.9624 12.5237 13.0476 12.511 13.134C12.4926 13.2588 12.4799 13.386 12.4741 13.5132C12.473 13.5192 12.4718 13.5228 12.4718 13.5264C12.4534 13.89 12.4857 14.2608 12.5664 14.6316C12.5744 14.6664 12.5779 14.7012 12.5871 14.7348C13.0793 16.7616 14.9581 17.9796 16.9118 17.7396C16.928 17.7372 16.9429 17.7372 16.9591 17.7348C17.9204 17.6604 18.7676 17.7204 19.5468 17.8344C22.0584 18.2052 23.7355 19.9177 24.2795 22.0117C25.0668 25.0344 23.5511 27.9252 20.1289 29.406C18.1624 30.258 16.8242 32.1516 17.3475 34.3032C17.8731 36.4656 19.9825 37.7748 22.0595 37.2276C24.0064 36.7141 25.0933 34.7664 24.9435 32.724C24.6645 28.9212 25.6408 26.688 29.7615 24.7116C29.8641 24.6624 29.9644 24.6084 30.0612 24.5496C30.0635 24.5484 30.0647 24.5472 30.0658 24.5472C30.4531 24.3144 30.7931 24.0156 31.0755 23.67C31.079 23.6664 31.0824 23.6616 31.0859 23.6568C31.1539 23.5716 31.2185 23.4864 31.2795 23.3976C31.2818 23.3916 31.2853 23.3892 31.2865 23.3844C31.4109 23.202 31.5216 23.01 31.615 22.806C31.6161 22.8048 31.6173 22.8025 31.6173 22.8013C31.6622 22.7041 31.7026 22.6044 31.7394 22.506C31.7429 22.494 31.7475 22.4832 31.751 22.4724C31.7867 22.3764 31.8178 22.2781 31.8455 22.1784C31.8501 22.1652 31.8524 22.1508 31.8559 22.1388C31.8835 22.0368 31.9077 21.936 31.9273 21.8328C31.9285 21.8244 31.9296 21.816 31.9319 21.8076C31.9515 21.7044 31.9665 21.5988 31.978 21.492C31.978 21.4884 31.9792 21.4824 31.9792 21.4788C31.9907 21.3733 31.9953 21.2677 31.9988 21.1609C31.9988 21.1441 31.9999 21.1297 31.9999 21.1117C32.0023 21.0097 31.9988 20.9065 31.993 20.8033C31.993 20.784 31.9907 20.766 31.9896 20.748C31.9827 20.6424 31.97 20.5381 31.955 20.4349C31.9527 20.4193 31.9492 20.4036 31.9481 20.3892C31.9308 20.2788 31.91 20.1696 31.8824 20.0592C31.8547 19.9488 31.8236 19.8433 31.789 19.7365C31.7844 19.7233 31.7798 19.7077 31.7752 19.6945C31.7418 19.5949 31.7026 19.4964 31.6622 19.4016C31.6553 19.3848 31.6484 19.3668 31.6403 19.35C31.5988 19.2564 31.5539 19.164 31.5055 19.074C31.4985 19.0608 31.4905 19.0464 31.4824 19.032C31.4305 18.9408 31.3787 18.8496 31.3199 18.7632C31.3176 18.7584 31.3153 18.7548 31.3118 18.7512C31.2542 18.6624 31.1919 18.5772 31.1262 18.4944C31.1205 18.4884 31.117 18.4812 31.1124 18.4752C31.0467 18.3948 30.9787 18.3156 30.9095 18.2413C30.9003 18.2317 30.8911 18.2208 30.8819 18.2125C30.8116 18.1381 30.7401 18.0673 30.664 18C30.6548 17.9916 30.6467 17.9844 30.6375 17.976C30.5591 17.9064 30.4785 17.8404 30.3955 17.778C30.3932 17.7756 30.3909 17.7744 30.3897 17.7732C30.2145 17.6424 30.0301 17.5272 29.8376 17.4276C29.8341 17.4252 29.8295 17.4229 29.8249 17.4205C29.7304 17.3725 29.6336 17.328 29.5356 17.2884C29.5298 17.2848 29.5252 17.2837 29.5195 17.2825C29.1137 17.1181 28.678 17.0244 28.2308 17.0112H28.2239C28.1121 17.0076 28.0003 17.01 27.8873 17.0172C24.6196 17.1612 22.3708 16.3356 21.006 14.4588C20.6637 13.9512 20.3571 13.374 20.0954 12.7213C20.0897 12.7081 20.0828 12.6937 20.077 12.6793C19.4257 10.9393 17.9803 9.71045 16.3021 9.71045C16.2836 9.71645 16.2617 9.71645 16.241 9.71645Z"
      fill="url(#paint1_radial_2033_51132)"
    />
    <defs>
  <radialGradient
    id="paint0_radial_2033_51132"
    cx="0"
    cy="0"
    r="1"
    gradientUnits="userSpaceOnUse"
    gradientTransform="translate(29.3966 40.8254) scale(1.15149 1.1988)"
  >
      <stop stop-color="#00D0FE" />
      <stop offset="0.691" stop-color="#0093E9" />
      <stop offset="1" stop-color="#0077B2" />
  </radialGradient>
  <radialGradient
    id="paint1_radial_2033_51132"
    cx="0"
    cy="0"
    r="1"
    gradientUnits="userSpaceOnUse"
    gradientTransform="translate(29.4872 40.8145) scale(1.15149 1.1988)"
  >
      <stop stop-color="#F79606" />
      <stop offset="1" stop-color="#F96603" />
  </radialGradient>
    </defs>
</svg>
