<svg width="16" height="16" viewBox="0 0 16 16" fill="none" xmlns="http://www.w3.org/2000/svg">
<path fill-rule="evenodd" clip-rule="evenodd" d="M5.86665 3.20002C5.4423 3.20002 5.03534 3.36859 4.73528 3.66865C4.43522 3.96871 4.26665 4.37567 4.26665 4.80002C4.26665 5.22437 4.43522 5.63133 4.73528 5.93139C5.03534 6.23145 5.4423 6.40002 5.86665 6.40002C6.291 6.40002 6.69796 6.23145 6.99802 5.93139C7.29808 5.63133 7.46665 5.22437 7.46665 4.80002C7.46665 4.37567 7.29808 3.96871 6.99802 3.66865C6.69796 3.36859 6.291 3.20002 5.86665 3.20002ZM3.19998 5.33335L3.25332 5.33122C3.37572 5.93404 3.70277 6.47601 4.17905 6.86529C4.65532 7.25457 5.25153 7.46723 5.86665 7.46723C6.48177 7.46723 7.07798 7.25457 7.55425 6.86529C8.03053 6.47601 8.35757 5.93404 8.47998 5.33122L8.53332 5.33335H14.4C14.5414 5.33335 14.6771 5.27716 14.7771 5.17714C14.8771 5.07712 14.9333 4.94147 14.9333 4.80002C14.9333 4.65857 14.8771 4.52292 14.7771 4.4229C14.6771 4.32288 14.5414 4.26669 14.4 4.26669H8.53332L8.47998 4.26882C8.35757 3.666 8.03053 3.12403 7.55425 2.73475C7.07798 2.34547 6.48177 2.13281 5.86665 2.13281C5.25153 2.13281 4.65532 2.34547 4.17905 2.73475C3.70277 3.12403 3.37572 3.666 3.25332 4.26882L3.19998 4.26669H1.59998C1.45853 4.26669 1.32288 4.32288 1.22286 4.4229C1.12284 4.52292 1.06665 4.65857 1.06665 4.80002C1.06665 4.94147 1.12284 5.07712 1.22286 5.17714C1.32288 5.27716 1.45853 5.33335 1.59998 5.33335H3.19998ZM12.7466 11.7312C12.6242 12.334 12.2972 12.876 11.8209 13.2653C11.3446 13.6546 10.7484 13.8672 10.1333 13.8672C9.51819 13.8672 8.92199 13.6546 8.44571 13.2653C7.96944 12.876 7.64239 12.334 7.51998 11.7312L7.46665 11.7334H1.59998C1.45853 11.7334 1.32288 11.6772 1.22286 11.5771C1.12284 11.4771 1.06665 11.3415 1.06665 11.2C1.06665 11.0586 1.12284 10.9229 1.22286 10.8229C1.32288 10.7229 1.45853 10.6667 1.59998 10.6667H7.46665L7.51998 10.6688C7.64239 10.066 7.96944 9.52403 8.44571 9.13475C8.92199 8.74547 9.51819 8.53281 10.1333 8.53281C10.7484 8.53281 11.3446 8.74547 11.8209 9.13475C12.2972 9.52403 12.6242 10.066 12.7466 10.6688L12.8 10.6667H14.4C14.5414 10.6667 14.6771 10.7229 14.7771 10.8229C14.8771 10.9229 14.9333 11.0586 14.9333 11.2C14.9333 11.3415 14.8771 11.4771 14.7771 11.5771C14.6771 11.6772 14.5414 11.7334 14.4 11.7334H12.8L12.7466 11.7312ZM8.53332 11.2C8.53332 10.7757 8.70189 10.3687 9.00195 10.0686C9.302 9.76859 9.70897 9.60002 10.1333 9.60002C10.5577 9.60002 10.9646 9.76859 11.2647 10.0686C11.5647 10.3687 11.7333 10.7757 11.7333 11.2C11.7333 11.6244 11.5647 12.0313 11.2647 12.3314C10.9646 12.6314 10.5577 12.8 10.1333 12.8C9.70897 12.8 9.302 12.6314 9.00195 12.3314C8.70189 12.0313 8.53332 11.6244 8.53332 11.2Z" fill="currentColor"/>
</svg>
