<svg width="12" height="14" viewBox="0 0 12 14" fill="none" xmlns="http://www.w3.org/2000/svg">
<path d="M5.99984 2.33333H11.3332M5.99984 7H11.3332M5.99984 11.6667H11.3332M3.33317 2.33333C3.33317 3.06971 2.73622 3.66667 1.99984 3.66667C1.26346 3.66667 0.666504 3.06971 0.666504 2.33333C0.666504 1.59695 1.26346 1 1.99984 1C2.73622 1 3.33317 1.59695 3.33317 2.33333ZM3.33317 7C3.33317 7.73638 2.73622 8.33333 1.99984 8.33333C1.26346 8.33333 0.666504 7.73638 0.666504 7C0.666504 6.26362 1.26346 5.66667 1.99984 5.66667C2.73622 5.66667 3.33317 6.26362 3.33317 7ZM3.33317 11.6667C3.33317 12.403 2.73622 13 1.99984 13C1.26346 13 0.666504 12.403 0.666504 11.6667C0.666504 10.9303 1.26346 10.3333 1.99984 10.3333C2.73622 10.3333 3.33317 10.9303 3.33317 11.6667Z" stroke="#3F58B6" stroke-linecap="round" stroke-linejoin="round"/>
</svg>
