<svg width="518" height="320" viewBox="0 0 518 320" fill="none" xmlns="http://www.w3.org/2000/svg">
<path d="M61.4619 319.177H397.276C475.465 255.391 506.545 161.238 391.477 123.153C239.291 72.7817 272.141 8.5938 169.618 7.12974C62.4391 5.59959 -4.56552 129.607 20.2016 234.562C27.485 265.425 40.8959 294.788 61.4619 319.177Z" fill="#FCFCFC"/>
<path d="M500.54 296.052H351.064V319.179H500.54V296.052Z" fill="#FEDC7B"/>
<path d="M508.212 265.484H343.402V296.06H508.212V265.484Z" fill="#7CA3DE"/>
<path d="M487.531 222.828H358.968V250.472H487.531V222.828Z" fill="#CADAF3"/>
<path d="M476.555 229.969H427.905V243.328H476.555V229.969Z" fill="#7CA3DE"/>
<path d="M483.416 267.824V293.707H494.416V267.824H483.416Z" fill="#FCFCFC"/>
<path d="M477.452 267.824V293.707H480.435V267.824H477.452Z" fill="#FCFCFC"/>
<path d="M354.214 267.824V293.707H357.197V267.824H354.214Z" fill="#FCFCFC"/>
<path d="M498.097 266.3H353.515V249.645H498.097L498.097 266.3ZM355.162 264.653H496.45V251.292H355.162V264.653Z" fill="#324076"/>
<path d="M386.719 0H290.166C287.588 0 285.498 2.09003 285.498 4.66807V50.0627V68.2358L299.692 50.0627H386.719C389.297 50.0627 391.388 47.9727 391.388 45.3942V4.66807C391.388 2.09003 389.297 0 386.719 0Z" fill="#ADADAD"/>
<path d="M40.5588 319.179H80.3147L92.6081 227.46H28.2654L40.5588 319.179Z" fill="#7CA3DE"/>
<path d="M60.4366 220.835C43.9527 220.835 30.3485 223.723 28.2654 227.462C30.3485 231.201 43.9527 234.089 60.4366 234.089C76.9205 234.089 90.5247 231.201 92.6078 227.462C90.5247 223.723 76.9209 220.835 60.4366 220.835Z" fill="#324076"/>
<path d="M71.365 144.923V233.645C67.9504 233.936 64.2726 234.09 60.4353 234.09C56.598 234.09 52.9202 233.936 49.5056 233.645V144.923H71.365Z" fill="#C8C8C8"/>
<path d="M50.8359 233.742C43.9191 233.243 37.9903 232.205 33.9063 230.849L33.0828 224.344L28.2629 186.252L44.5666 184.188L49.26 221.292L50.8359 233.742Z" fill="#FEDC7B"/>
<path d="M44.5679 184.193L28.2654 186.256L34.2715 168.27L44.5679 184.193Z" fill="#F3C99F"/>
<path d="M31.6865 176.005L34.2696 168.27L38.6979 175.118L31.6865 176.005Z" fill="#121521"/>
<path d="M71.3644 145.608H60.2222C59.8433 145.608 59.5359 145.301 59.5359 144.922C59.5359 144.543 59.8429 144.236 60.2222 144.236H71.3644C71.7433 144.236 72.0507 144.543 72.0507 144.922C72.0507 145.301 71.7437 145.608 71.3644 145.608Z" fill="#324076"/>
<path d="M71.3687 153.868H65.7976C65.4187 153.868 65.1113 153.561 65.1113 153.182C65.1113 152.803 65.4183 152.496 65.7976 152.496H71.3687C71.7476 152.496 72.055 152.803 72.055 153.182C72.055 153.561 71.748 153.868 71.3687 153.868Z" fill="#324076"/>
<path d="M71.3644 162.129H60.2222C59.8433 162.129 59.5359 161.822 59.5359 161.443C59.5359 161.064 59.8429 160.756 60.2222 160.756H71.3644C71.7433 160.756 72.0507 161.063 72.0507 161.443C72.0507 161.822 71.7437 162.129 71.3644 162.129Z" fill="#324076"/>
<path d="M71.3687 170.391H65.7976C65.4187 170.391 65.1113 170.084 65.1113 169.704C65.1113 169.325 65.4183 169.018 65.7976 169.018H71.3687C71.7476 169.018 72.055 169.325 72.055 169.704C72.055 170.084 71.748 170.391 71.3687 170.391Z" fill="#324076"/>
<path d="M71.3644 178.652H60.2222C59.8433 178.652 59.5359 178.345 59.5359 177.966C59.5359 177.587 59.8429 177.28 60.2222 177.28H71.3644C71.7433 177.28 72.0507 177.587 72.0507 177.966C72.0507 178.345 71.7437 178.652 71.3644 178.652Z" fill="#324076"/>
<path d="M71.3687 186.914H65.7976C65.4187 186.914 65.1113 186.607 65.1113 186.228C65.1113 185.849 65.4183 185.542 65.7976 185.542H71.3687C71.7476 185.542 72.055 185.849 72.055 186.228C72.055 186.607 71.748 186.914 71.3687 186.914Z" fill="#324076"/>
<path d="M71.3644 195.177H60.2222C59.8433 195.177 59.5359 194.87 59.5359 194.491C59.5359 194.112 59.8429 193.804 60.2222 193.804H71.3644C71.7433 193.804 72.0507 194.111 72.0507 194.491C72.0507 194.869 71.7437 195.177 71.3644 195.177Z" fill="#324076"/>
<path d="M71.3687 203.439H65.7976C65.4187 203.439 65.1113 203.131 65.1113 202.752C65.1113 202.373 65.4183 202.066 65.7976 202.066H71.3687C71.7476 202.066 72.055 202.373 72.055 202.752C72.055 203.131 71.748 203.439 71.3687 203.439Z" fill="#324076"/>
<path d="M71.3644 211.691H60.2222C59.8433 211.691 59.5359 211.384 59.5359 211.005C59.5359 210.626 59.8429 210.319 60.2222 210.319H71.3644C71.7433 210.319 72.0507 210.626 72.0507 211.005C72.0507 211.384 71.7437 211.691 71.3644 211.691Z" fill="#324076"/>
<path d="M71.3687 219.951H65.7976C65.4187 219.951 65.1113 219.644 65.1113 219.265C65.1113 218.886 65.4183 218.579 65.7976 218.579H71.3687C71.7476 218.579 72.055 218.886 72.055 219.265C72.055 219.644 71.748 219.951 71.3687 219.951Z" fill="#324076"/>
<path d="M71.3644 228.211H60.2222C59.8433 228.211 59.5359 227.904 59.5359 227.525C59.5359 227.145 59.8429 226.838 60.2222 226.838H71.3644C71.7433 226.838 72.0507 227.145 72.0507 227.525C72.0507 227.904 71.7437 228.211 71.3644 228.211Z" fill="#324076"/>
<path d="M39.0924 184.885L43.7751 221.917L45.2022 233.198C45.6634 233.259 46.1299 233.308 46.6075 233.363L45.1361 221.731L40.4535 184.715C40.4097 184.336 40.0638 184.072 39.6903 184.122C39.3122 184.166 39.0486 184.512 39.0924 184.885Z" fill="#324076"/>
<path d="M32.3732 185.738L37.1051 223.154L38.2306 232.02C38.6917 232.124 39.164 232.223 39.647 232.322L38.4504 222.852L33.7347 185.567C33.6909 185.188 33.3451 184.919 32.9715 184.969C32.5927 185.018 32.329 185.364 32.3732 185.738Z" fill="#324076"/>
<path d="M60.4331 235.185C48.8748 235.185 38.3543 233.786 32.2914 231.442C31.7257 231.223 31.4444 230.587 31.6635 230.022C31.8821 229.456 32.5177 229.176 33.0833 229.394C38.8204 231.612 49.3002 232.99 60.4331 232.99C61.0395 232.99 61.531 233.481 61.531 234.088C61.531 234.694 61.0391 235.185 60.4331 235.185Z" fill="#FCFCFC"/>
<path d="M378.48 16.9457H298.4C297.794 16.9457 297.302 16.4542 297.302 15.8479C297.302 15.2415 297.794 14.75 298.4 14.75H378.48C379.087 14.75 379.578 15.2415 379.578 15.8479C379.578 16.4542 379.087 16.9457 378.48 16.9457Z" fill="#FCFCFC"/>
<path d="M378.481 26.1093H298.401C297.794 26.1093 297.303 25.6178 297.303 25.0114C297.303 24.4051 297.794 23.9136 298.401 23.9136H378.481C379.087 23.9136 379.578 24.4051 379.578 25.0114C379.578 25.6178 379.087 26.1093 378.481 26.1093Z" fill="#FCFCFC"/>
<path d="M378.481 36.2714H298.401C297.794 36.2714 297.303 35.7799 297.303 35.1735C297.303 34.5672 297.794 34.0757 298.401 34.0757H378.481C379.087 34.0757 379.578 34.5672 379.578 35.1735C379.578 35.7799 379.087 36.2714 378.481 36.2714Z" fill="#FCFCFC"/>
<path d="M517.14 319.996H0.823485C0.368898 319.996 0 319.627 0 319.173C0 318.718 0.368514 318.349 0.823485 318.349H517.14C517.595 318.349 517.964 318.718 517.964 319.173C517.964 319.628 517.595 319.996 517.14 319.996Z" fill="#324076"/>
<path d="M80.1987 46.6968H41.4104V85.4851H80.1987V46.6968Z" fill="#FEE6A3"/>
<path d="M129.961 21.002H91.1731V59.7902H129.961V21.002Z" fill="#FEE6A3"/>
<path d="M382.049 257.974H119.903C114.746 257.974 110.566 253.794 110.566 248.638V85.7799C110.566 80.6234 114.746 76.4434 119.903 76.4434H382.049C387.206 76.4434 391.386 80.6234 391.386 85.7799V248.638C391.386 253.794 387.206 257.974 382.049 257.974Z" fill="#121521"/>
<path d="M382.049 253.306H119.903C117.325 253.306 115.235 251.216 115.235 248.638V85.7799C115.235 83.2018 117.325 81.1118 119.903 81.1118H382.049C384.627 81.1118 386.717 83.2018 386.717 85.7799V248.638C386.718 251.216 384.628 253.306 382.049 253.306Z" fill="#CADAF3"/>
<path d="M221.705 308.491H280.246V257.974H221.705V308.491Z" fill="#C8C8C8"/>
<path d="M325.847 308.486H176.101C173.523 308.486 171.433 310.576 171.433 313.154V319.175H330.515V313.154C330.515 310.576 328.425 308.486 325.847 308.486Z" fill="#C8C8C8"/>
<path d="M171.437 320C170.982 320 170.613 319.631 170.613 319.177V313.156C170.613 310.128 173.077 307.664 176.105 307.664H325.85C326.305 307.664 326.673 308.033 326.673 308.488C326.673 308.943 326.305 309.311 325.85 309.311H176.105C173.985 309.311 172.26 311.036 172.26 313.156V319.176C172.26 319.632 171.891 320 171.437 320Z" fill="#324076"/>
<path d="M359.148 96.1744C358.603 100.866 357.135 108.907 353.283 113.564C352.715 114.25 351.883 115.806 351.486 117.329C350.506 121.088 349.836 123.975 349.211 126.695C344.13 125.547 330.232 122.409 327.963 121.896C329.636 117.974 331.186 114.327 334.886 105.654C335.181 99.4525 335.402 91.3706 336.355 87.151C337.291 83.0075 341.317 72.7118 344.853 65.345C346.974 60.9248 348.662 57.428 350.119 57.3142C353.54 57.0472 350.888 65.5725 349.378 71.3181C351.528 69.5777 353.882 69.814 353.313 74.5459C355.585 71.4253 358.61 72.6764 358.431 77.3595C360.78 75.6207 362.576 75.8278 362.841 80.6265C363.305 89.0282 359.397 94.0267 359.148 96.1744Z" fill="#EEBCB3"/>
<path d="M352.337 91.5558C352.217 91.5558 352.096 91.5419 351.972 91.5143C351.51 91.4105 351.152 91.1546 350.909 90.7538C350.013 89.2747 350.737 85.746 352.697 78.3961C352.767 78.1329 353.038 77.9758 353.302 78.0461C353.565 78.1164 353.722 78.3869 353.652 78.6509C352.16 84.2435 350.987 88.9762 351.754 90.2419C351.857 90.411 351.99 90.5063 352.188 90.5505C352.234 90.5609 352.281 90.5659 352.328 90.5659C353.704 90.5663 355.341 86.2137 356.666 82.6938C356.911 82.0428 357.157 81.3884 357.405 80.7463C357.503 80.4916 357.79 80.3651 358.044 80.4635C358.299 80.5619 358.425 80.8478 358.327 81.1025C358.08 81.742 357.835 82.3933 357.591 83.0419C355.879 87.5917 354.387 91.5554 352.337 91.5558Z" fill="#324076"/>
<path d="M341.647 104.892C341.486 104.892 341.328 104.813 341.233 104.668C341.084 104.44 341.148 104.134 341.376 103.984C347.166 100.191 346.821 92.9887 345.013 90.192L344.871 89.9718L344.973 89.7309C345.093 89.4485 345.289 89.0154 345.538 88.467C347.032 85.1789 351.578 75.1722 350.006 72.6641C349.801 72.3363 349.49 72.1787 349.029 72.1672C349.022 72.1672 349.015 72.1672 349.008 72.1672C347.715 72.1672 346.099 75.0961 344.536 77.9297C343.146 80.4508 341.569 83.3086 339.724 85.1958C339.533 85.3906 339.22 85.3944 339.025 85.2038C338.83 85.0129 338.827 84.7001 339.017 84.5052C340.768 82.7142 342.311 79.9186 343.671 77.4528C345.618 73.9221 347.152 71.1285 349.053 71.1804C349.843 71.2 350.462 71.532 350.843 72.1403C352.477 74.7472 349.533 82.0636 346.438 88.8767C346.254 89.2828 346.098 89.6252 345.983 89.885C347.044 91.6906 347.439 94.3644 347.013 96.9455C346.473 100.219 344.664 103.013 341.917 104.812C341.834 104.866 341.74 104.892 341.647 104.892Z" fill="#324076"/>
<path d="M357.725 95.4547C357.492 95.4547 357.263 95.4063 357.043 95.3071C355.274 94.509 354.306 90.2233 357.397 80.7711C357.482 80.5113 357.761 80.3699 358.02 80.4548C358.279 80.5398 358.421 80.8187 358.336 81.0781C355.486 89.7933 356.28 93.8784 357.45 94.4064C358.03 94.6689 358.867 94.0525 359.582 92.8374C359.72 92.6023 360.023 92.5239 360.258 92.6618C360.493 92.8002 360.572 93.103 360.434 93.3381C359.633 94.6992 358.644 95.4547 357.725 95.4547Z" fill="#324076"/>
<path d="M347.515 89.3155C346.795 89.3155 346.171 89.068 345.811 88.789C345.595 88.6218 345.556 88.3118 345.723 88.0958C345.89 87.8798 346.2 87.8406 346.416 88.0074C346.787 88.2945 347.882 88.6284 348.9 87.8272C349.568 87.3004 349.97 86.0223 350.525 84.2535C351.024 82.6665 351.644 80.6914 352.723 78.3189C352.836 78.0707 353.129 77.9608 353.378 78.0737C353.626 78.1867 353.736 78.4795 353.623 78.7281C352.569 81.0457 351.959 82.9885 351.468 84.5498C350.837 86.5599 350.42 87.8879 349.511 88.6034C348.847 89.1264 348.144 89.3155 347.515 89.3155Z" fill="#324076"/>
<path d="M258.869 104.402C263.694 121.254 256.632 125.292 249.837 125.292C234.446 125.292 223.949 107.749 225.777 88.7779C226.882 77.3107 233.283 67.6294 229.706 59.1075C225.975 50.2179 227.54 33.4819 237.065 33.4819C246.75 33.4819 250.977 43.1017 252.298 50.3881C253.792 58.6295 259.834 62.2286 260.805 71.6039C261.852 81.694 254.225 88.185 258.869 104.402Z" fill="#324076"/>
<path d="M324.039 182.053C332.09 197.884 328.333 206.411 324.207 208.65C319.443 211.235 309.898 212.751 299.969 200.997C275.172 171.641 236.814 121.853 239.176 102.194C241.358 84.0251 257.839 90.8923 270.753 103.379C285.214 117.362 313.198 160.74 324.039 182.053Z" fill="#7CA3DE"/>
<path d="M297.999 198.657C292.196 191.735 285.768 183.824 279.345 175.513C277.397 163.052 278.428 149.641 282.392 148.834C286.943 147.912 287.343 161.372 291.823 175.404C294.381 183.429 297.905 192.959 297.999 198.657Z" fill="#324076"/>
<path d="M217.17 74.4504C217.58 86.0576 217.742 90.6676 218.093 100.591C218.602 115.016 207.206 124.817 198.242 122.37C187.879 119.541 179.356 101.62 181.674 88.5503C184.139 74.6521 198.602 68.9427 202.512 51.8832C206.428 34.7952 216.174 29.4869 224.821 28.4617C241.684 26.462 241.5 44.4146 236.479 50.431C230.82 57.2122 216.691 60.8735 217.17 74.4504Z" fill="#324076"/>
<path d="M331.265 108.812C322.888 130.439 309.347 164.806 303.226 182.455C298.291 196.684 307.042 207.428 312.175 209.488C316.62 211.272 329.723 211.95 334.888 195.319C339.794 179.52 354.442 138.388 358.569 118.949L331.265 108.812Z" fill="#7CA3DE"/>
<path d="M282.196 235.08C282.003 239.384 278.392 244.455 274.303 245.399C247.038 251.689 204.902 249.124 184.178 245.021C180.814 244.355 177.423 240.181 176.65 235.731C169.805 196.349 173.272 123.763 177.922 107.796C180.548 98.7781 185.916 94.6999 192.624 91.9516C211.972 84.0265 237.685 82.6312 256.53 92.9715C263.071 96.5605 266.461 103.481 270.761 111.895C275.049 120.284 280.873 135.369 282.693 151.139C284.251 164.635 280.423 179.68 281.065 193.377C281.838 209.878 282.648 225.002 282.196 235.08Z" fill="#7CA3DE"/>
<path d="M258.498 185.85C258.498 212.561 258.498 231.641 258.498 245.406C258.498 249.152 256.062 250.821 253.433 250.821C247.75 250.821 232.94 250.821 228.502 250.821C225.72 250.821 222.536 249.304 222.536 245.165C222.536 234.041 222.536 220.701 222.536 186.098C222.536 176.337 227.359 152.499 227.129 145.088C226.475 123.951 217.822 110.281 213.358 92.121C210.999 82.5205 230.935 84.7369 235.826 88.2926C243.968 94.2114 255.789 112.34 262.725 138.207C266.807 153.432 258.498 168.038 258.498 185.85Z" fill="#FCFCFC"/>
<path d="M185.05 190.528C185.745 209.909 181.591 236.818 177.813 236.818C174.035 236.818 173.072 198.833 172.173 177.282C171.275 155.732 186.943 147.981 191.503 151.523C195.741 154.815 184.278 168.977 185.05 190.528Z" fill="#324076"/>
<path d="M133.411 185.393C125.401 200.779 132.493 209.296 136.848 211.311C141.877 213.638 150.752 215.228 159.435 203.005C181.119 172.477 215.123 118.991 210.786 99.5218C207.011 82.576 183.987 92.1485 174.228 106.687C163.856 122.138 141.227 170.381 133.411 185.393Z" fill="#7CA3DE"/>
<path d="M234.257 107.234C242.127 107.234 238.536 95.7693 238.495 91.8736C238.439 86.5715 238.436 78.6448 238.249 75.6499C237.645 65.9883 214.014 60.7864 214.014 67.158C214.014 73.7143 213.963 85.5002 214.014 90.3296C214.064 95.1357 224.769 107.234 234.257 107.234Z" fill="#EEBCB3"/>
<path d="M238.471 89.128C222.87 89.4519 215.903 77.4132 217.902 64.4196C224.643 63.7552 237.796 68.4763 238.246 75.651C238.405 78.1598 238.433 84.1379 238.471 89.128Z" fill="#A14534"/>
<path d="M214.528 59.7778C213.769 69.3757 219.525 84.2679 231.703 84.0239C239.5 83.8679 245.503 77.6946 244.735 65.4546C244.092 55.1939 245.978 53.4124 244.323 48.7924C242.618 44.0325 237.094 38.0887 228.017 41.6085C220.759 44.4233 215.266 50.4528 214.528 59.7778Z" fill="#EEBCB3"/>
<path d="M227.761 52.5458C235.954 46.3733 240.484 38.5658 237.878 35.107C235.272 31.6483 226.518 33.8482 218.325 40.0206C210.132 46.193 205.602 54.0006 208.207 57.4594C210.813 60.9181 219.567 58.7182 227.761 52.5458Z" fill="#324076"/>
<path d="M209.067 63.5313C209.676 66.5554 212.199 68.599 214.704 68.0952C217.209 67.5914 218.746 64.7313 218.138 61.7071C217.53 58.683 215.006 56.6394 212.501 57.1432C209.997 57.647 208.459 60.5071 209.067 63.5313Z" fill="#EEBCB3"/>
<path d="M233.355 69.0053C233.313 69.0053 233.271 69.0049 233.228 69.0038C232.928 68.9965 232.691 68.7471 232.698 68.447C232.705 68.1473 232.957 67.9194 233.255 67.9171C234.131 67.9436 234.936 67.6696 235.401 67.197C235.715 66.8788 235.864 66.478 235.846 66.0053C235.801 64.8944 235.671 63.7562 235.533 62.5508C235.418 61.5502 235.3 60.5161 235.215 59.3833C235.113 58.0141 236.06 56.7641 237.748 56.0386C240.091 55.0318 243.526 55.1829 245.556 57.4201C245.758 57.6425 245.741 57.9861 245.519 58.1878C245.297 58.3892 244.953 58.3727 244.751 58.1505C243.081 56.3103 240.118 56.2035 238.177 57.0369C236.935 57.5707 236.233 58.4172 236.299 59.3022C236.382 60.4135 236.499 61.4372 236.613 62.427C236.754 63.6532 236.887 64.8114 236.932 65.9623C236.963 66.7358 236.701 67.4264 236.177 67.9597C235.518 68.6276 234.495 69.0053 233.355 69.0053Z" fill="#324076"/>
<path d="M221.156 59.3575C221.038 59.3575 220.919 59.319 220.819 59.2395C220.584 59.0531 220.544 58.7111 220.731 58.4759C222.771 55.9037 227.888 54.6679 231.181 56.9904C231.427 57.1633 231.485 57.5022 231.312 57.7478C231.139 57.9929 230.8 58.0517 230.555 57.8784C227.805 55.9386 223.323 56.9569 221.582 59.1511C221.475 59.2871 221.316 59.3575 221.156 59.3575Z" fill="#324076"/>
<path d="M236.559 72.6992C236.502 74.1464 234.411 75.2726 231.99 75.1289C229.569 74.9852 227.271 73.5123 227.329 72.0652C227.356 71.3916 230.032 71.2763 232.453 71.4196C234.874 71.5637 236.587 72.0006 236.559 72.6992Z" fill="#FCFCFC"/>
<path d="M232.208 74.8901C231.732 74.8901 231.252 74.8428 230.772 74.7475C228.936 74.3825 227.37 73.3399 226.476 71.887C226.319 71.6315 226.398 71.2968 226.654 71.1392C226.909 70.9821 227.244 71.0616 227.402 71.3172C228.138 72.5134 229.444 73.3749 230.985 73.6812C232.69 74.0205 234.41 73.6412 235.829 72.6141C236.073 72.4381 236.412 72.4926 236.588 72.7355C236.764 72.9783 236.71 73.3184 236.467 73.4944C235.198 74.4128 233.724 74.8901 232.208 74.8901Z" fill="#324076"/>
<path d="M223.592 61.4946C223.495 61.4946 223.397 61.4689 223.308 61.4147C223.053 61.2579 222.972 60.9236 223.129 60.6673C224.136 59.0207 225.42 58.5227 226.32 58.3947C227.908 58.1699 229.354 58.895 230.111 59.5856C230.333 59.7877 230.349 60.1316 230.146 60.3533C229.944 60.5751 229.6 60.5908 229.379 60.3887C228.751 59.8157 227.61 59.3097 226.473 59.4711C225.501 59.609 224.687 60.2027 224.056 61.2348C223.953 61.402 223.775 61.4946 223.592 61.4946Z" fill="#324076"/>
<path d="M228.217 60.6457C228.214 61.5706 227.602 62.3173 226.851 62.313C226.1 62.3088 225.494 61.5557 225.497 60.6307C225.501 59.7058 226.112 58.9592 226.864 58.9634C227.614 58.9672 228.221 59.7204 228.217 60.6457Z" fill="#324076"/>
<path d="M237.635 61.216C237.538 61.216 237.44 61.1902 237.351 61.1361C237.096 60.9793 237.015 60.645 237.172 60.3887C238.179 58.7421 239.464 58.2441 240.364 58.1161C241.95 57.889 243.397 58.6164 244.154 59.3066C244.376 59.5087 244.392 59.8526 244.19 60.0743C243.987 60.2957 243.644 60.3118 243.422 60.1097C242.794 59.5367 241.652 59.0322 240.517 59.192C239.544 59.33 238.731 59.9237 238.099 60.9558C237.997 61.1238 237.818 61.216 237.635 61.216Z" fill="#324076"/>
<path d="M242.26 60.3723C242.257 61.2972 241.645 62.0438 240.894 62.0396C240.142 62.0354 239.536 61.2822 239.54 60.3573C239.543 59.4324 240.155 58.6857 240.906 58.69C241.657 58.6942 242.264 59.4473 242.26 60.3723Z" fill="#324076"/>
<path d="M382.05 253.303H119.903C117.325 253.303 115.235 251.213 115.235 248.635V227.169H386.718V248.635C386.718 251.213 384.628 253.303 382.05 253.303Z" fill="#384995"/>
<path d="M366.449 246.107H364.025C363.587 246.107 363.231 245.752 363.231 245.314V235.155C363.231 234.717 363.587 234.362 364.025 234.362H366.449C366.887 234.362 367.242 234.717 367.242 235.155V245.314C367.242 245.752 366.887 246.107 366.449 246.107Z" fill="#FCFCFC"/>
<path d="M372.855 246.107H370.431C369.993 246.107 369.638 245.752 369.638 245.314V235.155C369.638 234.717 369.993 234.362 370.431 234.362H372.855C373.293 234.362 373.649 234.717 373.649 235.155V245.314C373.649 245.752 373.293 246.107 372.855 246.107Z" fill="#FCFCFC"/>
<path d="M354.587 241.08L344.858 246.696C344.211 247.07 343.402 246.603 343.402 245.856V234.622C343.402 233.875 344.211 233.408 344.858 233.782L354.587 239.399C355.234 239.772 355.234 240.706 354.587 241.08Z" fill="#FCFCFC"/>
<path d="M214.308 189.63L208.445 213.395C228.773 213.422 264.606 213.358 266.919 203.984C269.396 193.944 256.753 184.071 245.667 188.396C238.784 191.082 224.586 189.187 214.308 189.63Z" fill="#EEBCB3"/>
<path d="M331.937 243.008L321.823 186.075L239.571 200.686L249.684 257.619L331.937 243.008Z" fill="#FCFCFC"/>
<path d="M258.911 196.103C254.253 194.801 246.137 193.564 243.896 192.95C241.122 192.19 237.654 191.165 243.617 189.116C246.59 188.095 255.705 183.662 259.48 183.083C263.58 182.454 271.984 183.024 274.913 183.217C276.568 183.327 278.845 184.267 280.274 186.491C284.044 192.357 291.768 204.152 289.573 206.83C288.481 208.163 285.338 204.412 282.925 201.446C284.695 205.106 286.99 209.121 285.089 209.795C282.998 210.536 279.9 206.678 277.638 203.773C280.057 207.696 281.311 210.638 279.159 211.086C276.556 211.629 269.348 200.77 267.064 196.921C268.757 200.807 275.676 212.329 273.24 213.074C268.716 214.458 262.577 197.128 258.911 196.103Z" fill="#EEBCB3"/>
<path d="M282.932 201.965C282.767 201.965 282.605 201.886 282.505 201.741L275.14 191.069C274.977 190.833 275.036 190.51 275.272 190.347C275.508 190.185 275.83 190.244 275.993 190.48L283.359 201.152C283.522 201.387 283.462 201.71 283.226 201.873C283.137 201.935 283.033 201.965 282.932 201.965Z" fill="#324076"/>
<path d="M277.641 204.293C277.467 204.293 277.298 204.205 277.2 204.046L269.753 191.966C269.603 191.722 269.679 191.403 269.923 191.252C270.167 191.102 270.486 191.178 270.637 191.422L278.083 203.502C278.233 203.746 278.158 204.065 277.913 204.216C277.828 204.268 277.734 204.293 277.641 204.293Z" fill="#324076"/>
<path d="M235.736 219.484C220.472 219.692 172.604 217.966 149.704 216.131C134.532 214.915 129.526 204.141 129.558 198.663C129.585 193.92 133.919 182.276 151.465 183.304C168.347 184.294 217.483 187.36 236.097 188.797C236.527 195.492 236.559 212.613 235.736 219.484Z" fill="#7CA3DE"/>
<path d="M232.938 220.045C215.276 220.045 171.255 218.404 149.662 216.673C141.097 215.987 136.158 212.315 133.522 209.356C130.172 205.595 128.996 201.363 129.011 198.656C129.013 198.354 129.258 198.11 129.56 198.11C129.561 198.11 129.562 198.11 129.563 198.11C129.867 198.112 130.111 198.359 130.109 198.662C130.095 201.166 131.199 205.097 134.342 208.626C136.844 211.436 141.548 214.922 149.75 215.579C172.339 217.39 219.493 219.101 235.247 218.937C235.998 211.919 235.976 195.444 235.552 188.828C235.533 188.525 235.762 188.264 236.064 188.245C236.369 188.227 236.628 188.455 236.647 188.757C237.084 195.566 237.095 212.774 236.283 219.545L236.225 220.022L235.745 220.029C234.905 220.04 233.966 220.045 232.938 220.045Z" fill="#324076"/>
</svg>
