<svg width="604" height="320" viewBox="0 0 604 320" fill="none" xmlns="http://www.w3.org/2000/svg">
<path d="M36.9738 145.838C40.8399 147.287 46 148.706 50.1444 148.086C50.8089 148.513 50.9346 148.39 51.1248 149.211C51.8032 152.144 51.5972 155.86 51.7461 158.893C52.0286 164.664 52.422 170.445 52.6067 176.219C52.837 179.259 53.1105 182.295 53.4267 185.327C53.9957 188.462 54.8634 191.452 55.7745 194.499C54.3092 196.303 52.2157 196.103 50.9304 198.091C50.5063 194.933 48.1011 190.74 46.8527 187.732C41.1698 174.039 35.5343 161.001 36.9738 145.838Z" fill="#EEBCB3"/>
<path d="M50.1451 148.086C50.8095 148.513 50.9353 148.39 51.1255 149.211C51.8039 152.143 51.5979 155.86 51.7468 158.893C52.0293 164.664 52.4227 170.445 52.6074 176.219C52.1542 176.081 51.7079 175.823 51.2783 175.619C48.7142 171.561 47.1363 163.576 47.1867 158.801C47.2204 155.629 47.7667 150.401 50.1451 148.086Z" fill="#FCFCFC"/>
<path d="M543.389 231.712C543.85 230.207 543.589 228.525 543.874 226.973C544.561 223.303 548.011 218.87 550.392 216.089C556.29 209.184 566.094 202.01 575.466 201.395C578.473 201.198 582.087 201.893 584.359 204.004C585.306 204.892 585.847 206.013 585.835 207.325C585.81 209.671 584.286 211.728 582.682 213.31C577.944 218.003 560.007 228.342 553.599 230.394C550.902 231.258 548.485 231.413 545.666 231.382L544.646 232.144L544.124 231.581L543.389 231.712Z" fill="#7CA3DE"/>
<path d="M544.123 231.58C545.551 231.028 554.571 221.358 557.286 219.18C560.7 216.437 571.439 208.719 575.721 209.197C575.241 210.695 560.402 219.686 557.984 221.464C553.738 224.581 549.729 228.036 545.666 231.382L544.645 232.144L544.123 231.58Z" fill="#4F6FC9"/>
<path d="M481.468 203.993C483.062 201.711 482.265 190.939 482.443 187.45C482.685 192.748 482.629 198.12 482.407 203.417C490.698 201.24 497.874 200.792 505.545 205.243C512.719 209.405 520.397 217.653 522.535 225.842C523.264 228.647 523.306 231.432 522.043 234.104L521.563 233.774L520.336 233.795L519.941 234.247C517.092 232.621 512.148 231.923 508.546 229.823C500.862 225.347 494.199 218.848 486.871 213.757C486.609 213.546 486.339 213.304 486.052 213.127C482.719 211.073 481.117 207.338 477.747 205.053C478.98 204.527 480.154 204.244 481.468 203.993Z" fill="#7CA3DE"/>
<path d="M520.336 233.795C520.312 233.651 520.287 233.506 520.257 233.363C519.23 228.723 501.992 215.441 497.327 212.834C495.389 211.749 483.827 207.111 483.652 206.642C487.982 205.292 493.41 208.24 497.2 210.221C505.643 214.639 512.033 219.795 517.822 227.412C519.061 229.038 520.798 231.205 521.405 233.184C521.466 233.379 521.509 233.578 521.563 233.774L520.336 233.795Z" fill="#4F6FC9"/>
<path d="M67.2142 92.0745C66.0643 91.0537 65.1562 89.7711 64.2573 88.531C60.2398 82.989 55.6053 73.7176 57.0065 66.6233C57.9006 62.0972 63.8508 61.3025 67.196 59.2123C68.4504 58.4285 69.3651 57.223 70.6529 56.4386C74.2129 54.2701 75.0422 56.8907 77.7038 56.912C80.0765 56.9308 81.1881 54.275 85.1072 55.2538C87.19 55.7739 88.7831 57.254 89.8036 59.0999C91.0586 61.3723 91.6197 64.7409 90.8028 67.2515C89.9677 69.818 87.5373 72.3207 85.1436 73.4661C85.0318 73.5195 84.9182 73.5694 84.8052 73.621C84.7803 73.7899 84.7523 73.9576 84.7305 74.1271C83.8558 80.9426 89.0784 88.8985 82.6421 94.4077L82.1804 94.4763C81.5724 94.5723 80.9837 94.6987 80.3837 94.8324C76.8149 93.424 76.3777 87.9896 72.4964 86.7804C73.1085 88.5674 72.9649 90.866 72.1659 92.5922C71.9805 92.992 71.7007 93.2933 71.4115 93.619C69.9691 93.9028 68.5172 92.7422 67.2142 92.0745Z" fill="#444165"/>
<path d="M84.8055 73.6211C84.7805 73.79 84.7526 73.9577 84.7307 74.1272C83.8561 80.9427 89.0787 88.8986 82.6424 94.4078L82.1806 94.4764C81.5727 94.5724 80.984 94.6988 80.384 94.8325C76.8152 93.4241 76.378 87.9897 72.4967 86.7805C70.8209 86.1401 69.6589 85.4517 68.8328 83.7923C68.3613 82.8457 68.1113 81.7441 68.5138 80.7258C69.0093 79.4735 70.1459 78.7626 71.3425 78.3008C74.3778 78.5074 73.8817 80.9719 75.9637 82.229C78.2227 80.9111 78.4828 78.2097 79.6895 76.1499C80.2396 75.2112 81.0751 74.6686 82.1004 74.3769L84.8055 73.6211Z" fill="#EEBCB3"/>
<path d="M529.169 227.795C530.444 224.513 528.525 219.244 530.317 216.438L531.143 217.756C531.276 219.272 531.07 220.42 530.724 221.883C531.416 223.549 531.671 251.351 531.094 252.763C530.918 253.203 530.705 253.625 530.487 254.044C533.755 250.676 535.255 244.479 537.654 240.286C539.391 237.251 541.542 234.633 543.388 231.712L544.123 231.581L544.645 232.144L544.512 232.359C541.863 236.622 538.237 240.168 536.402 244.941C535.297 247.811 534.435 250.82 533.73 253.813C533.068 256.655 532.71 262.975 531.385 265.107L556.466 264.898C560.335 264.88 564.83 264.449 568.638 265.092C569.452 265.229 570.26 265.534 570.867 266.102C570.96 266.189 571.048 266.28 571.128 266.375C571.209 266.471 571.286 266.57 571.359 266.673C571.432 266.776 571.499 266.883 571.56 266.993C571.625 267.104 571.681 267.216 571.73 267.332C571.779 267.448 571.823 267.566 571.864 267.686C571.9 267.806 571.933 267.928 571.961 268.051C571.985 268.175 572.003 268.299 572.016 268.425C572.032 268.55 572.04 268.676 572.04 268.802C572.052 270.021 571.572 271.35 570.679 272.203C569.173 273.649 565.395 272.925 563.439 273.148C563.742 274.588 563.536 277.53 562.801 278.816C562.552 279.252 562.497 279.272 562.187 279.584C559.175 280.557 549.978 279.865 546.346 279.862C533.256 279.854 520.093 279.581 507.009 279.938C506.462 277.817 506.28 275.556 506.001 273.382C504.574 273.513 502.97 273.414 501.846 272.406C500.959 271.607 500.158 270.171 500.115 268.96C500.085 268.164 500.461 267.414 501.026 266.875C504.47 263.602 523.367 264.984 528.882 265.05C529.113 264.585 529.283 264.17 529.387 263.656C529.66 262.272 529.265 260.379 529.107 258.958C528.111 250.252 525.274 241.266 519.941 234.247L520.336 233.795L521.563 233.773L522.043 234.103C522.596 234.884 523.082 235.71 523.555 236.54C525.724 240.341 529.787 247.858 528.603 252.125C528.955 251.515 529.308 250.896 529.551 250.23C530.529 247.508 530.323 230.394 529.169 227.795Z" fill="#616186"/>
<path d="M506.001 273.382C510.429 272.341 521.363 273.092 526.653 273.085C538.832 273.068 551.296 272.444 563.439 273.148C563.742 274.589 563.536 277.53 562.801 278.817C562.552 279.253 562.497 279.273 562.187 279.585C559.174 280.558 549.978 279.865 546.345 279.863C533.256 279.855 520.093 279.582 507.009 279.939C506.462 277.818 506.28 275.556 506.001 273.382Z" fill="#5D84D4"/>
<path d="M562.188 279.584C562.394 280.179 562.528 280.631 562.479 281.271C562.248 284.373 558.92 307.717 558.039 309.466C557.857 309.825 557.547 310.138 557.286 310.439L556.964 310.1C550.252 309.177 540.97 309.888 533.991 309.867C526.83 309.847 518.867 308.947 511.845 309.96C512.276 307.322 507.945 283.896 507.01 279.938C520.094 279.581 533.256 279.854 546.346 279.862C549.978 279.865 559.175 280.557 562.188 279.584Z" fill="#4F6FC9"/>
<path d="M528.78 215.701C528.324 214.041 525.36 212.129 524.212 210.616C522.317 208.126 520.871 204.785 519.735 201.881C514.293 187.952 516.06 172.216 521.922 158.712C524.042 153.824 528.008 145.506 533.402 143.598C534.927 143.059 536.488 143.183 537.928 143.915C542.052 146.016 544.336 151.619 545.666 155.761C550.781 171.686 549.991 191.105 542.283 206.047C539.714 211.033 536.683 214.221 531.301 215.942C531.544 218.04 531.799 219.966 530.724 221.883C531.07 220.421 531.277 219.273 531.143 217.756L530.317 216.439C528.525 219.245 530.445 224.514 529.169 227.796C529.205 227.697 529.248 227.6 529.278 227.498C529.916 225.188 529.861 217.798 528.78 215.701Z" fill="#7CA3DE"/>
<path d="M534.592 163.452C535.467 163.344 535.917 163.15 536.706 163.567C537.034 168.209 535.127 173.624 534.544 178.27C533.991 182.661 532.691 208.686 531.738 210.312C531.452 210.431 531.245 210.248 530.972 210.139C529.533 204.748 531.331 183.865 532.272 177.663C532.977 173.01 534.38 168.133 534.592 163.452Z" fill="#4F6FC9"/>
<path d="M72.4969 86.7803C76.3783 87.9894 76.8158 93.4238 80.3842 94.8322C80.394 96.7826 80.2779 98.8953 80.6236 100.814C88.568 101.255 94.6392 106.485 99.7555 112.182C103.764 116.643 115.189 132.694 115.202 138.342C114.939 138.928 114.701 139.541 114.37 140.092C112.68 141.797 110.796 144.058 108.643 145.134C106.631 145.972 104.742 146.748 102.588 147.132C101.456 145.887 100.245 145.45 98.5865 145.372C98.1472 145.351 98.0831 145.381 97.7082 145.452C96.404 147.5 98.3817 179.795 98.6922 184.864C84.6511 188.126 67.4739 188.924 53.4279 185.327C53.1117 182.295 52.8383 179.259 52.608 176.219C52.4233 170.445 52.0299 164.664 51.7473 158.893C51.5985 155.86 51.8044 152.144 51.1261 149.211C50.9359 148.391 50.8101 148.513 50.1457 148.086C46.0012 148.706 40.8412 147.287 36.975 145.838C36.1848 145.292 35.3989 145.002 35.1413 144.013C33.7514 138.668 39.2025 125.722 41.7571 120.936C48.7619 107.816 54.9442 104.241 68.8273 100.056C69.5531 99.2173 70.0361 97.6819 70.0197 96.576C69.9918 94.6706 68.4509 93.343 67.2154 92.0743C68.5184 92.7421 69.9699 93.9026 71.4127 93.6188C71.7019 93.2932 71.982 92.9918 72.167 92.592C72.9654 90.8658 73.1091 88.5672 72.4969 86.7803Z" fill="#4F6FC9"/>
<path d="M72.497 86.7803C76.3784 87.9894 76.8159 93.4238 80.3843 94.8322C80.394 96.7826 80.278 98.8953 80.6237 100.814C80.5982 101.16 80.5678 101.505 80.5004 101.845C80.2458 103.136 79.4647 104.399 78.3197 105.074C77.0185 105.841 75.4849 105.734 74.1005 105.265C71.4753 104.375 69.9609 102.498 68.8268 100.056C69.5526 99.2173 70.0356 97.6819 70.0192 96.576C69.9913 94.6706 68.4504 93.343 67.2148 92.0743C68.5178 92.7421 69.9694 93.9026 71.4122 93.6188C71.7014 93.2932 71.9815 92.9918 72.1665 92.592C72.9655 90.8658 73.1092 88.5672 72.497 86.7803Z" fill="#EEBCB3"/>
<path d="M54.432 296.098C57.4861 296.036 60.961 295.621 63.9674 296.057C62.7458 298.12 63.1147 301.866 63.6101 304.174C64.2138 304.95 64.3268 304.928 65.2853 305.201C70.3591 306.438 78.0143 309.317 81.3704 313.381C82.4157 314.259 94.3904 313.846 96.6719 313.843C96.709 312.076 96.8676 310.359 97.0717 308.603L97.0924 306.62C100.501 306.812 103.462 307.313 106.22 304.897C111.955 306.734 119.87 308.816 123.922 313.438C125.997 314.526 217.572 313.789 230.264 313.967C230.173 310.466 230.154 306.964 230.207 303.462C244.606 303.403 259.005 303.477 273.403 303.683C284.124 303.443 294.86 303.653 305.583 303.645C317.358 303.637 329.149 303.445 340.92 303.772C355.197 303.879 369.473 303.882 383.749 303.78C383.773 306.008 383.941 308.329 383.812 310.547L384.136 313.564C385.343 314.388 427.134 313.917 432.591 313.922L489.432 314.018C494.137 314.041 508.024 314.812 511.693 314.02C511.881 313.981 512.051 313.897 512.228 313.835C512.276 313.735 512.331 313.638 512.373 313.535C512.95 312.142 512.416 311.258 511.845 309.961C518.867 308.947 526.83 309.847 533.991 309.868C540.971 309.888 550.252 309.177 556.964 310.1L557.286 310.439C557.438 311.192 557.401 311.553 557.158 312.28C557.231 312.494 557.31 312.732 557.426 312.928C557.438 312.956 557.93 313.653 557.99 313.704C560.414 315.575 594.551 312.236 601.117 314.329C602.429 314.748 603.024 315.228 603.608 316.463C603.523 317.458 603.523 318.061 602.684 318.773C601.822 319.507 600.273 319.71 599.174 319.756C593.913 319.98 588.435 319.598 583.138 319.623L536.172 319.678L397.624 319.696L110.874 319.762L33.3747 319.793L13.6306 319.874C10.2539 319.889 6.38588 320.258 3.07263 319.658C1.95373 319.455 1.40415 319.286 0.810523 318.243C0.230567 317.223 0.335385 316.701 0.629464 315.617C1.67545 314.501 2.70807 314.085 4.21279 313.81C11.9239 312.399 49.4205 315.426 52.8331 313.471L53.2627 311.672C53.3611 309.91 53.4954 308.313 53.9514 306.599C54.9801 303.311 54.7735 299.479 54.432 296.098Z" fill="#7A78AA"/>
<path d="M106.22 304.897C111.954 306.734 119.87 308.816 123.922 313.438C119.641 314.436 102.898 313.585 97.1387 313.717C97.1849 312.011 97.1223 310.308 97.0713 308.603L97.0919 306.62C100.5 306.812 103.461 307.313 106.22 304.897Z" fill="#5D84D4"/>
<path d="M511.845 309.96C518.866 308.947 526.83 309.847 533.991 309.867C540.97 309.888 550.252 309.177 556.964 310.1L557.286 310.439C557.438 311.192 557.401 311.553 557.158 312.28L557.268 313.57C557.073 313.718 556.921 313.953 556.684 314.014C555.518 314.318 515.046 314.191 512.228 313.835C512.276 313.735 512.331 313.638 512.373 313.534C512.95 312.142 512.416 311.258 511.845 309.96Z" fill="#5D84D4"/>
<path d="M54.4317 296.098C57.4858 296.036 60.9607 295.621 63.9671 296.057C62.7455 298.12 63.1143 301.866 63.6098 304.174C64.2134 304.95 64.3265 304.928 65.2849 305.201C70.3587 306.438 78.0139 309.317 81.37 313.381C81.1221 313.516 80.8469 313.686 80.5695 313.77C79.7599 314.016 53.975 313.703 53.6196 313.542L53.2617 311.672C53.3602 309.91 53.4944 308.313 53.9504 306.599C54.9797 303.311 54.7731 299.479 54.4317 296.098Z" fill="#5D84D4"/>
<path d="M54.4324 296.098C57.4865 296.036 60.9614 295.621 63.9678 296.057C62.7462 298.12 63.115 301.866 63.6105 304.174C64.2142 304.95 64.3272 304.928 65.2857 305.201C61.287 306.785 58.1594 306.728 53.9512 306.599C54.9804 303.311 54.7739 299.479 54.4324 296.098Z" fill="#EEBCB3"/>
<path d="M230.207 303.462C244.607 303.403 259.005 303.477 273.404 303.683C284.124 303.443 294.86 303.653 305.583 303.645C317.358 303.637 329.15 303.445 340.921 303.771C355.197 303.879 369.473 303.882 383.75 303.78C383.773 306.007 383.942 308.329 383.812 310.547C383.725 311.944 383.916 312.765 382.924 313.844C382.162 314.127 381.397 314.374 380.578 314.417C378.05 314.552 375.499 313.978 372.952 313.997C360.677 314.124 348.403 314.12 336.129 313.984L230.264 313.967C230.173 310.466 230.154 306.964 230.207 303.462Z" fill="#616186"/>
<path d="M53.4277 185.327C67.4736 188.924 84.6508 188.126 98.6919 184.863C99.4073 198.698 102.217 212.632 103.977 226.392C106.967 249.771 108.274 272.933 107.145 296.499C106.518 296.738 105.745 296.827 105.453 297.456C104.695 299.091 104.96 302.497 105.714 304.112C105.859 304.421 106.018 304.612 106.221 304.897C103.462 307.313 100.501 306.812 97.093 306.62L97.0723 308.603C96.8682 310.359 96.7096 312.076 96.6725 313.843C94.391 313.846 82.4164 314.259 81.371 313.381C78.0149 309.317 70.3597 306.438 65.2859 305.201C64.3275 304.928 64.2144 304.95 63.6108 304.174C63.115 301.866 62.7465 298.12 63.9681 296.057C60.9619 295.621 57.4868 296.036 54.4326 296.098C53.4006 291.786 54.539 275.211 54.4703 269.66C54.1823 246.563 53.8818 223.08 51.6945 200.076L50.9316 198.091C52.217 196.103 54.3108 196.303 55.7758 194.499C54.8643 191.451 53.997 188.462 53.4277 185.327Z" fill="#222949"/>
<path d="M55.7751 194.499C56.0886 196.291 56.5203 198.337 55.3261 199.922C54.9165 200.466 54.5195 200.515 53.9113 200.769C52.9534 200.695 52.522 200.629 51.6935 200.077L50.9307 198.091C52.216 196.103 54.3099 196.303 55.7751 194.499Z" fill="#EEBCB3"/>
<path d="M95.9512 296.415C99.4646 297.076 103.577 296.72 107.145 296.499C106.518 296.738 105.745 296.827 105.453 297.456C104.695 299.091 104.959 302.497 105.714 304.112C105.858 304.421 106.018 304.612 106.221 304.897C103.462 307.313 100.501 306.812 97.0929 306.62C97.2095 303.816 97.6819 300.432 97.119 297.704C96.9504 296.888 96.6411 296.879 95.9512 296.415Z" fill="#EEBCB3"/>
<path d="M77.6072 216.944C85.6896 234.771 91.443 252.578 93.8102 272.075C94.7942 280.18 95.1101 288.317 95.9507 296.416C96.6407 296.879 96.95 296.889 97.1183 297.704C97.6812 300.433 97.2088 303.817 97.0921 306.62L97.0715 308.604C96.8673 310.359 96.7087 312.076 96.6717 313.844C94.3901 313.847 82.4155 314.259 81.3701 313.381C78.014 309.317 70.3589 306.439 65.2851 305.202C64.3266 304.928 64.2136 304.95 63.6099 304.174C63.1141 301.866 62.7456 298.121 63.9672 296.058C64.2704 295.822 64.6358 295.65 64.8752 295.35C65.787 294.207 66.2645 289.508 66.6087 287.884C70.3412 270.29 73.6159 252.872 75.83 235.007C76.5758 228.988 77.1075 222.987 77.6072 216.944Z" fill="#FCFCFC"/>
<path d="M129.116 143.834L129.071 52.0209L129.067 27.8335C129.05 22.2569 128.749 16.5169 129.49 10.9829C129.909 7.85615 130.534 6.13237 132.758 3.82895C136.504 -0.0493713 143.17 0.310941 148.121 0.301827L367.888 0.346793L436.458 0.372307C446.944 0.35894 460.209 -0.467397 470.388 0.385676C473.547 0.650591 476.457 1.79349 478.686 4.10177C480.208 5.67728 481.801 8.40359 482.056 10.591C482.742 16.481 482.305 22.8864 482.318 28.83L482.384 64.0478L482.444 187.45C482.266 190.939 483.062 201.711 481.469 203.993C480.608 204.018 479.625 204.09 478.814 203.755C476.432 202.773 472.56 199.839 471.556 197.458C471.886 191.339 471.637 185.085 471.667 178.945L471.919 144.718C472.113 109.04 472.062 73.3632 471.765 37.6864C471.642 29.0633 471.682 20.4411 471.886 11.8195C445.776 11.2271 419.553 11.76 393.431 11.7466L239.73 11.7193L175.042 11.7819C168.023 11.7703 152.305 10.8942 146.133 12.0018C142.848 12.5912 140.976 15.1188 139.241 17.7066C138.799 24.2833 138.738 31.0295 139.021 37.6141C140.492 37.7009 142.174 37.6335 143.602 37.9598L142.52 38.3985C141.611 41.3302 142.392 58.1729 142.394 63.0015L142.528 141.986L139.257 143.233C135.856 143.581 132.538 143.869 129.116 143.834Z" fill="#444165"/>
<path d="M139.021 37.6143C140.492 37.7011 142.174 37.6337 143.601 37.96L142.52 38.3987C141.611 41.3304 142.392 58.1731 142.394 63.0017L142.528 141.986L139.256 143.233C138.935 133.871 139.154 124.411 139.158 115.039C139.172 89.2665 139.668 63.3742 139.021 37.6143Z" fill="#E1EAF8"/>
<path d="M139.241 17.7069C140.976 15.1191 142.848 12.5915 146.132 12.0021C152.304 10.8945 168.022 11.7706 175.042 11.7822L239.73 11.7196L393.431 11.7469C419.553 11.7603 445.776 11.2274 471.885 11.8198C471.682 20.4414 471.642 29.0636 471.765 37.6867C468.74 37.762 465.615 37.6806 462.612 38.0421C453.442 37.6788 444.082 38.0682 434.893 38.0883L381.872 38.0731L228.614 38.2214C200.289 38.2414 171.921 38.4377 143.601 37.9601C142.174 37.6338 140.492 37.7013 139.021 37.6144C138.738 31.0298 138.799 24.2836 139.241 17.7069Z" fill="#4F6FC9"/>
<path d="M157.178 23.0893C158.353 23.0292 159.898 22.8366 160.958 23.4478C161.65 23.847 162.1 24.3367 162.318 25.1139C162.775 26.7368 161.518 28.4891 160.75 29.8477C159.237 30.0555 157.95 30.2013 156.682 29.1866C155.988 28.6307 155.496 27.8274 155.431 26.9312C155.311 25.301 156.132 24.2255 157.178 23.0893Z" fill="#FCFCFC"/>
<path d="M181.702 22.6621C183.195 22.7526 184.517 22.9301 185.518 24.1629C185.599 24.2625 185.674 24.3664 185.745 24.4746C185.814 24.5824 185.878 24.6936 185.935 24.8088C185.993 24.9239 186.044 25.0415 186.089 25.1618C186.133 25.2824 186.17 25.4051 186.202 25.53C186.232 25.6549 186.257 25.7809 186.274 25.9085C186.291 26.0358 186.301 26.1634 186.304 26.2919C186.307 26.4207 186.303 26.5492 186.291 26.6771C186.281 26.805 186.263 26.932 186.237 27.0581C185.911 28.6944 184.827 29.5948 183.51 30.4771C183.037 30.4315 182.564 30.3841 182.098 30.2936C180.935 30.0688 180.032 29.3646 179.408 28.3651C178.865 27.495 178.724 26.4876 179.002 25.5002C179.43 23.9806 180.392 23.407 181.702 22.6621Z" fill="#FCFCFC"/>
<path d="M169.439 22.7256C170.713 22.7529 172.046 22.7152 173.106 23.5282C173.901 24.1376 174.412 24.9998 174.455 26.0121C174.531 27.7942 173.384 29.2427 172.186 30.4124L171.79 30.3917C171.297 30.3692 170.806 30.3546 170.316 30.2884C169.135 30.1286 168.297 29.4019 167.635 28.4401C167.027 27.556 166.834 26.5535 167.098 25.5096C167.448 24.1273 168.283 23.4553 169.439 22.7256Z" fill="#FCFCFC"/>
<path d="M485.447 214.131L486.871 213.757C494.199 218.848 500.862 225.347 508.547 229.823C512.148 231.923 517.093 232.62 519.942 234.247C525.275 241.267 528.112 250.252 529.108 258.958C529.266 260.379 529.66 262.272 529.387 263.657C529.284 264.17 529.114 264.586 528.883 265.051C523.367 264.984 504.471 263.603 501.027 266.875C500.462 267.415 500.085 268.164 500.116 268.96C500.158 270.171 500.96 271.607 501.847 272.406C502.971 273.414 504.574 273.513 506.002 273.382C506.281 275.556 506.463 277.818 507.01 279.939C507.945 283.896 512.276 307.322 511.845 309.961C512.416 311.258 512.95 312.142 512.373 313.535C512.331 313.638 512.276 313.735 512.228 313.836C512.051 313.897 511.881 313.981 511.693 314.02C508.024 314.813 494.137 314.041 489.432 314.018L432.591 313.922C427.134 313.918 385.343 314.388 384.136 313.565L383.812 310.547C383.941 308.329 383.773 306.008 383.749 303.78C369.473 303.882 355.197 303.88 340.92 303.772C340.522 292.167 337.902 278.491 336.427 266.76C336.494 264.264 336.142 261.652 335.968 259.156C353.071 260.001 370.545 259.308 387.687 259.311C414.546 259.317 441.441 259.659 468.296 259.324C472.387 259.273 476.683 259.379 479.654 256.143C483.036 252.459 482.63 247.399 482.548 242.78L483.396 243.733C486.13 246.772 488.949 249.071 493.242 249.178C493.449 249.181 493.656 249.18 493.863 249.173C494.07 249.167 494.277 249.155 494.483 249.138C494.69 249.121 494.895 249.099 495.098 249.071C495.305 249.044 495.509 249.012 495.712 248.974C495.918 248.936 496.123 248.894 496.325 248.846C496.523 248.798 496.722 248.745 496.92 248.688C497.123 248.63 497.321 248.567 497.515 248.5C497.71 248.432 497.904 248.359 498.098 248.281C498.288 248.204 498.479 248.122 498.669 248.035C498.855 247.948 499.039 247.856 499.222 247.76C499.408 247.664 499.59 247.564 499.768 247.458C499.947 247.352 500.121 247.243 500.291 247.129C500.465 247.015 500.635 246.896 500.801 246.773C500.971 246.651 501.135 246.524 501.293 246.393C501.455 246.262 501.613 246.127 501.767 245.988C501.921 245.849 502.07 245.707 502.216 245.561C502.35 245.426 502.479 245.288 502.605 245.147C502.73 245.006 502.852 244.862 502.969 244.714C503.087 244.566 503.202 244.416 503.316 244.262C503.425 244.109 503.53 243.952 503.632 243.793C503.733 243.634 503.83 243.473 503.923 243.308C504.02 243.144 504.112 242.978 504.197 242.809C504.282 242.64 504.363 242.469 504.44 242.296C504.513 242.123 504.583 241.948 504.652 241.771C504.717 241.594 504.78 241.416 504.841 241.236C504.898 241.056 504.95 240.874 504.999 240.691C505.047 240.509 505.092 240.325 505.132 240.14C505.169 239.955 505.201 239.769 505.23 239.582C505.258 239.395 505.282 239.207 505.303 239.019C505.323 238.831 505.337 238.643 505.345 238.453C505.357 238.265 505.363 238.076 505.363 237.887C505.363 237.697 505.357 237.508 505.345 237.32C505.248 235.297 504.568 233.251 503.511 231.529C500.881 227.246 489.663 217.923 485.447 214.131Z" fill="#FCFCFC"/>
<path d="M102.587 147.131C104.741 146.747 106.63 145.972 108.642 145.134L107.923 146.441C108.962 149.466 114.776 150.013 114.895 152.505L114.583 153.016C119.449 153.866 124.421 152.839 129.142 153.638L129.064 221.347C129.066 229.517 128.131 242.953 129.232 250.249C129.583 252.573 130.75 254.791 132.383 256.477C136.194 260.412 143.804 259.481 148.85 259.489L233.321 259.546C245.641 259.465 257.961 259.503 270.281 259.661C272.442 259.683 274.609 259.281 276.75 259.349C277.85 259.384 278.569 259.711 279.45 260.339C280.052 261.544 279.699 262.741 279.504 264.02C277.457 277.253 275.656 290.476 273.403 303.683C259.005 303.476 244.606 303.403 230.206 303.462C230.153 306.964 230.172 310.466 230.264 313.967C217.572 313.789 125.997 314.526 123.922 313.438C119.87 308.816 111.954 306.734 106.22 304.897C106.017 304.612 105.858 304.421 105.713 304.112C104.959 302.497 104.694 299.091 105.452 297.456C105.744 296.827 106.517 296.738 107.144 296.499C108.273 272.933 106.967 249.771 103.976 226.391C102.217 212.632 99.4068 198.698 98.691 184.863C98.3805 179.794 96.4028 147.499 97.707 145.452C98.0819 145.38 98.146 145.351 98.5853 145.371C100.244 145.449 101.456 145.886 102.587 147.131Z" fill="#FCFCFC"/>
<path d="M102.587 147.131C104.741 146.747 106.63 145.972 108.642 145.134L107.923 146.441C108.962 149.466 114.776 150.013 114.895 152.505L114.583 153.016C109.991 152.231 106.301 149.81 102.587 147.131Z" fill="#EEBCB3"/>
<path d="M142.153 151.267C142.043 173.142 141.347 195.3 142.36 217.148L358.859 217.267L422.781 217.248C432.971 217.293 443.207 217.784 453.389 217.605C454.308 217.589 454.893 217.573 455.677 217.058C457.785 218.136 459.32 220.878 461.188 222.438C463.487 224.268 481.661 241.218 482.549 242.78C482.63 247.399 483.036 252.459 479.654 256.143C476.683 259.379 472.387 259.273 468.296 259.324C441.441 259.659 414.546 259.317 387.687 259.311C370.545 259.307 353.071 260.001 335.968 259.155C336.142 261.651 336.494 264.264 336.428 266.76C337.902 278.491 340.523 292.166 340.921 303.772C329.15 303.445 317.358 303.637 305.583 303.645C294.86 303.653 284.124 303.443 273.404 303.683C275.657 290.477 277.458 277.253 279.505 264.021C279.7 262.741 280.053 261.545 279.451 260.339C278.57 259.711 277.851 259.385 276.751 259.349C274.609 259.281 272.442 259.683 270.282 259.662C257.962 259.504 245.642 259.465 233.321 259.547L148.851 259.489C143.804 259.481 136.195 260.412 132.384 256.477C130.751 254.791 129.584 252.573 129.233 250.249C128.132 242.954 129.066 229.517 129.065 221.347L129.142 153.639C132.469 153.875 136.038 152.942 139.293 152.312C140.072 151.835 141.279 151.572 142.153 151.267Z" fill="#444165"/>
<path d="M306.278 233.039C307.382 232.948 308.491 232.863 309.575 233.148C311.698 233.705 313.7 235.15 314.755 237.086C315.762 238.936 315.869 241.178 315.147 243.149C314.231 245.651 312.277 247.413 309.899 248.46C309.229 248.45 308.584 248.419 307.92 248.318C305.56 247.959 303.337 246.9 301.958 244.877C300.289 242.428 300.373 239.888 300.975 237.144C302.675 235.564 304.079 233.923 306.278 233.039Z" fill="#FCFCFC"/>
<path d="M280.974 259.277C290.105 258.228 299.673 259.114 308.871 259.115C317.781 259.117 327.113 258.346 335.968 259.155C336.142 261.651 336.494 264.264 336.428 266.76C336.36 267.915 336.256 269.061 336.14 270.212C334.99 270.775 285.639 270.129 279.297 270.405C279.647 268.01 280.168 265.658 280.684 263.294C280.829 261.962 280.888 260.615 280.974 259.277Z" fill="#222949"/>
<path d="M142.153 151.267C142.043 173.142 141.347 195.3 142.36 217.148L358.859 217.267L422.781 217.248C432.971 217.293 443.206 217.784 453.389 217.605C454.307 217.589 454.892 217.573 455.677 217.058C457.784 218.136 459.319 220.878 461.187 222.438C448.304 221.456 435.038 222.036 422.106 222.029L352.866 222.008L139.317 222.098C138.937 198.855 139.266 175.56 139.293 152.312C140.072 151.835 141.278 151.572 142.153 151.267Z" fill="#E1EAF8"/>
<path d="M462.612 38.042C465.615 37.6804 468.74 37.7619 471.765 37.6865C472.062 73.3634 472.113 109.041 471.919 144.718L471.667 178.945C471.637 185.085 471.886 191.339 471.556 197.458C472.56 199.839 476.432 202.773 478.814 203.755C479.625 204.09 480.608 204.018 481.469 203.993C480.154 204.244 478.981 204.527 477.748 205.053C481.118 207.338 482.721 211.073 486.053 213.127C486.34 213.304 486.611 213.546 486.872 213.757L485.447 214.131C489.663 217.923 500.881 227.246 503.511 231.529C504.568 233.251 505.249 235.297 505.346 237.32C505.358 237.508 505.364 237.697 505.364 237.887C505.364 238.076 505.358 238.265 505.346 238.453C505.338 238.643 505.323 238.831 505.303 239.019C505.283 239.207 505.258 239.395 505.23 239.582C505.202 239.769 505.17 239.954 505.133 240.14C505.093 240.325 505.048 240.509 504.999 240.691C504.951 240.874 504.898 241.056 504.841 241.236C504.781 241.416 504.718 241.594 504.653 241.771C504.584 241.948 504.513 242.123 504.44 242.296C504.364 242.469 504.282 242.64 504.197 242.809C504.112 242.978 504.021 243.144 503.924 243.308C503.831 243.473 503.734 243.634 503.632 243.793C503.531 243.952 503.426 244.109 503.316 244.262C503.203 244.415 503.088 244.566 502.97 244.714C502.852 244.861 502.731 245.006 502.605 245.147C502.48 245.288 502.35 245.426 502.217 245.561C502.071 245.707 501.921 245.849 501.767 245.988C501.613 246.127 501.456 246.262 501.294 246.393C501.136 246.524 500.972 246.651 500.801 246.773C500.635 246.896 500.465 247.015 500.291 247.129C500.121 247.243 499.947 247.352 499.769 247.458C499.591 247.563 499.409 247.664 499.222 247.76C499.04 247.856 498.856 247.948 498.67 248.035C498.479 248.122 498.289 248.204 498.099 248.281C497.904 248.359 497.71 248.432 497.516 248.499C497.321 248.567 497.123 248.63 496.921 248.688C496.722 248.745 496.524 248.798 496.326 248.846C496.123 248.894 495.918 248.936 495.712 248.974C495.51 249.012 495.305 249.044 495.099 249.071C494.896 249.099 494.691 249.121 494.484 249.138C494.277 249.155 494.071 249.167 493.864 249.173C493.657 249.18 493.449 249.181 493.243 249.178C488.949 249.071 486.131 246.772 483.396 243.733L482.549 242.78C481.661 241.218 463.487 224.268 461.188 222.438C459.32 220.878 457.785 218.136 455.677 217.058C454.893 217.573 454.308 217.589 453.39 217.605C443.207 217.785 432.971 217.294 422.782 217.248L358.86 217.267L142.361 217.148C141.348 195.3 142.044 173.142 142.153 151.267C141.279 151.572 140.073 151.835 139.293 152.312C136.038 152.942 132.469 153.875 129.143 153.639C124.422 152.839 119.45 153.866 114.583 153.016L114.896 152.505C114.777 150.014 108.963 149.466 107.924 146.441L108.643 145.134C110.796 144.058 112.68 141.797 114.37 140.092C118.19 143.097 124.374 143.73 129.116 143.835C132.539 143.869 135.857 143.581 139.257 143.233L142.528 141.986L142.394 63.0016C142.392 58.173 141.611 41.3303 142.52 38.3986L143.602 37.9599C171.921 38.4375 200.289 38.2412 228.615 38.2212L381.872 38.073L434.893 38.0881C444.082 38.0681 453.442 37.6786 462.612 38.042Z" fill="#FCFCFC"/>
<path d="M182.156 123.225C182.103 122.804 182.054 122.383 182.008 121.962C181.825 120.241 181.665 119.234 182.802 117.817C185.856 115.921 191.48 117.07 195.081 117.08C194.411 117.261 193.654 117.272 193.266 117.877C192.531 119.022 192.954 121.53 193.024 122.883C189.792 123.729 185.496 123.242 182.156 123.225Z" fill="#EDEDED"/>
<path d="M254.266 116.8C259.929 116.726 265.591 116.786 271.251 116.98L271.308 123.188C265.613 123.281 259.919 123.277 254.225 123.173L254.266 116.8Z" fill="#EDEDED"/>
<path d="M304.923 81.9111C312.296 81.3612 324.455 81.2986 331.737 82.0168C329.64 84.6392 327.839 87.4536 325.782 90.0809C325.683 89.9199 325.607 89.7419 325.484 89.5985C324.536 88.4957 307.714 88.7059 305.192 88.6129C305.222 86.383 305.042 84.1379 304.923 81.9111Z" fill="#EDEDED"/>
<path d="M182.382 132.197C195.501 132.588 208.757 132.618 221.868 132.046L221.838 136.977L182.32 136.919L182.382 132.197Z" fill="#4F6FC9"/>
<path d="M411.14 168.677C414.867 164.697 418.075 160.04 421.992 156.3C425.306 160.32 428.523 164.703 432.217 168.367C429.76 172.366 426.54 176.881 423.241 180.236C419.227 176.361 415.087 172.622 411.14 168.677Z" fill="#222949"/>
<path d="M195.081 117.081C210.742 117.838 226.731 117.122 242.432 117.172L242.436 122.793L209.732 122.627C204.228 122.637 198.504 122.365 193.024 122.884C192.954 121.531 192.531 119.023 193.267 117.878C193.655 117.274 194.411 117.262 195.081 117.081Z" fill="#4F6FC9"/>
<path d="M340.364 169.549C348.133 174.828 354.124 177.188 362.91 180.377C358.191 180.706 354.21 177.795 349.519 177.491C343.875 177.127 338.113 177.37 332.457 177.38L304.889 177.319L305.156 171.401C309.88 171.386 338.744 171.764 340.403 170.568L340.364 169.549Z" fill="#EDEDED"/>
<path d="M305.176 91.9755C311.721 92.0229 318.264 91.9691 324.807 91.8145C321.245 98.1195 319.111 104.491 317.723 111.579C317.322 113.627 317.315 116.298 316.692 118.221C316.643 118.114 316.618 117.992 316.545 117.901C315.52 116.612 307.209 117.266 305.218 117.296C305.02 108.867 305.165 100.408 305.176 91.9755Z" fill="#EDEDED"/>
<path d="M142.528 141.985C146.691 139.314 149.331 135.412 153.839 133.139C152.697 135.709 151.455 138.249 150.354 140.835C152.352 139.921 154.343 138.887 156.515 138.479L156.891 138.796C156.472 139.484 153.898 142.082 153.978 142.439C155.219 142.473 156.433 142.442 157.672 142.364C157.206 143.495 155.836 144.12 154.84 144.757C155.302 145.818 156.472 146.431 157.391 147.076C152.405 148.764 147.251 149.967 142.153 151.266C141.279 151.572 140.073 151.835 139.293 152.312C136.038 152.942 132.469 153.875 129.143 153.639C124.422 152.839 119.45 153.866 114.583 153.016L114.896 152.505C114.777 150.014 108.963 149.466 107.924 146.441L108.643 145.134C110.796 144.058 112.68 141.796 114.37 140.092C118.19 143.097 124.374 143.73 129.116 143.834C132.539 143.869 135.857 143.581 139.257 143.233L142.528 141.985Z" fill="#EEBCB3"/>
<path d="M316.728 126.87C317.144 131.086 318.041 135.412 319.225 139.476L320.949 144.148C323.794 150.429 326.99 155.841 331.408 161.181C326.239 159.967 311.336 160.79 305.248 160.804C305.215 150.036 304.778 139.189 305.207 128.433C308.35 128.611 313.508 129.491 316.349 128.114L316.728 126.87Z" fill="#EDEDED"/>
<path d="M209.568 145.266C217.009 144.851 224.629 145.121 232.087 145.091L275.778 145.049L275.82 150.969C266.503 151.218 257.146 151.064 247.825 151.079L205.352 151.042C200.014 151.057 188.696 152.254 183.975 150.853C182.663 150.463 182.094 149.962 181.482 148.76C181.362 147.594 181.649 146.979 182.151 145.937C183.487 144.979 206.088 145.311 209.568 145.266Z" fill="#EDEDED"/>
<path d="M462.611 38.042C465.615 37.6804 468.739 37.7619 471.765 37.6865C472.061 73.3634 472.112 109.041 471.918 144.718L471.666 178.945C471.636 185.085 471.886 191.339 471.555 197.458C471.372 197.43 471.183 197.424 471.005 197.373C468.804 196.742 459.008 187.758 457.486 185.59C461.116 187.088 465.343 191.491 468.434 194.064C469.062 142.121 468.408 90.1092 468.37 38.158C466.442 38.2182 464.536 38.1343 462.611 38.042Z" fill="#EDEDED"/>
<path d="M182.894 158.984L275.755 159.207C275.773 160.916 276.153 163.44 275.462 165.003L274.541 165.247C243.705 165.644 212.868 165.661 182.032 165.298C182.038 163.277 181.768 160.715 182.894 158.984Z" fill="#EDEDED"/>
<path d="M207.233 173.592C230.049 172.939 253.146 173.402 275.971 173.777C275.979 175.802 275.849 177.841 275.771 179.866C267.415 179.957 259.058 180.005 250.701 180.01C236.957 180.207 223.213 180.265 209.467 180.182C201.405 180.194 192.879 180.736 184.866 179.98C183.707 179.87 183.137 179.849 182.175 179.136C181.469 177.445 181.752 175.61 181.844 173.817C190.253 173.401 198.801 173.709 207.233 173.592Z" fill="#EDEDED"/>
<path d="M184.34 79.5115C194.155 79.0674 274.948 78.8183 277.849 79.96C278.771 80.3227 279.579 81.564 279.936 82.4335C280.914 84.8086 281.117 93.9743 280.127 96.1617C279.51 97.5233 278.276 98.0015 276.98 98.5526C270.279 98.9171 263.383 98.6036 256.664 98.5994L216.502 98.5726C211.055 98.5702 188.25 99.2623 184.332 98.2725C183.131 97.9693 182.401 97.4467 181.843 96.3354C180.233 93.1261 180.282 85.3792 181.576 82.0671C182.132 80.6417 183.004 80.1404 184.34 79.5115Z" fill="#4F6FC9"/>
<path d="M432.217 168.367C436.213 171.518 440.758 172.827 444.834 175.643C449.152 178.626 453.028 182.992 457.486 185.59C459.007 187.757 468.804 196.742 471.004 197.373C471.183 197.424 471.371 197.429 471.555 197.458C472.559 199.839 476.431 202.773 478.813 203.755C479.624 204.089 480.607 204.018 481.468 203.993C480.153 204.243 478.98 204.526 477.747 205.052C481.117 207.338 482.72 211.073 486.052 213.127C486.339 213.304 486.61 213.545 486.871 213.756L485.446 214.131C489.662 217.922 500.88 227.245 503.51 231.529C504.567 233.251 505.247 235.296 505.345 237.319C505.357 237.508 505.363 237.697 505.363 237.886C505.363 238.075 505.357 238.264 505.345 238.453C505.336 238.642 505.322 238.83 505.302 239.019C505.282 239.207 505.257 239.394 505.229 239.581C505.201 239.768 505.168 239.954 505.132 240.139C505.092 240.324 505.047 240.508 504.998 240.691C504.95 240.874 504.897 241.055 504.84 241.235C504.78 241.415 504.717 241.594 504.652 241.77C504.583 241.948 504.512 242.122 504.439 242.295C504.362 242.468 504.281 242.639 504.196 242.808C504.111 242.977 504.02 243.144 503.923 243.308C503.83 243.472 503.733 243.634 503.631 243.793C503.53 243.952 503.425 244.108 503.315 244.262C503.202 244.415 503.086 244.566 502.969 244.714C502.851 244.861 502.73 245.005 502.604 245.146C502.479 245.287 502.349 245.425 502.215 245.56C502.07 245.706 501.92 245.849 501.766 245.988C501.612 246.127 501.454 246.261 501.293 246.392C501.135 246.523 500.97 246.65 500.8 246.773C500.634 246.896 500.464 247.014 500.29 247.128C500.12 247.242 499.946 247.352 499.768 247.458C499.59 247.563 499.407 247.664 499.221 247.76C499.039 247.856 498.855 247.948 498.669 248.035C498.478 248.121 498.288 248.203 498.098 248.281C497.903 248.359 497.709 248.431 497.515 248.499C497.32 248.567 497.122 248.629 496.92 248.687C496.721 248.745 496.523 248.798 496.324 248.845C496.122 248.893 495.917 248.936 495.711 248.974C495.509 249.011 495.304 249.044 495.098 249.071C494.894 249.098 494.689 249.121 494.483 249.138C494.276 249.155 494.07 249.166 493.863 249.173C493.656 249.179 493.448 249.181 493.241 249.177C488.948 249.07 486.13 246.772 483.395 243.732L482.548 242.78C481.66 241.217 463.486 224.268 461.187 222.438C459.319 220.878 457.784 218.136 455.676 217.057C451.26 212.313 422.504 186.152 421.757 184.374C421.682 183.384 421.807 183.017 422.331 182.16C422.642 181.652 422.957 181.203 423.131 180.628C423.171 180.499 423.204 180.367 423.241 180.236C426.54 176.881 429.76 172.366 432.217 168.367Z" fill="#4F6FC9"/>
<path d="M477.748 205.053C481.118 207.338 482.72 211.073 486.053 213.127C486.339 213.304 486.61 213.546 486.871 213.757L485.447 214.131C481.624 211.433 477.631 209.187 473.388 207.225L477.748 205.053Z" fill="#A6C3EA"/>
<path d="M331.736 82.0165C342.448 70.5328 356.155 63.7471 372.017 63.2167C387.207 62.7087 403.062 68.0617 414.187 78.5216C414.546 78.8633 414.901 79.2097 415.252 79.5606C415.602 79.9115 415.949 80.2663 416.29 80.6257C416.632 80.9851 416.969 81.3484 417.302 81.7163C417.635 82.0836 417.963 82.4555 418.287 82.8313C418.61 83.2071 418.929 83.5868 419.244 83.9705C419.558 84.3542 419.867 84.7419 420.172 85.1335C420.476 85.5248 420.776 85.9197 421.071 86.3183C421.366 86.7172 421.656 87.1197 421.94 87.5256C422.225 87.9318 422.505 88.3413 422.78 88.7542C423.054 89.1674 423.324 89.5839 423.588 90.0034C423.853 90.4227 424.112 90.8453 424.366 91.2715C424.62 91.6977 424.868 92.1267 425.112 92.559C425.355 92.9913 425.593 93.4263 425.825 93.8647C426.058 94.3025 426.285 94.7436 426.507 95.1875C426.728 95.631 426.944 96.0773 427.155 96.5266C427.365 96.9759 427.57 97.4274 427.769 97.8816C427.969 98.3358 428.163 98.7921 428.351 99.2511C428.539 99.7105 428.721 100.172 428.898 100.635C429.075 101.099 429.246 101.564 429.411 102.032C429.576 102.5 429.735 102.97 429.889 103.441C430.042 103.913 430.19 104.387 430.331 104.862C430.473 105.337 430.609 105.814 430.739 106.293C430.869 106.771 430.993 107.252 431.111 107.734C431.229 108.215 431.341 108.698 431.447 109.183C431.553 109.668 431.653 110.154 431.747 110.641C431.842 111.128 431.929 111.616 432.011 112.105C432.093 112.594 432.169 113.085 432.239 113.576C432.309 114.067 432.372 114.559 432.43 115.051C432.488 115.544 432.539 116.038 432.585 116.531C432.63 117.026 432.67 117.52 432.703 118.015C432.736 118.51 432.763 119.005 432.784 119.501C432.805 119.996 432.82 120.492 432.828 120.988C432.856 121.997 432.857 123.006 432.829 124.015C432.801 125.024 432.745 126.031 432.66 127.037C432.576 128.043 432.463 129.046 432.323 130.046C432.182 131.045 432.014 132.04 431.817 133.03C431.621 134.02 431.397 135.004 431.146 135.981C430.895 136.959 430.617 137.929 430.311 138.891C430.006 139.853 429.673 140.806 429.314 141.749C428.955 142.692 428.571 143.625 428.16 144.547C427.162 146.778 422.041 154.938 421.992 156.299C418.075 160.039 414.868 164.697 411.14 168.676C397.422 179.041 382.484 183.1 365.465 180.762C364.612 180.645 363.76 180.516 362.909 180.377C354.124 177.187 348.132 174.827 340.364 169.548C337.095 166.989 334.169 164.274 331.407 161.18C326.99 155.84 323.794 150.429 320.949 144.147L319.224 139.476C318.04 135.412 317.143 131.085 316.728 126.87C316.517 123.966 316.586 121.124 316.692 118.22C317.315 116.298 317.322 113.627 317.723 111.578C319.111 104.49 321.245 98.1192 324.807 91.8141L325.782 90.0806C327.839 87.4533 329.64 84.6389 331.736 82.0165Z" fill="#616186"/>
<path d="M386.208 73.8818C393.637 74.0933 405.079 82.4897 410.049 87.7273C419.27 97.444 423.86 110.011 423.46 123.37C423.102 135.285 418.265 148.693 409.377 156.987C399.077 166.601 386.89 171.607 372.658 171.01C364.345 170.661 349.969 166.406 344.141 160.086C349.923 161.254 356.599 160.503 362.491 160.429L388.531 160.266C387.93 151.332 388.491 142.122 388.44 133.151C388.333 113.871 388.15 94.5251 388.332 75.2496C387.638 74.6754 387.01 74.2932 386.208 73.8818Z" fill="#EDEDED"/>
<path d="M346.455 81.1751C346.988 80.7461 347.516 80.353 348.095 79.9854C359.879 72.5052 372.692 70.8386 386.208 73.8821C387.01 74.2934 387.638 74.6756 388.332 75.2498C388.15 94.5253 388.333 113.871 388.441 133.151C388.491 142.122 387.93 151.332 388.531 160.266L362.492 160.429C356.599 160.503 349.923 161.254 344.141 160.086C337.616 153.587 333.736 149.689 329.695 141.052C327.453 136.605 326.617 131.545 325.836 126.672L325.81 118.558C325.978 111.251 329.013 99.8741 333.773 94.4281C336.187 90.0048 339.883 86.4995 343.601 83.1753C344.45 82.3788 345.474 81.7949 346.455 81.1751Z" fill="#FCFCFC"/>
<path d="M325.836 126.672C327.994 128.659 330.537 126.526 330.743 130.48C330.919 133.85 330.821 137.854 329.695 141.052C327.453 136.604 326.618 131.544 325.836 126.672Z" fill="#EDEDED"/>
<path d="M325.81 118.558C325.978 111.251 329.013 99.8737 333.773 94.4277C333.014 97.0623 331.447 99.4344 330.886 102.096C330.04 106.108 331.725 114.523 329.525 117.419C328.261 118.016 327.196 118.366 325.81 118.558Z" fill="#EDEDED"/>
<path d="M343.602 83.175C344.45 82.3785 345.474 81.7946 346.455 81.1748C353.948 82.2351 368.909 81.8669 376.832 81.6712C376.786 91.1662 376.998 100.744 376.643 110.227L344.493 110.18C344.509 106.427 345.435 85.456 343.602 83.175Z" fill="#EDEDED"/>
<path d="M349.129 120.957C358.324 120.483 367.602 120.82 376.806 120.981C376.71 130.972 376.469 140.942 376.73 150.933L371.502 150.861C362.551 150.62 353.521 151.043 344.56 151.105C344.42 141.085 344.536 131.064 344.373 121.042L349.129 120.957Z" fill="#EDEDED"/>
</svg>
