<svg width="16" height="15" viewBox="0 0 16 15" fill="none" xmlns="http://www.w3.org/2000/svg">
<path fill-rule="evenodd" clip-rule="evenodd" d="M8.00008 0.435547C6.12645 0.435547 4.32956 1.17984 3.0047 2.5047C1.67984 3.82956 0.935547 5.62645 0.935547 7.50008C0.935547 9.37371 1.67984 11.1706 3.0047 12.4955C4.32956 13.8203 6.12645 14.5646 8.00008 14.5646C9.87371 14.5646 11.6706 13.8203 12.9955 12.4955C14.3203 11.1706 15.0646 9.37371 15.0646 7.50008C15.0646 5.62645 14.3203 3.82956 12.9955 2.5047C11.6706 1.17984 9.87371 0.435547 8.00008 0.435547ZM1.94888 7.50008C1.94888 5.8952 2.58642 4.35606 3.72124 3.22124C4.85606 2.08642 6.3952 1.44888 8.00008 1.44888C9.60496 1.44888 11.1441 2.08642 12.2789 3.22124C13.4137 4.35606 14.0513 5.8952 14.0513 7.50008C14.0513 9.10496 13.4137 10.6441 12.2789 11.7789C11.1441 12.9137 9.60496 13.5513 8.00008 13.5513C6.3952 13.5513 4.85606 12.9137 3.72124 11.7789C2.58642 10.6441 1.94888 9.10496 1.94888 7.50008ZM10.8363 5.40728C10.9178 5.29157 10.95 5.14824 10.9258 5.00882C10.9016 4.86939 10.823 4.74529 10.7073 4.66381C10.5916 4.58234 10.4482 4.55016 10.3088 4.57437C10.1694 4.59857 10.0453 4.67718 9.96381 4.79288L6.95475 9.07021L5.71421 7.80621C5.61469 7.70756 5.48035 7.65204 5.34022 7.65165C5.20009 7.65127 5.06544 7.70605 4.96537 7.80415C4.86531 7.90225 4.80788 8.03579 4.80549 8.1759C4.8031 8.31601 4.85595 8.45143 4.95261 8.55288L6.64221 10.2734C6.69695 10.3291 6.76324 10.3721 6.83641 10.3994C6.90958 10.4266 6.98785 10.4375 7.06568 10.4312C7.14351 10.4249 7.219 10.4015 7.28683 10.3629C7.35466 10.3242 7.41316 10.2711 7.45821 10.2073L10.8363 5.40728Z" fill="#116B51"/>
</svg>
