<svg width="26" height="26" viewBox="0 0 26 26" fill="none" xmlns="http://www.w3.org/2000/svg">
<path d="M10.3323 10.3323H15.6679M13.0001 10.3323V15.6679M3.66289 6.33067V19.6696M6.33067 22.3373H19.6696M22.3373 19.6696V6.33067M19.6696 3.66289H6.33067M2.32845 25.0051H4.99734C5.73372 25.0051 6.33067 24.4082 6.33067 23.6718V21.0029C6.33067 20.2665 5.73372 19.6696 4.99734 19.6696H2.32845C1.59207 19.6696 0.995117 20.2665 0.995117 21.0029V23.6718C0.995117 24.4082 1.59207 25.0051 2.32845 25.0051ZM21.0029 25.0051H23.6718C24.4082 25.0051 25.0051 24.4082 25.0051 23.6718V21.0029C25.0051 20.2665 24.4082 19.6696 23.6718 19.6696H21.0029C20.2665 19.6696 19.6696 20.2665 19.6696 21.0029V23.6718C19.6696 24.4082 20.2665 25.0051 21.0029 25.0051ZM2.32845 6.33067H4.99734C5.73372 6.33067 6.33067 5.73372 6.33067 4.99734V2.32845C6.33067 1.59207 5.73372 0.995117 4.99734 0.995117H2.32845C1.59207 0.995117 0.995117 1.59207 0.995117 2.32845V4.99734C0.995117 5.73372 1.59207 6.33067 2.32845 6.33067ZM21.0029 6.33067H23.6718C24.4082 6.33067 25.0051 5.73372 25.0051 4.99734V2.32845C25.0051 1.59207 24.4082 0.995117 23.6718 0.995117H21.0029C20.2665 0.995117 19.6696 1.59207 19.6696 2.32845V4.99734C19.6696 5.73372 20.2665 6.33067 21.0029 6.33067Z" stroke="#3F58B6" stroke-width="2" stroke-linecap="round" stroke-linejoin="round"/>
</svg>
