<svg width="426" height="320" viewBox="0 0 426 320" fill="none" xmlns="http://www.w3.org/2000/svg">
<path d="M112.006 286.936C81.1761 286.936 54.8641 276.043 33.0715 254.257C11.2772 232.471 0.380859 206.169 0.380859 175.349C0.380859 147.366 10.3915 122.39 30.4129 100.427C50.4343 78.4651 75.3283 66.4194 105.095 64.2949C116.436 44.4576 131.407 28.7815 150.012 17.2683C168.615 5.75498 189.612 0 213 0C245.248 0 272.268 10.1832 294.061 30.5528C315.855 50.9225 329.232 76.1615 334.193 106.273C362.188 107.689 384.424 117.166 400.903 134.701C417.38 152.235 425.619 172.87 425.619 196.605C425.619 221.403 416.849 242.656 399.307 260.369C381.767 278.082 360.415 286.936 335.256 286.936H112.006Z" fill="#FCFCFC"/>
<path fill-rule="evenodd" clip-rule="evenodd" d="M213 286.936V0C245.248 0 272.268 10.1832 294.061 30.5528C315.855 50.9225 329.232 76.1615 334.193 106.273C362.188 107.689 384.424 117.166 400.903 134.701C417.38 152.235 425.619 172.87 425.619 196.605C425.619 221.403 416.849 242.656 399.307 260.369C381.767 278.082 360.415 286.936 335.256 286.936H213Z" fill="#FCFCFC"/>
<path fill-rule="evenodd" clip-rule="evenodd" d="M226.916 105.507H141.142C127.402 105.507 116.265 116.645 116.265 130.384V295.123C116.265 308.862 127.402 320 141.142 320H284.859C298.598 320 309.737 308.862 309.737 295.123V188.326L226.916 105.507Z" fill="#5D84D4"/>
<path fill-rule="evenodd" clip-rule="evenodd" d="M141.142 105.507C127.402 105.507 116.265 116.645 116.265 130.384V295.123C116.265 308.862 127.402 320 141.142 320H213V105.507H141.142Z" fill="#A6C3EA"/>
<path d="M203.072 183.91L174.282 212.712C172.461 214.533 170.146 215.443 167.332 215.443C164.519 215.443 162.204 214.533 160.383 212.712C158.563 210.891 157.653 208.574 157.653 205.759C157.653 202.945 158.563 200.628 160.383 198.807L206.051 153.122C208.036 151.135 210.353 150.142 213 150.142C215.647 150.142 217.964 151.135 219.949 153.122L265.617 198.807C267.437 200.628 268.347 202.945 268.347 205.759C268.347 208.574 267.437 210.891 265.617 212.712C263.796 214.533 261.481 215.443 258.668 215.443C255.856 215.443 253.539 214.533 251.718 212.712L222.928 183.91V265.349C222.928 268.163 221.976 270.522 220.073 272.426C218.171 274.33 215.813 275.282 213 275.282C210.187 275.282 207.829 274.33 205.927 272.426C204.024 270.522 203.072 268.163 203.072 265.349V183.91Z" fill="white"/>
<path fill-rule="evenodd" clip-rule="evenodd" d="M226.917 105.507V163.448C226.917 177.189 238.055 188.326 251.794 188.326H309.737L226.917 105.507Z" fill="#A6C3EA"/>
</svg>
