<svg width="46" height="47" viewBox="0 0 46 47" fill="none" xmlns="http://www.w3.org/2000/svg">
<rect x="3" y="3.5" width="40" height="40" rx="20" fill="#E1EAF8"/>
<rect x="3" y="3.5" width="40" height="40" rx="20" stroke="#F2F5FC" stroke-width="6"/>
<path d="M19.6667 26.8333L23 23.5M23 23.5L26.3333 26.8333M23 23.5V31M29.6667 27.4524C30.6846 26.6117 31.3333 25.3399 31.3333 23.9167C31.3333 21.3854 29.2813 19.3333 26.75 19.3333C26.5679 19.3333 26.3976 19.2383 26.3051 19.0814C25.2184 17.2374 23.212 16 20.9167 16C17.4649 16 14.6667 18.7982 14.6667 22.25C14.6667 23.9718 15.3629 25.5309 16.4891 26.6613" stroke="#3F58B6" stroke-width="1.66667" stroke-linecap="round" stroke-linejoin="round"/>
</svg>
