<svg viewBox="0 0 16 16" fill="none" xmlns="http://www.w3.org/2000/svg">
  <path d="M6.98712 9.01261L7.06494 8.0357C6.28457 7.81146 5.61154 7.31275 5.16984 6.63146C4.72815 5.95017 4.54754 5.1322 4.66131 4.32827C4.77507 3.52433 5.17554 2.78859 5.78893 2.25661C6.40225 1.72469 7.18711 1.43231 7.99895 1.43332C8.80905 1.43546 9.59124 1.72945 10.2022 2.26141C10.8133 2.79344 11.2121 3.52787 11.3256 4.33009C11.4391 5.13231 11.2597 5.94857 10.8203 6.62925C10.3809 7.30994 9.71084 7.80946 8.93302 8.03624L9.0127 9.01261C10.2049 9.15739 11.1857 9.5737 11.91 10.2886L11.9104 10.2891C12.833 11.1976 13.3399 12.5853 13.3399 14.5067C13.3399 14.5084 13.3392 14.5101 13.338 14.5114C13.3372 14.5121 13.3364 14.5126 13.3354 14.513C13.3347 14.5132 13.334 14.5133 13.3332 14.5133C13.3315 14.5133 13.3298 14.5126 13.3285 14.5114C13.3273 14.5101 13.3266 14.5084 13.3266 14.5067C13.3266 12.5874 12.8198 11.2036 11.9033 10.2982L11.9026 10.2974C10.9839 9.39361 9.65231 8.96666 7.99991 8.96666C6.34762 8.96666 5.01576 9.39356 4.09807 10.2977C3.17987 11.2023 2.67325 12.5876 2.67325 14.5067C2.67325 14.5084 2.67254 14.5101 2.67129 14.5114C2.67004 14.5126 2.66835 14.5133 2.66658 14.5133C2.66481 14.5133 2.66312 14.5126 2.66186 14.5114C2.66061 14.5101 2.65991 14.5084 2.65991 14.5067C2.65991 12.5852 3.1669 11.1964 4.08833 10.2891L4.08852 10.2889C4.81507 9.57267 5.79491 9.15739 6.98712 9.01261ZM5.62875 2.42882C4.99988 3.0577 4.64658 3.91063 4.64658 4.79999C4.64658 5.68935 4.99988 6.54228 5.62875 7.17115C6.25762 7.80003 7.11055 8.15332 7.99991 8.15332C8.88927 8.15332 9.7422 7.80003 10.3711 7.17115C10.9999 6.54228 11.3532 5.68935 11.3532 4.79999C11.3532 3.91063 10.9999 3.0577 10.3711 2.42882C9.7422 1.79995 8.88927 1.44666 7.99991 1.44666C7.11055 1.44666 6.25762 1.79995 5.62875 2.42882Z" stroke="currentColor"/>
</svg>
