<svg width="24" height="26" viewBox="0 0 24 26" fill="none" xmlns="http://www.w3.org/2000/svg">
<path d="M2.14803 11.6668H21.3333C22.0696 11.6668 22.6666 12.2638 22.6666 13.0002V22.3335C22.6666 23.8063 21.4727 25.0002 19.9999 25.0002H4.81469C3.34193 25.0002 2.14803 23.8063 2.14803 22.3335V11.6668ZM2.14803 11.6668L21.4489 6.51994C22.1526 6.33229 22.5756 5.61473 22.3989 4.9082L21.6745 2.01044C21.5878 1.66388 21.3657 1.36658 21.058 1.18518C20.7502 1.00378 20.3826 0.953467 20.0374 1.04551L3.31347 5.50527C1.90611 5.88054 1.06021 7.31561 1.41347 8.72866L2.14803 11.6668ZM8.20551 9.5929V4.6988M15.0619 7.62508V2.37234" stroke="#3F58B6" stroke-width="2" stroke-linecap="round" stroke-linejoin="round"/>
</svg>
