<svg width="16" height="14" viewBox="0 0 16 14" fill="none" xmlns="http://www.w3.org/2000/svg">
<path fill-rule="evenodd" clip-rule="evenodd" d="M9.008 0.649454C8.90398 0.474856 8.75639 0.33027 8.57969 0.22986C8.40299 0.129451 8.20324 0.0766602 8 0.0766602C7.79676 0.0766602 7.59701 0.129451 7.42031 0.22986C7.24361 0.33027 7.09602 0.474856 6.992 0.649454L0.171735 12.0927C0.0656217 12.2708 0.0085974 12.4738 0.00646685 12.6811C0.0043363 12.8884 0.0571756 13.0926 0.159606 13.2729C0.262036 13.4531 0.410399 13.603 0.589592 13.7073C0.768785 13.8116 0.972409 13.8665 1.17973 13.8665H14.8203C15.0276 13.8665 15.2312 13.8116 15.4104 13.7073C15.5896 13.603 15.738 13.4531 15.8404 13.2729C15.9428 13.0926 15.9957 12.8884 15.9935 12.6811C15.9914 12.4738 15.9344 12.2708 15.8283 12.0927L9.008 0.649454ZM7.90934 1.19559C7.9189 1.18015 7.93225 1.16741 7.94812 1.15858C7.96398 1.14975 7.98184 1.14511 8 1.14511C8.01816 1.14511 8.03602 1.14975 8.05189 1.15858C8.06775 1.16741 8.0811 1.18015 8.09067 1.19559L14.912 12.6388C14.9216 12.655 14.9267 12.6734 14.9269 12.6923C14.9271 12.7111 14.9223 12.7296 14.9129 12.746C14.9036 12.7623 14.8901 12.7759 14.8739 12.7854C14.8576 12.7949 14.8391 12.7999 14.8203 12.7999H1.17973C1.16091 12.7999 1.14242 12.7949 1.12614 12.7854C1.10986 12.7759 1.09638 12.7623 1.08707 12.746C1.07775 12.7296 1.07293 12.7111 1.07309 12.6923C1.07326 12.6734 1.0784 12.655 1.088 12.6388L7.90934 1.19559ZM7.28214 4.78492C7.27681 4.68736 7.29144 4.58973 7.32511 4.49801C7.35878 4.40629 7.4108 4.32239 7.47798 4.25144C7.54516 4.1805 7.6261 4.12399 7.71586 4.08537C7.80561 4.04676 7.90229 4.02684 8 4.02684C8.09771 4.02684 8.19439 4.04676 8.28415 4.08537C8.3739 4.12399 8.45484 4.1805 8.52202 4.25144C8.5892 4.32239 8.64122 4.40629 8.67489 4.49801C8.70857 4.58973 8.72319 4.68736 8.71787 4.78492L8.55467 9.05265C8.54592 9.19354 8.48379 9.32578 8.38093 9.42245C8.27807 9.51912 8.14222 9.57294 8.00107 9.57294C7.85991 9.57294 7.72407 9.51912 7.62121 9.42245C7.51835 9.32578 7.45622 9.19354 7.44747 9.05265L7.28214 4.78492ZM8.8 11.1743C8.8 11.3864 8.71572 11.5899 8.56569 11.7399C8.41566 11.89 8.21217 11.9743 8 11.9743C7.78783 11.9743 7.58435 11.89 7.43432 11.7399C7.28429 11.5899 7.2 11.3864 7.2 11.1743C7.2 10.9621 7.28429 10.7586 7.43432 10.6086C7.58435 10.4585 7.78783 10.3743 8 10.3743C8.21217 10.3743 8.41566 10.4585 8.56569 10.6086C8.71572 10.7586 8.8 10.9621 8.8 11.1743Z" fill="currentColor"/>
</svg>
