<svg viewBox="0 0 24 24" fill="none" xmlns="http://www.w3.org/2000/svg">
    <path d="M13.3969 12.0705L13.3969 12.0705L13.4021 12.0674C13.7846 11.8351 14.1441 11.5834 14.4036 11.2544C14.6785 10.9057 14.8201 10.4982 14.8201 10C14.8201 8.62435 13.6453 7.38 12.0001 7.38C10.3549 7.38 9.18012 8.62435 9.18012 10C9.18012 10.1008 9.14009 10.1974 9.06882 10.2687C8.99756 10.34 8.9009 10.38 8.80012 10.38C8.69934 10.38 8.60268 10.34 8.53142 10.2687C8.46016 10.1974 8.42012 10.1008 8.42012 10C8.42012 8.17872 9.96214 6.62 12.0001 6.62C14.0381 6.62 15.5801 8.17872 15.5801 10C15.5801 11.4859 14.6242 12.2137 13.7994 12.7159C13.6374 12.8127 13.4962 12.8958 13.3756 12.9654L13.374 12.9664C13.3604 12.9743 13.347 12.9821 13.3336 12.9899C13.1214 13.1134 12.9252 13.2277 12.7447 13.366C12.6396 13.4401 12.5477 13.5314 12.4731 13.6361L12.3807 13.7655L12.3801 13.9246C12.3798 14.0254 12.3394 14.1219 12.2678 14.1929C12.1963 14.2639 12.0995 14.3036 11.9987 14.3032C11.898 14.3028 11.8014 14.2624 11.7304 14.1909C11.6594 14.1194 11.6198 14.0226 11.6201 13.9218V13.92C11.6201 13.4014 11.9242 13.0434 12.2604 12.7811C12.5284 12.5839 12.8093 12.4048 13.1011 12.2449L13.1083 12.241L13.1153 12.2369L13.3969 12.0705ZM1.90332 12C1.90332 9.32216 2.96709 6.754 4.8606 4.86048C6.75412 2.96697 9.32228 1.9032 12.0001 1.9032C14.678 1.9032 17.2461 2.96697 19.1396 4.86048C21.0332 6.754 22.0969 9.32216 22.0969 12C22.0969 14.6778 21.0332 17.246 19.1396 19.1395C17.2461 21.033 14.678 22.0968 12.0001 22.0968C9.32228 22.0968 6.75412 21.033 4.8606 19.1395C2.96709 17.246 1.90332 14.6778 1.90332 12ZM12.0001 2.4232C9.46019 2.4232 7.0243 3.43218 5.2283 5.22818C3.4323 7.02418 2.42332 9.46007 2.42332 12C2.42332 14.5399 3.4323 16.9758 5.2283 18.7718C7.0243 20.5678 9.46019 21.5768 12.0001 21.5768C14.54 21.5768 16.9759 20.5678 18.7719 18.7718C20.5679 16.9758 21.5769 14.5399 21.5769 12C21.5769 9.46007 20.5679 7.02418 18.7719 5.22818C16.9759 3.43218 14.54 2.4232 12.0001 2.4232ZM12.7001 16.8C12.7001 16.9856 12.6264 17.1637 12.4951 17.295C12.3638 17.4262 12.1858 17.5 12.0001 17.5C11.8145 17.5 11.6364 17.4262 11.5051 17.295C11.3739 17.1637 11.3001 16.9856 11.3001 16.8C11.3001 16.6143 11.3739 16.4363 11.5051 16.305C11.6364 16.1737 11.8145 16.1 12.0001 16.1C12.1858 16.1 12.3638 16.1737 12.4951 16.305C12.6264 16.4363 12.7001 16.6143 12.7001 16.8Z" stroke="currentColor"/>
</svg>
