<svg viewBox="0 0 24 24" fill="none" xmlns="http://www.w3.org/2000/svg">
    <path d="M9.99901 9.99913H14.0007M11.9998 9.99913V14.0008M4.99693 6.99788V17.002M6.99776 19.0029H17.0019M19.0028 17.002V6.99788M17.0019 4.99705H6.99776M3.99609 21.0037H5.99776C6.55005 21.0037 6.99776 20.556 6.99776 20.0037V18.002C6.99776 17.4498 6.55004 17.002 5.99776 17.002H3.99609C3.44381 17.002 2.99609 17.4498 2.99609 18.0021V20.0037C2.99609 20.556 3.44381 21.0037 3.99609 21.0037ZM18.0019 21.0037H20.0036C20.5559 21.0037 21.0036 20.556 21.0036 20.0037V18.002C21.0036 17.4498 20.5559 17.002 20.0036 17.002H18.0019C17.4496 17.002 17.0019 17.4498 17.0019 18.0021V20.0037C17.0019 20.556 17.4496 21.0037 18.0019 21.0037ZM3.99609 6.99788H5.99776C6.55005 6.99788 6.99776 6.55017 6.99776 5.99788V3.99622C6.99776 3.44393 6.55004 2.99622 5.99776 2.99622H3.99609C3.44381 2.99622 2.99609 3.44393 2.99609 3.99622V5.99788C2.99609 6.55017 3.44381 6.99788 3.99609 6.99788ZM18.0019 6.99788H20.0036C20.5559 6.99788 21.0036 6.55017 21.0036 5.99788V3.99622C21.0036 3.44393 20.5559 2.99622 20.0036 2.99622H18.0019C17.4496 2.99622 17.0019 3.44393 17.0019 3.99622V5.99788C17.0019 6.55017 17.4496 6.99788 18.0019 6.99788Z" stroke="currentColor" stroke-width="1.5" stroke-linecap="round" stroke-linejoin="round"/>
</svg>
