<svg viewBox="0 0 24 24" fill="none" xmlns="http://www.w3.org/2000/svg">
    <path d="M4.61108 11H19C19.5523 11 20 11.4477 20 12V19C20 20.1046 19.1046 21 18 21H6.61108C5.50651 21 4.61108 20.1046 4.61108 19V11ZM4.61108 11L19.0868 7.13983C19.6145 6.9991 19.9317 6.46093 19.7992 5.93103L19.2559 3.75771C19.1909 3.49779 19.0244 3.27481 18.7935 3.13876C18.5627 3.00272 18.287 2.96498 18.0281 3.03401L5.48516 6.37883C4.42964 6.66028 3.79522 7.73659 4.06016 8.79637L4.61108 11ZM9.15419 9.44455V5.77398M14.2965 7.96869V4.02913" stroke="currentColor" stroke-width="1.5" stroke-linecap="round" stroke-linejoin="round"/>
</svg>
