<svg viewBox="0 0 25 24" fill="none" xmlns="http://www.w3.org/2000/svg">
    <path d="M7.25013 5.06315L6.15005 4.48253V5.72643V18.2736V19.5175L7.25013 18.9369L19.1365 12.6633L20.3932 12L19.1365 11.3367L7.25013 5.06315ZM6.07412 4.35775C6.08149 4.35331 6.08988 4.35085 6.09848 4.35061C6.10705 4.35036 6.11554 4.35232 6.12313 4.3563C6.12316 4.35632 6.12319 4.35634 6.12322 4.35635L20.5222 11.9558C20.5222 11.9558 20.5223 11.9558 20.5223 11.9558C20.5303 11.9601 20.537 11.9665 20.5417 11.9742C20.5464 11.982 20.5489 11.9909 20.5489 12C20.5489 12.0091 20.5464 12.018 20.5417 12.0258C20.537 12.0336 20.5303 12.04 20.5223 12.0442C20.5223 12.0442 20.5222 12.0442 20.5222 12.0442L6.12335 19.6436C6.11573 19.6477 6.10721 19.6496 6.0986 19.6494C6.09 19.6491 6.0816 19.6467 6.07423 19.6422C6.06686 19.6378 6.06076 19.6315 6.05652 19.624C6.0523 19.6165 6.05008 19.6081 6.05005 19.5996V4.40039C6.05007 4.3918 6.0523 4.38337 6.05652 4.37589C6.06076 4.36839 6.06687 4.36212 6.07425 4.35767L5.68727 3.71526L6.07412 4.35775Z" fill="#121521" stroke="currentColor" stroke-width="1.5"/>
</svg>
