<svg width="16" height="9" viewBox="0 0 16 9" fill="none" xmlns="http://www.w3.org/2000/svg">
<path d="M1.38074 1.19485L1.38099 1.19457C1.40793 1.1658 1.44028 1.14261 1.47618 1.12635C1.51208 1.11008 1.55084 1.10105 1.59023 1.09977C1.62963 1.09849 1.66889 1.10498 1.70578 1.11888C1.74266 1.13278 1.77644 1.15381 1.80519 1.18077L1.8052 1.18077L7.658 6.66877L8 6.98946L8.34201 6.66877L14.1947 1.1809C14.2528 1.12644 14.3302 1.0973 14.4098 1.09989C14.4894 1.10248 14.5647 1.13659 14.6191 1.19471C14.6736 1.25283 14.7027 1.3302 14.7001 1.4098C14.6976 1.4894 14.6635 1.56472 14.6053 1.61917L14.6052 1.61927L8.20523 7.61927L8.2052 7.6193C8.1496 7.67144 8.07623 7.70045 8 7.70045C7.92378 7.70045 7.85041 7.67144 7.7948 7.6193L7.79477 7.61927L1.39477 1.61927L1.39454 1.61905C1.36576 1.59211 1.34258 1.55976 1.32631 1.52386C1.31005 1.48796 1.30102 1.4492 1.29973 1.40981C1.29845 1.37041 1.30495 1.33115 1.31885 1.29427C1.33274 1.25738 1.35377 1.2236 1.38074 1.19485Z" stroke="currentColor"/>
</svg>
