<svg
  viewBox="0 0 24 24"
  fill="none"
  xmlns="http://www.w3.org/2000/svg"
>
  <path
    d="M5.38097 10.1948L5.38122 10.1946C5.40816 10.1658 5.44051 10.1426 5.47641 10.1263C5.51231 10.1101 5.55107 10.101 5.59046 10.0998C5.62986 10.0985 5.66912 10.105 5.706 10.1189C5.74289 10.1328 5.77667 10.1538 5.80542 10.1808L5.80543 10.1808L11.6582 15.6688L12.0002 15.9895L12.3422 15.6688L18.1949 10.1809C18.253 10.1264 18.3304 10.0973 18.41 10.0999C18.4896 10.1025 18.5649 10.1366 18.6194 10.1947C18.6738 10.2528 18.703 10.3302 18.7004 10.4098C18.6978 10.4894 18.6637 10.5647 18.6056 10.6192L18.6055 10.6193L12.2055 16.6193L12.2054 16.6193C12.1498 16.6714 12.0765 16.7005 12.0002 16.7005C11.924 16.7005 11.8506 16.6714 11.795 16.6193L11.795 16.6193L5.395 10.6193L5.39477 10.619C5.36599 10.5921 5.34281 10.5598 5.32654 10.5239C5.31028 10.488 5.30124 10.4492 5.29996 10.4098C5.29868 10.3704 5.30518 10.3311 5.31907 10.2943C5.33297 10.2574 5.354 10.2236 5.38097 10.1948Z"
    stroke="currentColor"
  />
</svg>
